<?xml version="1.0" encoding="utf-8"?>
<!-- Generator: Adobe Illustrator 24.3.0, SVG Export Plug-In . SVG Version: 6.00 Build 0)  -->
<svg version="1.1" xmlns="http://www.w3.org/2000/svg" xmlns:xlink="http://www.w3.org/1999/xlink" x="0px" y="0px"
	 viewBox="0 0 2000 2000" enable-background="new 0 0 2000 2000" xml:space="preserve">
<g id="Background">
	<g>
		<rect fill="#BDE6FF" width="2000" height="727"/>
		<g>
			<g>
				<path opacity="0.2" fill="#FFF083" d="M1864.1,273.6c0,10.8-0.3,21.4-1,32c-8.9,141.9-76.3,268-178.3,354.4
					c-2.6,2.2-5.1,4.3-7.7,6.4c-4.2,3.4-8.5,6.8-12.8,10.1c0,0,0,0,0,0c-19.1,14.5-39.3,27.7-60.4,39.5c-6.9,3.8-13.9,7.5-20.9,11
					c-5.5,2.7-11,5.3-16.6,7.9c-63.5,28.7-133.9,44.6-208,44.6c-69.9,0-136.5-14.2-197-39.8c-2.6-1.1-5.2-2.2-7.8-3.4h0
					c-6.7-3-13.3-6-19.8-9.3c-112.2-55.7-200.9-151.9-246.7-269.5c-0.5-1.2-0.9-2.3-1.3-3.5c-1.5-3.9-3-7.9-4.4-11.9
					c-18.6-52.7-28.8-109.4-28.8-168.5C852.5,172.8,882,78.9,932.8,0h851c34.7,53.9,59.5,114.7,71.7,180c4.7,25,7.5,50.7,8.4,76.9
					C1864,262.5,1864.1,268.1,1864.1,273.6z"/>
				<path opacity="0.2" fill="#FFF083" d="M1710.6,273.6c0,10.8-0.5,21.5-1.5,32.1c-12.9,142.9-111.1,261.1-243.2,303.5
					c-3.9,1.2-7.8,2.4-11.7,3.5c-9.3,2.6-18.7,4.9-28.3,6.7c-0.7,0.1-1.4,0.3-2.1,0.4c-2.8,0.5-5.6,1-8.4,1.5
					c-1,0.2-1.9,0.3-2.9,0.5c-17.7,2.7-35.8,4.1-54.2,4.1c-194.6,0-352.3-157.7-352.3-352.3c0-110.5,50.8-209.1,130.4-273.6h443.7
					c57.2,46.4,99.6,110.5,118.9,183.9v0c3.9,14.8,6.9,30.1,8.8,45.6C1709.6,243.9,1710.6,258.7,1710.6,273.6z"/>
				<circle opacity="0.2" fill="#FFF083" cx="1358.3" cy="273.7" r="245.3"/>
				<circle fill="#FFF083" cx="1358.3" cy="273.7" r="170.8"/>
			</g>
			<g>
				<g>
					<g>
						<path fill="#FFFFFF" d="M1763.1,669.6c-7.5,9-17.2,20.6-23.2,28.4c-4.1,5.4-10.3,11.9-19.5,17.9
							c-15.4,10.1-39.5,18.9-76.7,18.9h-323.9c-10.3,0-16-10.6-12.2-18.9c0.7-1.6,1.8-3.1,3.3-4.5c5.7-5.1,12.2-10.2,19.2-14.4
							c4.7-2.8,9.6-5.2,14.7-6.9c1.4-0.5,2.8-0.6,4.3-0.6h80.1c0,0,21.2-1.2,22.6-13c0.1-0.4,0.1-0.8,0.1-1.2c0-0.5,0-1-0.1-1.5
							c-1.6-11.4-21.3-10.6-21.3-10.6h-68.4c0,0-7.6,1.6-12.1-5.7c-1.2-1.9,1-4,3-2.9c3.4,1.9,8,2.8,12.9-1.5
							c2.6-2.2,6.3-5.8,11.8-9.9c15.1-11.1,43.6-25.8,98.6-25.8c30.3,0,49.9,4.3,62.5,9.4c18.6,7.6,21.9,17,21.9,17
							s15.4-1.3,30.1,2.6c7.6,2,15,5.5,19.9,11.2c0,0,29-5,60.1-0.4h0c11,1.7,22.3,4.5,32.7,9.2c0,0,28.2,3.9,55.2-3.8
							C1762.6,661.5,1765.8,666.3,1763.1,669.6z"/>
						<path fill="#263F5E" d="M1560.5,643.8h-61.4c-3.5,0-4.2-5-0.8-5.9l40.3-11.1h0C1557.2,634.4,1560.5,643.8,1560.5,643.8z"/>
						<path fill="#263F5E" d="M1610.4,657.6H1562c-2.4,0-2.8-3.4-0.5-4l29-7.2C1598.2,648.4,1605.6,651.9,1610.4,657.6z"/>
						<path fill="#263F5E" d="M1703.2,666.4h-52.8c-2.2,0-2.6-3.1-0.5-3.6l20.6-5.6h0C1681.6,658.8,1692.9,661.7,1703.2,666.4z"/>
						<circle fill="#263F5E" cx="1677.6" cy="690.8" r="6.3"/>
						<circle fill="#263F5E" cx="1610.4" cy="690.8" r="6.3"/>
						<circle fill="#263F5E" cx="1543.3" cy="690.8" r="6.3"/>
						<circle fill="#263F5E" cx="1476.1" cy="690.8" r="6.3"/>
						<rect x="1516.5" y="628.1" fill="#FFFFFF" width="4.3" height="20.2"/>
						<polygon fill="#FFFFFF" points="1445.3,593.5 1441,593.5 1441,564.5 1441,564.5 						"/>
						<polygon fill="#FFFFFF" points="1416.8,630.9 1412.5,630.9 1412.5,601.9 1412.5,601.9 						"/>
						<polygon fill="#FFFFFF" points="1456.2,599.5 1451.9,599.5 1451.9,570.5 1451.9,570.5 						"/>
						<rect x="1573.8" y="646.3" fill="#FFFFFF" width="4.3" height="20.2"/>
						<rect x="1660" y="656.4" fill="#FFFFFF" width="4.3" height="20.2"/>
						<rect x="1729.5" y="658.9" fill="#FFFFFF" width="4.3" height="20.2"/>
						<rect x="1742.8" y="655" fill="#FFFFFF" width="4.3" height="20.2"/>
						<rect x="1354.1" y="673.7" fill="#FFFFFF" width="4.2" height="23.4"/>
						<rect x="1374.7" y="673.7" fill="#FFFFFF" width="4.2" height="23.4"/>
						<rect x="1395.3" y="673.7" fill="#FFFFFF" width="4.2" height="23.4"/>
						<path fill="#FFFFFF" d="M1454,677.9v-4.2h-105.6c-1.2,0-2.1,0.9-2.1,2.1l0,0c0,1.2,0.9,2.1,2.1,2.1H1454z"/>
						<rect x="1415.8" y="673.7" fill="#FFFFFF" width="4.2" height="23.4"/>
						<rect x="1436.4" y="673.7" fill="#FFFFFF" width="4.2" height="23.4"/>
						<path opacity="5.000000e-02" fill="#263F5E" d="M1720.4,716c-15.4,10.1-39.5,18.9-76.7,18.9h-323.9c-10.3,0-16-10.6-12.2-18.9
							H1720.4z"/>
						<circle fill="#FFFFFF" cx="1444.6" cy="613.5" r="21.7"/>
						<path fill="#FFFFFF" d="M1703.2,666.4l52.5-16.9c2.1-0.7,4.2,0.9,4.2,3.1v13.8h-5.2V654L1710,669L1703.2,666.4z"/>
						<path opacity="5.000000e-02" fill="#263F5E" d="M1456,618c-1-7.3-7.3-13-15-13c-8.4,0-15.1,6.8-15.1,15.1
							c0,0.7,0.1,1.4,0.2,2.1C1434.8,620.3,1444.7,618.8,1456,618z"/>
					</g>
					<path opacity="5.000000e-02" fill="#263F5E" d="M1441.3,697.1H1330c4.7-2.8,9.6-5.2,14.7-6.9c1.4-0.5,2.8-0.6,4.3-0.6h80.1
						c0,0,21.2-1.2,22.6-13l0.1,10C1451.8,692.3,1447.1,697.1,1441.3,697.1z"/>
					<path opacity="5.000000e-02" fill="#263F5E" d="M1451.8,653h-86.1c2.6-2.2,6.3-5.8,11.8-9.9L1451.8,653z"/>
					<path opacity="5.000000e-02" fill="#263F5E" d="M1547.6,649.4H1480c-0.7,0-0.8,1.1-0.1,1.2l67.1,8c2.7,0.3,5.1-1.8,5.1-4.6l0,0
						C1552.2,651.5,1550.1,649.4,1547.6,649.4z"/>
					<path opacity="5.000000e-02" fill="#263F5E" d="M1643,661.5h-36.6c-0.4,0-0.4,0.6,0,0.6l36.3,4.3c1.5,0.2,2.8-1,2.8-2.5l0,0
						C1645.4,662.6,1644.3,661.5,1643,661.5z"/>
				</g>
				<g>
					<path fill="#FFFFFF" d="M1206.4,745.3c-14.7-2.5-29.8-4.3-45.1-5.6c-93.8-7.8-196.9,4.9-289,5.5c-1.1,0-2.2,0-3.3,0
						c-1.3,0-2.6,0-3.9,0h-15.2c-3,0-6.1,0-9.1,0h-20c-9,0-18,0-26.9,0h-10.2c-2.6,0-5.2,0-7.8,0h-19.1c-3.9,0-7.8,0-11.7,0h-13.8
						c-15.2,0-30.4,0-45.6,0c-59.1,0-118.2,0-177.3-0.1c-20.9,0-41.9,0-62.8,0c-62.7,0-125.4,0-188.1-0.1c-3.8,0-7.6,0-11.4,0h-16.8
						c-2.5,0-5.1,0-7.6,0h-12.4c-9,0-17.9,0-26.9,0h-18.1c-3.1,0-6.1,0-9.2,0h-21.6c-28.8,0-57.7,0-86.6,0c-15.6,0-31.3,0-46.9,0
						V152.8c12.1,0.7,24.1,3.6,35.2,8.9c37,18,59.3,64.1,51.3,105.9c45.6-18,102.3,3.3,126.4,47.7c24.2,44.4,12.9,106.4-25.1,138.3
						c25.9-5.2,52.6,7.6,71.6,26.8c18.9,19.2,31.4,44.2,43.5,68.6c7.3,14.8,14.7,29.5,22,44.3c1.6-35.6,42.9-62.2,74-47.7
						c-9-33.6-13.9-78.5,15.4-95.1c21.1-12,48.9,0.8,62.6,21.5c13.7,20.7,17.1,46.8,20,71.8c-1-9.6,1.5-19.5,6.9-27.3
						c22.2-16,56.6,2.9,61.3,29.3c0.1-53.7,14.2-109.5,51.4-146.1c39.7-39,109.9-46,146.7-4c40.2,45.9,23.8,118.6,3.6,177.2
						c28.7-21.3,67.6-43,96.3-21.7c19.8,14.7,24,45,16.3,69.1c-7.7,24.1-24.7,43.5-41.3,62.1c87,14.8,174,29.6,261,44.5
						c18.2,3.1,36.4,6.2,54.5,9.3c0,0,0,0,0,0C1171.1,739.3,1188.8,742.3,1206.4,745.3z"/>
					<path opacity="5.000000e-02" fill="#263F5E" d="M872.2,745.2c-1.1,0-2.2,0-3.3,0c-1.3,0-2.6,0-3.9,0h-15.2c-3,0-6.1,0-9.1,0
						h-20c-9,0-18,0-26.9,0h-10.2c-2.6,0-5.2,0-7.8,0h-19.1c-3.9,0-7.8,0-11.7,0h-13.8c-15.2,0-30.4,0-45.6,0
						c-59.1,0-118.2,0-177.3-0.1c-20.9,0-41.9,0-62.8,0c-62.7,0-125.4,0-188.1-0.1c-3.8,0-7.6,0-11.4,0h-16.8c-2.5,0-5.1,0-7.6,0
						h-12.4c-9,0-17.9,0-26.9,0h-18.1c-3.1,0-6.1,0-9.2,0h-21.6c-28.8,0-57.7,0-86.6,0c-15.6,0-31.3,0-46.9,0V347.1
						c23.9,9,42.3,33.1,42.1,58.9c26-6.9,56,6.3,68.4,30.1c12.4,23.9,6.1,56-14.4,73.4c29.7,6.7,62.5-5.6,90.4,6.6
						c20.9,9.1,34.4,30.5,39.8,52.7c5.3,22.2,3.6,45.4,1.9,68.2c53.3-2.9,114.3-2.9,150.4,36.4c-3.7-13.6-7.5-27.7-5.1-41.6
						c2.4-13.9,12.9-27.4,26.9-28.6c15.1-1.2,27.4,11.4,37.2,22.9c0.4-8,1.2-16,2.4-23.9c2.9-18.6,21.1-30.5,39.3-25.8
						c5.5,1.4,11,3.3,16.4,5.1c29.8,10.2,61.2,22,80.5,46.8c-7.3-37.8,2.9-80.2,31.7-105.9c28.8-25.6,76.8-29.5,105.6-4
						c30.6,27.2,31.3,74,29.7,114.9c17.8-7.7,40.7-0.8,51.3,15.4c10.7,16.2,7.8,39.9-6.3,53.2c10,4.1,22.8,8.5,35.8,13.9
						c3.3,1.4,6.6,2.8,9.9,4.3c4.3,2,8.5,4,12.6,6.3c0.3,0.2,0.5,0.3,0.8,0.4c2.7,1.5,5.3,3,7.8,4.6c2.7,1.7,5.3,3.5,7.7,5.3
						c2.6,2,5,4,7.3,6.1C870.8,743.8,871.5,744.5,872.2,745.2z"/>
				</g>
				<path fill="#263F5E" d="M737,732.3c-1.1,4.8-3.1,9.1-5.7,12.9c-12.6,18.3-40.9,24.9-64.8,26.8c-11.3,0.9-22.6,1.6-33.8,2.1
					c-15.7,0.7-31.3,1.1-47,1.2c-11,0.1-22.1,0.1-33.1-0.1c-25.2-0.3-50.4-1-75.5-1.7c-9.5-0.3-19-0.5-28.6-0.8
					c-42.3-1.1-84.6-2.2-127-3c-25.5-0.5-51.1-0.9-76.6-1.1c-3.2,0-6.5-0.1-9.8-0.1c-1.3,0-2.6,0-3.9,0c-7.7-0.1-15.4-0.1-23.1-0.1
					c-1.5,0-3,0-4.6,0c-9.2,0-18.4-0.1-27.6,0c-3.1,0-6.1,0-9.2,0c-1.8,0-3.5,0-5.3,0c-2.6,0-5.3,0-7.9,0c-0.8,0-1.7,0-2.5,0
					c-2.2,0-4.4,0-6.6,0c-2.5,0-5,0-7.4,0c-7.8,0.1-15.5,0.1-23.3,0.2c-20.9,0.3-41.8,0.7-62.7,1.2c-14.3,0.4-28.7,0.8-43,1.3
					c-2.6,0.1-5.3,0.2-8,0.2V519.2c11.7,1.4,25.3,9.2,40.3,21.7c2.6,2.2,5.2,4.6,6.2,7.8c3.5,11.1-13.9,23.6-6.4,32.5
					c8.5-2.3,16.6,5.1,20.5,13c3.9,7.9,5.6,17,11.3,23.7c10.7,12.8,30.4,11.8,46.8,8.5c4.9-1,10.2-2,14.6,0.2
					c8.9,4.6,7.2,17.6,11.4,26.6c5.6,11.8,20.8,15.2,33.8,15.2c13.1,0,27.2-1.7,38.3,5.1c5.9,3.6,10.3,9.2,15.7,13.5
					c24.3,18.8,59.1,5,89.8,6.6c30.2,1.5,63.3,18.2,88.6,1.6c5-3.3,9.3-7.7,14.5-10.8c15-9,33.6-4.9,51.4-4.8
					c7.6,0.1,15.1-0.5,22-3.2c0.7-0.3,1.4-0.6,2.1-0.9c8.3-3.6,15.6-9.6,24.4-11.7c7.7-1.8,15.8-0.4,23,2.8
					c16.4,7.4,29.3,24.5,47.2,24.4c7.8,0,15.2-3.4,22.9-4.1c11-1,21.7,3.5,31.8,7.9c9.7,4.2,19.4,8.4,29.2,12.6
					c15.1,6.5,30.2,13,45.3,19.6C728.8,728.8,732.9,730.5,737,732.3z"/>
				<path fill="#40537E" d="M679.5,707.4c-8.9,4.5-20.6,5.7-30.8,6c-11.5,0.3-23,0.7-34.6,1c1.9-4,3.8-8.1,5.7-12.1
					c-23.6,0.1-47.2,0.3-70.8,0.5c-4.8,0-11.5-2.2-10.2-6.9c-4.1,2.9-8.9,4.7-13.9,5.1c-0.2-6-0.5-12-0.7-18
					c-21.1,12.5-43.6,22.4-67,29.7c-2.3-4.1-0.8-9.9,3.3-12.2c-10.1-3.1-21.7-0.8-29.9,5.8c-3.1,2.5-5.8,5.7-9.3,7.8
					c-8.3,5.1-19,3.3-28.6,1.6c-38.6-7-78-9.3-117.1-6.9c-9.8,0.6-19.9,1.4-29.3-0.5c-1.6-0.3-3.2-0.7-4.8-1.2c0,0,0,0,0,0
					c-2.2-0.7-4.2-1.5-6.3-2.6c-3.9-2-7.4-4.8-11.5-6.3c-10.6-3.9-22.8,1.2-33.3-2.7c-5.2-1.9-9.4-5.8-14.4-8.1
					c-26.2-12.2-54.1,22.8-82.5,17.2c8.3-7.1,16.6-14.2,25-21.4c1.9-1.6,3.8-3.3,4.7-5.6c2.1-5.4-3-11.5-8.7-12.6
					c-5.7-1.1-11.5,1.2-16.9,3.4c4-7.9-4-17.4-12.7-18.7c-8.7-1.2-17.2,2.9-25.2,6.5c-8,3.6-17.1,6.9-25.4,4
					c-1.2-6.8,5.5-12.1,8.3-18.3c4.6-10.1-1.2-22-8.7-30.2c-7.6-8.2-17.1-14.8-22.2-24.7c-8.1-15.5-3.4-34.9-9.5-51.2
					c-0.6-1.5-1.2-3-2-4.4v-12.1c11.7,1.4,25.3,9.2,40.3,21.7c2.6,2.2,5.2,4.6,6.2,7.8c3.5,11.1-13.9,23.6-6.4,32.5
					c8.5-2.3,16.6,5.1,20.5,13c3.9,7.9,5.6,17,11.3,23.7c10.7,12.8,30.4,11.8,46.8,8.5c4.9-1,10.2-2,14.6,0.2
					c8.9,4.6,7.2,17.6,11.4,26.6c5.6,11.8,20.8,15.2,33.8,15.2c13.1,0,27.2-1.7,38.3,5.1c5.9,3.6,10.3,9.2,15.7,13.5
					c24.3,18.8,59.1,5,89.8,6.6c30.2,1.5,63.3,18.2,88.6,1.6c5-3.3,9.3-7.7,14.5-10.8c15-9,33.6-4.9,51.4-4.8
					c7.6,0.1,15.1-0.5,22-3.2c0.7-0.3,1.4-0.6,2.1-0.9c8.3-3.6,15.6-9.6,24.4-11.7c7.7-1.8,15.8-0.4,23,2.8
					c16.4,7.4,29.3,24.5,47.2,24.4c7.8,0,15.2-3.4,22.9-4.1c11-1,21.7,3.5,31.8,7.9C660,699,669.8,703.2,679.5,707.4z"/>
				<g>
					<path fill="#40537E" d="M500.1,664.1c0.5,3.8,0.8,7.5,0.8,11.4c0,4.8-2,9.3-6.5,9.9c-1.9,0.3-3.8,0.2-5.9,0c-2,0.2-4,0.3-5.9,0
						c-4.5-0.6-6.5-5.2-6.5-9.9c0-1.1,0-2.3,0.1-3.4c0.2-4,0.7-7.9,1.2-11.8c0.5-3.5,1.1-7,1.7-10.5c0.6-3.9,1.2-7.9,1.4-11.9
						c0.1-1.5,0.2-3,0.2-4.6c0-0.6,0-1.3-0.3-1.8c-0.2-0.4-0.6-0.5-1-0.7c-1.6-0.8-5.5-2.1-7.1-2.8c0.5-4.3,0.4-3.5,0.9-7.8
						c1.6-0.1,3.3-0.3,4.9-0.4c0.2-4.4,2.2-8.5,5.2-10.9c1.7-1.3,3.9-2.7,4.2-4.9c0-0.3,0.2-0.6,0.3-0.8c0.2-0.2,0.4-0.3,0.6-0.3
						c0.2,0,0.4,0.1,0.6,0.3c0.2,0.2,0.3,0.5,0.3,0.8c0.3,2.2,2.5,3.6,4.2,4.9c3,2.3,5,6.5,5.2,10.9c1.6,0.1,3.3,0.3,4.9,0.4
						c0.5,4.3,0.4,3.5,0.9,7.8c-1.6,0.8-5.5,2.1-7.1,2.8c-0.2,0.1-0.5,0.2-0.7,0.4c-0.1,0.1-0.2,0.2-0.3,0.3
						c-0.3,0.5-0.3,1.2-0.3,1.8c0,1.9,0.1,3.7,0.2,5.5c0.4,5.1,1.2,10.1,2,15.2C499.1,657.4,499.7,660.8,500.1,664.1z"/>
					<path fill="#263F5E" d="M496.6,631.6c-0.3,0.5-0.3,1.2-0.3,1.8c0,1.9,0.1,3.7,0.2,5.5c-4.2,3.3-8.5,6.6-13.2,9
						c-1.4,0.7-2.8,1.3-4.2,1.9c0.6-3.9,1.2-7.9,1.4-11.9c5.2-2.5,11.2-4.1,16.4-6.7l0,0C496.8,631.4,496.7,631.5,496.6,631.6z"/>
					<path fill="#263F5E" d="M500.1,664.1c-5.7,2.7-11.6,4.7-17.6,6.6c-2.1,0.6-4.2,1.3-6.3,1.4c0.2-4,0.7-7.9,1.2-11.8
						c7.2-1.3,14.1-3.9,21.2-6.2C499.1,657.4,499.7,660.8,500.1,664.1z"/>
				</g>
				<g>
					<path fill="#FFFFFF" d="M531.7,317.2c-0.7,0.1-1.3,0.1-2,0.1h0c-7.4,0.1-14.5-3.7-20-8.7c-6-5.4-10.6-12.3-15.6-18.6
						c-3-3.7-6.7-7.5-11.4-7.7c-3.5-0.1-6.7,1.7-9.7,3.3c-6.9,3.6-14.5,6.1-22.2,7.3c-4.2,0.7-8.6,1-12.6-0.4
						c-3.8-1.3-7.2-4.4-8-8.3c0-0.2-0.1-0.4-0.1-0.7c-5.4,4.4-8.4,11.7-7.4,18.6c0.4,2.5,0.2,6.3-2.4,6.1c-2.5-0.1-2.8-4.3-5.2-4.8
						c-1.2-0.2-2.2,0.5-3.3,1.1c-2.8,1.4-6.3,1.4-9.1,0c0-2.6,0.5-5.2,1.6-7.6c-3.2,0.3-6.4-0.3-9.2-1.8c4.4-2.4,8.8-4.8,13.2-7.2
						c2.9-1.6,5.8-3.2,7.8-5.7c2.1-2.5,3.1-6.1,1.7-9.1c-0.2,0-0.4,0.1-0.6,0.1c-15.1,2-31.2-5.1-39.8-17.7c-0.5-0.7-1-1.5-1.8-1.8
						c-0.9-0.4-1.8-0.2-2.7,0.1c-7.2,2.1-13.3,7.2-20.5,9.1c-3.5,0.9-7.1,1.1-10.7,0.7c-7.9-0.7-15.6-3.9-21.7-9
						c-0.5-0.4-1-0.8-1.4-1.2c13.4-3.5,26.7-7.7,39.7-12.6c7-2.6,14-5.5,21.4-6.8c7.4-1.3,15.3-1,22,2.5c6.1,3.2,10.5,8.6,14.8,14
						c4.1,5.1,8.3,14.6,15.6,12.3c7.3-2.4,11.6-6.8,20.1-5.6c1.1,0.2,2.3,0.6,3,1.3c0.2,0.3,0.4,0.6,0.4,1c-2.3,0.2-4.4,1-6.3,2.3
						c-2.5,1.7-4.5,4.3-5.5,7.2c10.6-2.6,21.4-4.4,32.2-5.4c7.4-0.7,15.5-0.8,21.7,3.4c6.7,4.6,9.3,13,12,20.7
						C513.7,299.7,520.1,312,531.7,317.2z"/>
					<path fill="#FCDC24" d="M455.3,259.6c-2.3,0.2-4.4,1-6.3,2.3c-0.3-0.5-0.5-1.1-0.4-1.6c0-0.2,0.1-0.5,0.2-0.7
						c0.1-0.2,0.3-0.3,0.5-0.4c0.4-0.2,0.8-0.2,1.2-0.2c1.4-0.1,2.9-0.2,4.3-0.4C455.1,258.9,455.2,259.2,455.3,259.6z"/>
					<path fill="#263F5E" d="M417,273.3c-15.1,2-31.2-5.1-39.8-17.7c-0.5-0.7-1-1.5-1.8-1.8c-0.9-0.4-1.8-0.2-2.7,0.1
						c-7.2,2.1-13.3,7.2-20.5,9.1c-3.5,0.9-7.1,1.1-10.7,0.7c-7.9-0.7-15.6-3.9-21.7-9c4.3,0.6,8.7,0.6,13,0.6c2.8,0,5.6,0,8.2-0.8
						c3.5-1.1,7.2-3.5,10.3-1.7c0.9,0.5,1.7,1.4,2.8,1.4c0.8,0,1.4-0.5,2-1c2.3-1.9,4.4-4.2,6.9-5.8c3.1-2,7-2.9,10.6-2.4
						c1.7,0.2,3.5,0.7,4.8,1.9c1.3,1.2,1.8,3.3,0.9,4.8c3.4-0.1,6.9-0.3,10,0.9c3.2,1.2,6,4.1,6,7.4c0,1.5-0.4,3.3,0.7,4.3
						c0.7,0.6,1.7,0.6,2.6,0.5c3.5-0.2,7.1-0.3,10.4,0.7c3.4,1,6.5,3.3,7.6,6.6C416.9,272.6,417,273,417,273.3z"/>
					<path fill="#263F5E" d="M529.7,317.3c-7.4,0.1-14.5-3.7-20-8.7c-6-5.4-10.6-12.3-15.6-18.6c-3-3.7-6.7-7.5-11.4-7.7
						c-3.5-0.1-6.7,1.7-9.7,3.3c-6.9,3.6-14.5,6.1-22.2,7.3c-4.2,0.7-8.6,1-12.6-0.4c-3.8-1.3-7.2-4.4-8-8.3
						c0.2-0.5,0.5-0.9,0.9-1.3c1.6-1.5,4.5-2.1,6.5-2.3c4.7-0.5,9.9,1.3,12.8,5.2c3.9-0.2,6-5.2,9.8-6c2.9-0.6,6,1.4,8.8,0.5
						c1.1-0.4,2-1.1,2.9-1.8c5-3.5,11.6-3.4,17.7-3.2c1.2,0,2.4,0.1,3.3,0.9c1.6,1.6,0.2,4.3,0.5,6.5c0.6,4.8,8.7,5.8,9.2,10.7
						c0.1,1.2-0.2,2.5,0.4,3.5c0.6,1.1,2,1.5,3.2,2.1c2.9,1.4,4.4,4.5,6.3,7C516.7,311.6,523.1,315,529.7,317.3z"/>
				</g>
				<g>
					<path fill="#FFFFFF" d="M872.2,479.2c0.4-0.1,0.8-0.2,1.1-0.4l0,0c4.2-1.6,7.4-5.3,9.4-9.4c2.2-4.4,3.3-9.3,4.7-14.1
						c0.9-2.8,2.1-5.8,4.8-7c1.9-0.9,4.2-0.5,6.3-0.3c4.7,0.5,9.6,0.2,14.2-0.8c2.5-0.6,5.1-1.4,7.1-3c1.9-1.6,3.1-4.1,2.7-6.5
						c0-0.1-0.1-0.3-0.1-0.4c4.1,1.3,7.4,4.8,8.4,8.9c0.4,1.5,1.3,3.6,2.7,3c1.4-0.6,0.7-3.1,1.9-3.9c0.6-0.4,1.4-0.2,2.1-0.1
						c1.9,0.2,3.9-0.6,5.1-2c-0.6-1.5-1.4-2.8-2.6-4c1.9-0.5,3.6-1.6,4.8-3.1c-3-0.4-6.1-0.8-9.1-1.2c-2-0.2-4-0.5-5.7-1.5
						c-1.7-1-3.1-2.8-3-4.8c0.1,0,0.3-0.1,0.4-0.1c9.1-2.2,16.6-9.8,18.7-18.9c0.1-0.5,0.2-1,0.6-1.4c0.4-0.4,1-0.5,1.6-0.6
						c4.6-0.4,9.1,1.1,13.7,0.6c2.2-0.3,4.3-1,6.3-2c4.3-2.2,8-5.7,10.4-10c0.2-0.3,0.4-0.7,0.5-1c-8.4,1-16.9,1.6-25.4,1.7
						c-4.6,0.1-9.2,0-13.7,0.9c-4.5,0.9-8.9,2.8-11.9,6.3c-2.7,3.2-4,7.3-5.3,11.2c-1.2,3.8-1.5,10.2-6.1,10.4
						c-4.7,0.3-8.1-1.3-12.7,1.3c-0.6,0.3-1.2,0.8-1.4,1.4c-0.1,0.2-0.1,0.4,0,0.6c1.3-0.4,2.7-0.4,4.1-0.1c1.8,0.4,3.5,1.4,4.7,2.9
						c-6.6,0.9-13.1,2.3-19.5,4.1c-4.4,1.3-9,3-11.6,6.8c-2.8,4.1-2.4,9.5-2.2,14.4C878.5,465.2,877.6,473.7,872.2,479.2z"/>
					<path fill="#FCDC24" d="M902.8,429.4c1.3-0.4,2.7-0.4,4.1-0.1c0.1-0.4,0-0.8-0.1-1c-0.1-0.1-0.1-0.2-0.3-0.3
						c-0.1-0.1-0.2-0.1-0.4-0.1c-0.3,0-0.5,0.1-0.8,0.1c-0.8,0.3-1.7,0.5-2.5,0.8C902.7,428.9,902.7,429.1,902.8,429.4z"/>
					<path fill="#263F5E" d="M927.6,428.6c9.1-2.2,16.6-9.8,18.7-18.9c0.1-0.5,0.2-1,0.6-1.4c0.4-0.4,1-0.5,1.6-0.6
						c4.6-0.4,9.1,1.1,13.7,0.6c2.2-0.3,4.3-1,6.3-2c4.3-2.2,8-5.7,10.4-10c-2.3,1.3-4.8,2.3-7.2,3.3c-1.6,0.6-3.2,1.3-4.9,1.4
						c-2.2,0.2-4.9-0.4-6.2,1.4c-0.4,0.5-0.7,1.2-1.3,1.4c-0.4,0.2-0.9,0-1.4-0.1c-1.7-0.6-3.4-1.4-5.2-1.8c-2.2-0.4-4.6-0.1-6.6,1
						c-1,0.5-1.9,1.2-2.3,2.2c-0.4,1-0.3,2.3,0.5,2.9c-2,0.7-4,1.4-5.5,2.8c-1.5,1.4-2.5,3.6-1.7,5.6c0.3,0.9,1,1.8,0.5,2.6
						c-0.3,0.5-0.9,0.7-1.4,0.9c-2,0.7-4.1,1.4-5.8,2.7c-1.7,1.3-3,3.3-2.8,5.5C927.5,428.2,927.5,428.4,927.6,428.6z"/>
					<path fill="#263F5E" d="M873.4,478.8c4.2-1.6,7.4-5.3,9.4-9.4c2.2-4.4,3.3-9.3,4.7-14.1c0.9-2.8,2.1-5.8,4.8-7
						c1.9-0.9,4.2-0.5,6.3-0.3c4.7,0.5,9.6,0.2,14.2-0.8c2.5-0.6,5.1-1.4,7.1-3c1.9-1.6,3.1-4.1,2.7-6.5c-0.2-0.2-0.5-0.4-0.8-0.5
						c-1.2-0.5-3-0.2-4.2,0.2c-2.8,0.8-5.3,3-6.1,5.8c-2.3,0.7-4.6-1.6-6.9-1.2c-1.8,0.3-3.1,2.2-4.9,2.2c-0.7,0-1.4-0.2-2-0.4
						c-3.6-0.8-7.4,0.7-10.8,2.1c-0.7,0.3-1.4,0.6-1.6,1.3c-0.6,1.3,0.8,2.5,1.2,3.8c0.7,2.9-3.6,5.3-2.9,8.1
						c0.2,0.7,0.7,1.4,0.6,2.1c-0.1,0.8-0.8,1.3-1.4,1.9c-1.3,1.4-1.5,3.5-2,5.4C879.5,472.6,876.6,476,873.4,478.8z"/>
				</g>
				<path fill="#263F5E" d="M305,511.3c-0.5-1.6-0.6-3.3-0.5-5.1c0.1-1.7,0.6-3.5,1.5-5.2c0.9-1.7,2.2-3.1,3.7-4.2
					c0.7-0.6,1.7-1.1,2.6-1.5c0.9-0.4,1.9-0.6,2.8-0.7c1.9-0.3,3.7-0.3,5.5-0.2c1.8,0.2,3.5,0.5,5.2,0.9c1.7,0.4,3.3,0.9,5,1.5
					c0.8,0.3,1.6,0.6,2.4,0.9l1.2,0.5c0.4,0.2,0.8,0.3,1.2,0.6l-4.9,2.6c0.1-0.6,0.2-1.1,0.3-1.7c0.1-0.5,0.2-1.1,0.3-1.6
					c0.2-1.1,0.5-2.1,0.8-3.1c0.6-2.1,1.2-4.1,2.1-6.1c0.8-2,1.8-4,3-5.9c0.3-0.5,0.6-0.9,0.9-1.4c0.3-0.5,0.7-0.9,1.1-1.4
					c0.4-0.4,0.7-0.9,1.2-1.3l0.6-0.6l0.7-0.6c1.8-1.6,4-2.8,6.4-3.5c0.6-0.2,1.2-0.3,1.8-0.3l1.6-0.1c0.5-0.1,1.1-0.1,1.6-0.1
					c0.5,0,1.1,0,1.6,0c0.5,0,1.1,0,1.6,0.1l1.6,0.2c0.5,0.1,1.1,0.2,1.6,0.3c0.5,0.1,1.1,0.3,1.6,0.5c1,0.4,2,0.9,3,1.5
					c0.2,0.2,0.4,0.3,0.7,0.5c0.2,0.2,0.4,0.4,0.6,0.6c0.4,0.4,0.7,0.8,1,1.3l-0.3,0.2c-0.6-0.7-1.4-1.3-2.3-1.8
					c-0.9-0.4-1.9-0.7-2.8-1c-2-0.4-4-0.5-6-0.3c-0.5,0-1,0.1-1.5,0.1c-0.5,0.1-1,0.1-1.5,0.2l-1.5,0.3c-0.2,0-0.5,0.1-0.7,0.2
					c-0.2,0.1-0.5,0.1-0.7,0.2c-1.9,0.6-3.6,1.7-5,3.2c-1.4,1.4-2.6,3-3.6,4.8c-1,1.7-1.9,3.6-2.6,5.5c-0.7,1.9-1.3,3.8-1.9,5.8
					c-0.5,2-1,3.9-1.3,5.9l-0.1,0.5l-0.5-0.2c-2.9-1.4-5.9-2.6-9-3.5c-3.1-0.9-6.3-1.5-9.5-1.2c-0.8,0.1-1.6,0.2-2.3,0.5
					c-0.8,0.2-1.5,0.6-2.1,1c-1.4,0.8-2.5,1.9-3.4,3.2c-0.9,1.3-1.5,2.8-1.9,4.4c-0.3,1.6-0.5,3.2-0.3,4.8L305,511.3z"/>
				<path fill="#263F5E" d="M658.8,610.4c0.8-1.1,1.9-2,3.1-2.7c1.2-0.7,2.6-1.2,4.1-1.4c1.5-0.2,3.1,0,4.5,0.5
					c0.7,0.2,1.5,0.6,2.2,1c0.7,0.5,1.3,1,1.8,1.5c1.1,1.1,1.9,2.3,2.7,3.6c0.7,1.2,1.3,2.5,1.8,3.8c0.5,1.3,0.9,2.6,1.3,4
					c0.2,0.7,0.3,1.3,0.5,2l0.2,1c0.1,0.4,0.1,0.7,0.2,1.1l-4-2.1c0.5-0.2,0.8-0.4,1.2-0.6c0.4-0.2,0.8-0.4,1.2-0.5
					c0.8-0.3,1.6-0.7,2.4-0.9c1.6-0.6,3.3-1.1,5-1.5c1.7-0.4,3.5-0.6,5.3-0.7c0.4,0,0.9,0,1.4,0c0.5,0,0.9,0,1.4,0.1
					c0.5,0,0.9,0.1,1.4,0.2l0.7,0.1l0.7,0.2c1.9,0.4,3.7,1.3,5.2,2.6c0.4,0.3,0.7,0.7,1.1,1l0.8,1c0.3,0.3,0.5,0.7,0.8,1
					c0.3,0.4,0.5,0.7,0.8,1.1c0.2,0.4,0.5,0.7,0.7,1.1l0.6,1.2c0.2,0.4,0.4,0.8,0.5,1.2c0.2,0.4,0.3,0.8,0.4,1.3
					c0.2,0.9,0.4,1.7,0.4,2.6c0,0.2,0,0.4,0,0.7c0,0.2-0.1,0.4-0.1,0.7c-0.1,0.4-0.2,0.9-0.4,1.3l-0.3-0.1c0.2-0.7,0.2-1.6,0.1-2.3
					c-0.1-0.8-0.4-1.6-0.7-2.3c-0.6-1.5-1.5-2.8-2.6-4.1c-0.2-0.3-0.5-0.6-0.8-0.9c-0.3-0.3-0.5-0.6-0.8-0.9l-0.9-0.9
					c-0.1-0.1-0.3-0.3-0.4-0.4c-0.2-0.1-0.3-0.3-0.5-0.4c-1.3-0.9-2.8-1.6-4.4-1.8c-1.6-0.3-3.2-0.3-4.8-0.2
					c-1.6,0.1-3.2,0.4-4.8,0.8c-1.6,0.4-3.1,0.9-4.7,1.4c-1.5,0.6-3,1.2-4.5,1.9l-0.4,0.2l-0.1-0.4c-0.4-2.6-1-5.1-1.8-7.5
					c-0.8-2.4-1.9-4.8-3.6-6.8c-0.4-0.5-0.9-0.9-1.4-1.3c-0.5-0.4-1-0.7-1.6-0.9c-1.2-0.5-2.4-0.8-3.7-0.8c-1.3,0-2.5,0.3-3.7,0.8
					c-1.2,0.5-2.3,1.2-3.3,2L658.8,610.4z"/>
			</g>
			<g>
				<path fill="#FFFFFF" d="M2000,40.6v265c-45.6,0-91.2,0-136.9,0h-5.8c-49.4,0-98.8,0-148.2,0c-35.9,0-71.7,0-107.6,0
					c-25.1,0-50.3,0-75.4,0c-27.6,0-55.2,0-82.9,0c-1.6,0-3.2,0-4.7,0c-70.9-0.3-151.7-8-221.1,0.1c81.3-9.4,162.5-18.9,243.8-28.3
					c-10.9-8.4-22.2-17.1-27.3-28c-5.1-10.9-2.3-24.5,10.8-31.1c19-9.6,44.7,0.2,63.7,9.8c-9-17.8-16.9-38.4-12.9-56.4
					c1.9-8.7,6.6-16.8,15.3-23.5c12.8-9.9,31.6-13.8,50.3-12.7c17.1,1,34.2,6.1,46.7,14.5c24.6,16.5,34,41.6,34,65.9
					c3.1-11.9,25.8-20.4,40.6-13.2c3.5,3.5,5.2,8,4.5,12.3c1.9-10.8,3.9-22.1,12.1-31.2c0.4-0.4,0.7-0.8,1.1-1.2
					c9.1-9.3,27.4-15.1,41.4-9.7c19.4,7.5,16.2,27.8,10.2,42.9c20.6-6.6,47.8,5.4,48.9,21.5c4.9-6.7,9.7-13.3,14.6-19.9
					c8-11.1,16.3-22.3,28.8-31c3.4-2.4,7.3-4.6,11.4-6.4c10.8-4.8,23.5-7.4,35.9-5.7c-25.2-14.4-32.6-42.4-16.6-62.4
					c16-20,53.5-29.6,83.7-21.5c-5.3-18.9,9.5-39.7,33.9-47.8C1994.9,41.9,1997.4,41.2,2000,40.6z"/>
				<path opacity="5.000000e-02" fill="#263F5E" d="M2000,133.3v172.3c-45.6,0-91.2,0-136.9,0h-5.8c-49.4,0-98.8,0-148.2,0
					c-35.9,0-71.7,0-107.6,0c-25.1,0-50.3,0-75.4,0c-27.6,0-55.2,0-82.9,0c-1.6,0-3.2,0-4.7,0c14-9.8,39.8-15.1,55.6-19.5
					c-9.4-6-11.2-16.7-4.2-24c7-7.3,22.2-10.4,33.9-6.9c-0.4-7.1-0.6-14.6,0.5-21.8c1.7-11.6,6.7-22.4,19.2-30
					c12.8-7.8,31.4-9.5,47.9-6.3c8.1,1.6,15.7,4.3,21.9,8.1c19,11.6,25.8,30.7,21,47.7c12.8-11.2,33.6-16.5,53.3-21.1
					c3.5-0.8,7.2-1.6,10.8-2.3c3.2-0.6,6.3-0.6,9.3-0.2c8.4,1.1,15.3,5.7,16.7,11.8c0.8,3.6,1.3,7.2,1.6,10.8
					c6.5-5.2,14.6-10.9,24.6-10.3c9.3,0.5,16.2,6.6,17.8,12.9c1.6,6.3-0.9,12.6-3.4,18.8c23.8-17.6,63.6-17.7,98.7-16.5
					c0.3,0,0.5,0,0.8,0c-1.1-10.3-2.2-20.7,1.3-30.7c3.5-10,12.4-19.7,26.3-23.8c18.5-5.5,40.2,0.1,59.8-3
					c-13.6-7.8-17.8-22.3-9.5-33.1s28-16.7,45.3-13.6C1987.7,145.5,1992.5,138.5,2000,133.3z"/>
			</g>
		</g>
	</g>
</g>
<g id="Mid-ground">
	<g>
		<rect y="727" fill="#51B8E0" width="2000" height="1273"/>
		<path fill="#60CDEF" d="M602.4,1971.7c31.2,3.2,60.8,14.5,90,28.3h-227C510.2,1980.4,555.6,1966.8,602.4,1971.7z"/>
		<path fill="#60CDEF" d="M1318.9,1984.3c19,2.3,37.6,8.1,56,15.7h-160C1248.9,1987.6,1283.4,1980,1318.9,1984.3z"/>
		<path fill="#35A6D8" d="M718.5,727c-15.2,16.5-39.8,20.6-62.2,23.5c-26,3.4-52.2,6.9-78.4,5.2c-27.9-1.8-55-9.4-82.8-12.4
			c-27.8-3-57.6-0.9-80.7,14.8c-3.9,2.6-7.6,5.6-11.8,7.6c-18.1,8.2-37.9-4.9-56.6-11.7c-63.7-23-133.9,30-199.9,14.9
			c-12.6-2.9-28.6-7-36,3.5c-2,2.8-2.9,6.3-4.4,9.5c-8.1,17.5-36.7,19.9-47.6,4c-7.5-10.9-7.6-27.6-19.2-34
			c-4.6-2.6-10.2-2.8-15.5-3c-5.3-0.2-13.6,0.3-23.3,0.8V727H718.5z"/>
		<g opacity="0.5">
			<path fill="#60CDEF" d="M2000,762.2v37.1c-37.8-4.6-76.5-10.9-114.1-8.7c-34.1,2-65.5,11-99.1,15c-87.8,10.4-180.1-14.1-268-3.9
				c-52,6.1-102.1,24.2-154.2,18.2c-26.9-3.1-50.1-12.4-76.6-16.5c-59.8-9.1-124.6,10-184.8,1.7c-19.9-2.7-38.6-8.4-59-9.2
				c-32.2-1.3-61.4,9.5-92.9,13.3c-61.2,7.4-124.3-12.3-186.4-7.5c-28.5,2.2-55.2,9.5-83.9,10.5c-59.4,2.1-115.2-22.9-173.8-17.4
				c-36.2,3.4-68.5,18.2-105,16.2c-37.3-2-69.3-21.3-106-17.4c-24.2,2.6-45.5,15.1-69.2,11.5c-0.6-0.1-1.3-0.2-1.9-0.3
				c-5.7-1.1-10.5-2.9-14.9-5.1c-7.7-3.8-14.5-8.7-22.9-12c-4.8-1.9-10-3.4-15.5-4.4c-10.2-2-21.4-2.6-32.6-2.8
				c-6-0.1-12-0.1-17.8,0C81,781,40.5,781.5,0,781.9v-42.3c2.5,0.1,5,0.2,7.6,0.4c13.3,1,26.4,2.9,39.3,4.9
				c23,3.6,45.7,7.9,69.5,9.2c6.1,0.3,12.2,0.5,18.3,0.5c4.2,0,8.4,0,12.6-0.1c2.4-0.1,4.7-0.1,7-0.2c2.8-0.1,5.6-0.2,8.4-0.3
				c2.2-0.1,4.4-0.2,6.6-0.3c3.6-0.2,7.1-0.3,10.7-0.5c9.6-0.4,19.1-0.8,28.6-1c4.4-0.1,8.8-0.1,13.1,0c1.7,0,3.5,0.1,5.2,0.1
				c2.8,0.1,5.5,0.2,8.3,0.4c2.1,0.1,4.3,0.3,6.4,0.4c3.6,0.3,7.2,0.7,10.8,1.1c0.1,0,0.2,0,0.2,0c24.1,3.1,45.8,10.1,68.6,15.4
				c7.8,1.8,15.7,3.4,23.8,4.6c33.8,4.8,68.3,2,103.1-1.6c28.3-2.9,56.9-6.4,85.4-6.6c33-0.2,66,3.9,98.8,7.9
				c44.9,5.5,89.3,10.7,133,4.3c28.1-4.2,53.5-13,82-16.1c67.3-7.4,134.1,18,202.5,14.9c45.9-2,88.2-16.8,134.2-16.2
				c25.7,0.3,50.2,5.4,75.2,8.9c8.6,1.2,17.3,2.2,26.1,2.8c34.9,2.2,69.8-2.9,104.4-6.2c34.6-3.3,69.6-4.9,104.7-5.6
				c34.2-0.7,68.6-0.5,102.8-0.4c98.2,0.4,196.4,0.9,294.6,1.3C1928.1,761.9,1964.1,762.1,2000,762.2z"/>
			<path fill="#60CDEF" d="M2000,836.7v109.8c-38.1,4.6-81.8,0.4-119.2-7.5c-56.1-11.8-108.3-30.3-167.7-35
				c-141.8-11.1-270.8,59.1-413.5,52.5c-66-3.1-125.2-22.3-187.7-34.3c-93.1-17.8-196.5-19.2-291.1-3.9
				c-79,12.8-155.7,37-237.7,32.5c-100.1-5.5-189.1-53.5-287.5-42c-70.4,8.2-121.6,45.4-193,50.7C68.2,962.1,34.1,956.7,0,952V818.7
				c41-4.3,83.2-10.9,122.5-5.2c29.3,4.2,54.1,14.9,83.2,19.5c61.8,9.8,128.7-9.6,191.8-2.5c29.6,3.3,56.4,12.4,86.3,14.7
				c48.3,3.8,95.4-10.4,144.2-11.4c49.7-1,98.2,11.9,147.7,9.1c44.9-2.5,86.2-17.7,131.2-16.4c42.9,1.2,80.7,17.2,123.5,18.5
				c45.8,1.4,88.7-14.3,134.5-13.8c54.8,0.6,101.9,24.2,156.7,25.2c64.4,1.2,125.5-28.9,187.2-18.9c19.9,3.3,37,10.5,56.8,13.9
				c26.1,4.5,54.3,2.2,81.5,0c94.8-7.7,190.2-13,285.9-15.9C1955.3,834.8,1978.3,834.3,2000,836.7z"/>
			<path fill="#60CDEF" d="M2000,1105.3v163.5c-90.7,0.3-181.5-5.6-269.5-17.6c-110.4-15-215.8-39.5-325.4-56.1
				c-109.6-16.6-227.4-25.1-336.7-7.9c-127.5,20.1-239.8,74.4-372.4,71c-126.1-3.2-230.7-58.5-356.1-66
				c-117.8-7.1-227.2,28.6-339.8,49.4v-175.1c90,9.6,187.9,0,278.5-13c117.1-16.8,236.9-38.6,356.7-28.6
				c138.1,11.5,256,64.1,394.4,74.5c142,10.7,280.3-24.2,420.1-41.6c41.3-5.2,84.2-8.8,126-5.2c58,5,108.8,23.2,162.8,35.8
				C1820.2,1107.4,1912.2,1113.2,2000,1105.3z"/>
			<path fill="#60CDEF" d="M2000,1309.7v461.9c-6.8-5.2-13.9-9.8-21.1-14.1c-108.8-64.6-238.3-39.4-355.4-2.1
				c-117.1,37.4-236.9,86-356.7,63.7c-138.1-25.7-256-142.8-394.4-166c-142-23.8-280.3,54-420.1,92.8c-41.3,11.5-84.1,19.6-126,11.6
				c-58-11.1-108.8-51.8-162.8-79.8c-51.7-26.8-107.4-41.8-163.6-44.7v-352.8c57.8,5.9,115.2,17.5,171.5,34.5
				c110.4,33.5,215.8,88,325.4,125c109.6,37,227.4,56,336.7,17.6c127.5-44.9,239.8-165.9,372.4-158.3
				c126.1,7.2,230.7,130.4,356.1,147.2c122.8,16.4,236.4-70.7,354.2-115.9C1943.4,1320.1,1971.7,1311.9,2000,1309.7z"/>
		</g>
		<path fill="#60CDEF" d="M2000,1990.9v9.1h-272.9c22.7-16.7,46.1-30.6,72.3-34.9c43.5-7.2,86.3,13.7,129.3,24.3
			C1951.7,1995.2,1977.1,1996.9,2000,1990.9z"/>
		<path fill="#35A6D8" d="M1285.6,1447.9c-12.1,2.9-23.5-5.8-34.8-10.9c-11.7-5.3-25-6.9-37.7-4.6c-3.8,0.7-8.4,2.9-8,6.7
			c0.3,3.1,3.8,4.7,6.7,5.9c13.2,5.3,25.3,13.6,34.9,24.1c4.7,5.1,8.9,10.9,14.4,15.1c8.9,6.8,20.3,9,30.6,13.1s20.8,11.8,22.3,22.9
			c1.9,14.8-14,26.7-28.9,27.5c-14.9,0.8-29.1-5.7-43.5-9.7c-19-5.3-39.1-6.2-58.5-2.7c0.2,15.1,13.8,26.9,28,32s29.7,5.7,44.1,10.3
			s28.7,14.9,30.8,29.8c-9.7,1.4-19.1,5.1-27.1,10.7c-3.4,2.4-6.9,5.8-6.7,10c0.4,6.6,8.9,8.9,15.5,9.4c21.2,1.5,42.4,3.1,63.7,4.6
			c-3.6,6.5-7.3,13-10.9,19.5c4.3,6.9,13.9,7.2,21.9,8.7s17.1,8.7,13.7,16c-2.7,5.8-10.7,6-16.4,8.9c-10.4,5.2-12.3,20.6-6.2,30.5
			c6.2,9.9,17.8,15.1,29.2,17.7c28.4,6.3,57.9-0.6,86.7-4.9c49.2-7.4,99.6-7.4,148.9,0.1c9.6,1.5,20.5,2.8,27.9-3.4
			s3.1-22.5-6.3-20.1c22.5-10.7,49-4.9,73.5-0.7c42.9,7.4,86.7,9.1,130,5.1c11.3-1,26.1-7.1,23.6-18.2c-1.8-8-11.6-10.6-19.5-12.9
			c-7.9-2.2-17.1-8.7-14.5-16.5c2.9-8.7,19-13.3,14.1-21c-1.5-2.3-4.4-3.1-6.6-4.8c-5.2-4.2-4.2-13,0.4-18c4.6-4.9,11.4-7,17.8-8.8
			c19-5.4,38-10.9,57.1-16.3c8.4-2.4,17.3-5,23.3-11.4c6.1-6.3,7.9-17.6,1.5-23.5c-6.4-5.9-18.5-5-22-13c-3.2-7.5,4.5-14.9,6.6-22.8
			c1.8-6.8-0.7-14-4.6-19.9c-13.4-20.3-40-26.6-64.1-30.2c-117.5-17.6-237.1-10.9-356-10.2c-37.5,0.2-76.8-0.8-112-15.1
			c-8.6-3.5-17.1-7.8-24.7-13.2c-6.1-4.3-10.5-12.4-16.6-16C1311.4,1418.3,1300,1444.4,1285.6,1447.9z"/>
		<ellipse fill="#35A6D8" cx="465.1" cy="1507.5" rx="77.8" ry="18"/>
		<path fill="#FFFFFF" d="M2000,1938.4v61.6H0v-61.6h30.3c30.8-5.2,61.4-24.5,85.9-43.1c39.4-29.8,72-82.4,121.1-76.9
			c37.1,4.2,63.7,42.1,100.9,45.9c46.6,4.8,82.3-45.2,128.9-50.8c50.9-6.1,91.7,41.5,141,55.7c60.9,17.5,123-17.8,178.4-48.6
			c55.4-30.8,124.3-58.5,179.7-27.5c32.8,18.4,52.6,53.6,82.3,76.6c35.3,27.3,84.6,35.2,126.7,20.3c24.3-8.6,46.5-24.3,72.2-26.4
			c52.3-4.3,92.2,47.7,143.3,59.6c45.5,10.6,92.3-12.4,128.7-41.6c36.5-29.2,67.7-65.4,108.2-88.6c40.5-23.2,95.6-30.4,131.6-0.6
			c27.1,22.5,37.6,60.9,65.8,82C1876.4,1912.7,1968.8,1882.3,2000,1938.4z"/>
		<g>
			<path fill="#BDE6FF" d="M360.4,2000H35.1c0.7-1,1.3-1.9,1.9-2.9c7.4-13,12.8-28.2,25.1-36.6c9.1-6.2,20.7-7.7,31.8-7.5
				c13.4,0.2,26.9,2.5,39.6,6.9c10.2,3.5,21.8,8.2,31,2.7c2.3-1.4,4.3-3.3,6.8-4.4c12.8-5.6,23.7,14.3,37.7,14.4
				c12.7,0.1,18.9-14.8,27.6-23.9c7.1-7.3,16.9-11.3,26.8-13.9c17.3-4.6,36.6-5.2,52.2,3.5c15.5,8.6,25,24.7,33.8,40
				C353.4,1985.3,357.5,1992.5,360.4,2000z"/>
			<path fill="#BDE6FF" d="M729.6,2000H424.7c-6.1-10.8-11.4-22.1-16-32.8c-5.2-12.1-9.6-24.8-9.8-37.9
				c-0.2-13.1,4.2-26.9,14.1-35.5c9.1-7.8,21.5-10.4,33.5-10.4c19,0,37.9,6.3,53.1,17.6c19,14.1,36,37,59.6,35.1
				c14.4-1.2,26.1-11.8,39.8-16.2c15.2-4.9,32.8-1.5,45.1,8.7c14,11.5,21.8,31.2,39,37c5.7,1.9,11.8,2.1,17.6,3.5
				C715.2,1972.8,726.2,1985.6,729.6,2000z"/>
			<path fill="#BDE6FF" d="M1160.8,2000H795.7c-3.3-16.6-1-35,6.6-47c8.7-13.9,24-22.4,39.5-28.1c25.2-9.4,52.4-13.1,79.2-10.8
				c3,0.2,6.2,0.7,8.3,2.8c3.1,3.1,2.6,8.1,2.7,12.5c0.3,18.1,17.5,34.1,35.6,33c8.1-0.5,16.5-3.8,24-0.6c4.6,2,7.9,6.1,11.5,9.5
				c6.8,6.4,15.6,10.6,24.8,12.3c12.8,2.3,23.5-9.6,20.4-22.2c-0.2-1-0.5-1.9-0.7-2.9c-4.5-16.8,9-33.2,26.3-31.4
				c18.2,1.8,35.9,10.5,47.5,24.6c9.1,11.1,14.8,24.9,25.2,34.8c3.4,3.2,7.2,5.9,10.5,9.2C1158.3,1996.9,1159.6,1998.4,1160.8,2000z
				"/>
			<path fill="#BDE6FF" d="M1464.7,2000h-207.5c-1.4-5.5-2.7-11.1-3.8-16.7c-2.7-12.8-4.5-27.4,3.3-38c7-9.4,19.4-12.5,30.9-14.5
				c15-2.6,30.9-4.3,44.8,1.8c24.1,10.5,35.8,41.6,61.2,48.5c18.9,5.2,40.9-4.7,57.8,5.2C1457,1989.5,1461.2,1994.5,1464.7,2000z"/>
			<path fill="#BDE6FF" d="M1899.7,2000h-361c-10.8-36,1.1-79.5,29.1-104c11.8-10.3,25.9-17.7,40.4-23.7
				c19.9-8.2,42.2-14.1,62.7-7.4c20.4,6.7,36.4,30.2,28.1,50c-5.2,12.5-18.7,25.2-11.8,36.8c3.8,6.4,12.4,8.2,19.9,7.7
				c7.5-0.4,15-2.4,22.3-0.8c9.3,2,16.4,9.4,24.4,14.5c8,5.2,19.7,7.8,26.4,1c7.3-8.5,1.9-21.7-4.5-30.9c-6.4-9.2-14.2-20-10.4-30.6
				c4.3-12.2,20.8-14.7,33.4-11.6c17.4,4.3,33.1,15.5,42.7,30.7c8.5,13.3,13.3,30.2,26.8,38.3c5.8,3.5,12.6,4.9,18.2,8.5
				C1894,1983.4,1898.3,1991.3,1899.7,2000z"/>
			<path fill="#BDE6FF" d="M178.2,1888.3c5.3-10.4,15.6-17.9,26.9-20.9c11.3-3,23.5-1.8,34.5,2.2c1.6,0.6,3.3,1.3,4.5,2.5
				c1.8,1.9,2.3,4.7,2.4,7.3c0.2,7.4-2.1,14.9-6.5,20.8c-6.3,8.5-15.8,13.1-24.8,18.2c-8.1,4.5-17,15.1-25,18.1
				C167.8,1944.7,173.1,1898.4,178.2,1888.3z"/>
			<path fill="#BDE6FF" d="M556.1,1889.4c-3.1-3.4-7.1-5.9-11.5-7.2c-4.6-1.3-9.1,3-7.9,7.7c2.6,10.4,11.3,20.2,21.3,22.6
				c1.1,0.3,2.3,0.4,3.1-0.3c0.5-0.5,0.7-1.2,0.8-1.9C563.3,1902.9,561.1,1894.9,556.1,1889.4z"/>
			<path fill="#BDE6FF" d="M340,1894.1c3.8-3.2,8.7-4.7,13.6-5.5c4.9-0.7,10.5-0.6,14,2.9c3.1,3.1,3.7,8,3.3,12.3
				c-0.1,1.5-0.4,3-1,4.3c-3.5,7-19.4,10-26.5,8.9c-6.3-1-9.9-2.8-9.7-9.6C333.9,1902.4,336.1,1897.4,340,1894.1z"/>
			<path fill="#BDE6FF" d="M724,1889c16.4-6.6,32.9-13.3,47.8-22.9c6-3.9,11.9-8.4,18.8-10.5c7.6-2.4,15.8-1.8,23.5,0.1
				c7.6,1.9,15.1,5.3,20.1,11.3c7.7,9.3,7.5,23.6,1.5,34.1c-6.1,10.5-17.1,17.4-28.8,20.7c-11.6,3.3-23.9,3.4-36,3
				c-3.1-0.1-6.4-0.3-9.3,1c-9.8,4.3-8.9,21.2-19,24.7c-2.5,0.9-5.2,0.7-7.8,0.5c-5.1-0.4-10.5-0.9-15-3.4
				c-14.4-8-13.6-28.7-26.9-38.1c-2.7-1.9-9.3-3.5-9.3-7.3c0-4.1,5.8-4.6,8.4-5C703.2,1895.4,713.2,1893.3,724,1889z"/>
			<path fill="#BDE6FF" d="M912.1,1864.7c-0.5-2.6-0.5-5.5,0.8-7.8c1.2-2.1,3.3-3.4,5.4-4.5c11.2-5.5,25-4.7,35.9,1.4
				c10.9,6,18.9,16.8,22.4,28.8c1.1,3.8,1.9,7.9,3.6,11.5c1.8,3.6,4.8,6.9,8.8,7.6c1.9,0.4,3.9,0.1,5.9,0.1c8.2,0,16,4.9,20.5,11.8
				c4.5,6.9,5.9,15.5,5,23.6c-0.1,0.8-0.2,1.6-0.7,2.3c-0.6,0.8-1.7,1.1-2.7,1.3c-9,1.6-18-3.6-24.5-10.2
				c-6.4-6.6-11.2-14.6-17.8-21.1c-2.1-2.1-4.5-4-7.3-5.1c-2.4-0.9-4.9-1.2-7.4-1.5c-5.3-0.6-10.7-1.2-16-1.7
				c-4.3-0.5-8.8-1-12.4-3.4c-5.9-3.9-6-10.2-9.3-15.8C918.7,1875.9,913.4,1872.4,912.1,1864.7z"/>
			<path fill="#BDE6FF" d="M1164.5,1956.4c9,5.8,20.6,8.3,30.7,4.9c15.3-5.1,24.1-22.4,23.7-38.6c0-2.2-0.2-4.5-1.1-6.6
				c-2.1-5.1-8-8-13.5-8c-5.6,0-10.8,2.4-15.6,5.2c-4.8,2.8-9.4,6.1-14.5,8.2c-4.9,2-10.2,2.9-15.5,2.6c-3.7-0.2-7.5-1-10.9,0.3
				C1133.4,1929.9,1158.7,1952.7,1164.5,1956.4z"/>
			<path fill="#BDE6FF" d="M1260.2,1896.8c3.2,1.9,5.8,5,6.5,8.7c0.4,2.2-0.1,4.8-2,5.9c-0.8,0.4-1.7,0.6-2.6,0.6
				c-3.1,0.3-6.4,0.2-9.2-1.3c-2.7-1.4-4.8-4.1-5.4-7.1C1245.3,1893.9,1253.5,1892.9,1260.2,1896.8z"/>
			<path fill="#BDE6FF" d="M1480.6,1935.1c6.5-3.8,13.3-8.3,20.8-8c2.6,0.1,5.3,0.9,7.2,2.6c4.8,4.4,3,12.2,0.7,18.3
				c-2.3,6.5-4.7,12.9-7,19.4c-0.5,1.4-1.1,2.8-2.2,3.8c-1,0.9-2.4,1.2-3.8,1.4c-8.3,1.4-16.9,0.8-24.8-1.8
				c-5.1-1.7-9.9-4.2-15.1-5.5c-10.1-2.4-20.9,0.1-30.8-3c-8.8-2.7-10-7.1-0.8-9.5c9-2.4,18.3-2.4,27.4-5.2
				C1462.1,1944.6,1471.6,1940.4,1480.6,1935.1z"/>
			<path fill="#BDE6FF" d="M1748.2,1936.6c0.3,2.8-0.4,5.9-2.6,7.5c-1,0.7-2.2,1.1-3.4,1.4c-9.2,2.2-31.9-3.4-23.5-17.1
				C1726.2,1916.2,1746.9,1923.4,1748.2,1936.6z"/>
			<path fill="#BDE6FF" d="M1656.4,1809.2c6.8-4.3,15.3-5,23.4-5.6c8.2-0.6,16.6-1.1,24.7,0c15.4,2.2,29.5,10.4,41.4,20.5
				c4.8,4.1,9.4,8.6,12.2,14.3c4.6,9.2,3.9,20.3,0.5,30.1c-0.5,1.5-1.1,3-2.2,4.2c-2.4,2.8-6.6,3.1-10.2,2.7
				c-9.7-1.3-18.1-7.2-25.5-13.7c-7.3-6.5-14.1-13.8-22.6-18.7c-8.5-5-18.3-7.3-28.2-7.5c-7.3-0.2-22,1.2-26.5-6.5
				C1639.6,1822.5,1651.5,1812.3,1656.4,1809.2z"/>
			<path fill="#BDE6FF" d="M1914.2,1960.2c0,1.8,0.2,3.6,1,5.2c0.8,1.5,2,2.6,3.3,3.6c12.6,10,30.9,12.2,45.6,5.6
				c2.6-1.2,5.2-2.7,7-4.9c3-3.6,3.8-8.7,2.7-13.3c-1.1-4.6-3.9-8.6-7.3-11.8c-8.3-7.8-20.2-11.2-31.7-10.6
				c-3.1,0.2-6.6,0.5-9.2-1.3c-2.2-1.6-3.1-4.5-4.8-6.6c-2.4-2.8-6.2-3.9-9.8-4.5c-4.5-0.7-10.4-0.1-11.9,4.2
				c-3.1,8.8,9.9,10.1,14,14.3C1918.3,1945.2,1914.1,1953.7,1914.2,1960.2z"/>
		</g>
		<path fill="#35A6D8" d="M145.6,1358.6c-6.4-0.9-15.1-0.4-16.7,5.9c-1.3,5.3,3.8,9.7,7.9,13.3s8.1,9.8,4.6,13.9
			c-11.5,4.8-24.2,6.6-36.6,5.1c-5.7-0.7-11.7-2-17.2-0.4c-5.5,1.6-10.3,7.7-8.1,13c1.6,3.9,6.1,5.6,10.2,6.9
			c19.2,5.8,39.3,8.8,59.4,9c18,0.2,36.5-1.9,53.7,3.4c4,1.2,8.6,5.3,6.1,8.6c-1.2,1.5-3.4,1.7-5.1,2.5c-4.1,1.7-6.1,7.1-4.2,11.1
			c12.3,3.8,25.3,4.1,38.2,4.4c23.3,0.4,46.7,0.4,70,0.1c12-0.2,24.9-0.7,34.5-7.9c-1.9-6.6-8.3-10.8-14.7-13.1
			c-6.4-2.3-13.4-3.3-19.4-6.5c-1.3-0.7-2.6-1.5-3.2-2.9c-1.9-4,3.5-7.4,7.8-8.4c40.8-9.5,87,4.9,123.6-15.5
			c1.6-0.9,3.4-2.2,3.6-4.1c0.1-2.2-2.1-3.8-4.1-4.7c-20.2-9.8-43.7-8.9-65.5-14.3c-4.5-1.1-9.2-2.6-12.2-6.1
			c-3.1-3.5-3.7-9.5-0.2-12.5c-5.1-5.7-13.6-6.7-21.2-7.1c-33.8-1.5-67.8,1.8-100.7,9.6c-13.9,3.3-23.9,6.9-37.9,4.2
			C180.6,1362.9,163,1361,145.6,1358.6z"/>
		<path fill="#35A6D8" d="M471.1,1652.8c3.9,1.4,9,3.8,8.4,7.9c-0.6,3.5-4.9,4.8-8.5,5.3c-9.3,1.3-18.6,2.6-27.8,3.9
			c-7.2,1-14.8,2.2-20.6,6.7c-5.7,4.5-8.5,13.7-3.8,19.3c2.3,2.8,5.9,4.1,9.3,5.3c17.3,5.9,35.3,9.8,53.6,11.4
			c13.6,1.2,27.8,1.3,40.2,7.1c1.7,0.8,3.6,2,4,3.8c0.4,2-0.9,3.9-1.4,5.9c-1.8,7.1,7.2,11.8,14.5,13.2c44.1,8.3,89.4-0.8,133.4-9.8
			c5.7-1.2,12.1-2.9,14.6-8.1c2.5-5.2-4.2-12.9-8.4-9c0.2-9.5,12.5-12.7,21.9-13.5c29.4-2.6,58.5-9,86.2-19.1
			c4.3-1.6,9.1-3.7,10.6-8c0.9-2.4,0.5-5.2-0.3-7.6c-5.1-15.5-23.8-21.1-39.9-23.8c-42.9-7.1-86.6-9.7-130.1-7.8
			c-31.5,1.4-62.6,7-94.1,7.8c-18.7,0.5-52.3-6.9-68.3,1.2C465,1649,467.4,1651.5,471.1,1652.8z"/>
		<path fill="#35A6D8" d="M703.9,908.4c-3.1-0.1-6.5,0-8.7,2.1c-3.5,3.4-0.9,9.7,3.5,11.8c2.3,1.1,4.9,1.4,7.5,1.2
			c3.7-0.2,5,4.8,1.6,6.4c-1,0.4-1.9,0.8-2.9,1.1c-12.4,3.7-24.8,7.5-37.2,11.2c-3.7,1.1-7.5,2.3-10.4,4.9s-4.2,7-2.2,10.2
			c1.7,2.6,5,3.6,8,4.3c31.1,6.8,64.6-0.3,94.9,8.3c2,0.6,2.5,3.2,0.9,4.5c0,0-0.1,0.1-0.1,0.1c-3.6,2.9-1.6,8.7,3,8.9
			c35.1,0.9,70.2,0,105.2-2.6c3.8-0.3,9-2.8,7.3-6.1c-0.6-1.2-2.1-1.9-3.4-2.4c-5.9-2.2-12-4.2-18.1-5.9c-4-1.1-3.5-6.8,0.6-7.3
			c32.2-4.1,66.6,1.9,95.6-12.2c1.6-0.8,3.4-1.8,3.9-3.5c1-3.5-3.6-5.9-7.2-6.7c-16-3.6-32.2-6.2-48.6-7.7c-3-0.3-5.2-3-4.7-6
			c0-0.1,0-0.1,0-0.2c1.2-6.5-2.9-12.7-9.4-13.9c-20.3-3.9-41.6-2.5-61.2,4c-6.4,2.1-13.9,7.2-11.9,13.5c1.8,5.4-21.8,0.4-23.6-0.5
			c-6.4-3.2-10.8-8.9-17.6-11.4C750.2,907.5,723.6,909,703.9,908.4z"/>
		<path fill="#35A6D8" d="M1338.1,845.6c-3.7,0-7.6,0.1-10.6,2c-3.1,2-4.8,6.6-2.4,9.4c-23.6-0.9-47.2-1.8-70.8-2.8
			c-15-0.6-32-0.4-42.2,10.7c3.6,5.4,15.8,2,16,8.4c0.1,2.8-2.9,4.6-5.5,5.7c-15.3,6.2-34.8,7.3-43.6,21.2
			c33.2,14.3,72.9-1.3,107.2,10c-7.5,2.6-15,5.3-22.5,7.9c-1.5,0.5-3,1.1-4,2.2c-3.8,4.3,2.7,10.4,8.4,11c5.7,0.6,12.7-0.2,15.9,4.6
			c2.7,4,0.5,9.8-3.3,12.7c-3.9,2.9-8.9,3.6-13.7,4.2c-16.5,2.2-33,4.4-49.5,6.6c-3.8,0.5-8.2,1.5-9.5,5.1c-1.7,4.8,3.9,8.9,8.9,9.9
			c4.9,1,10.8,1,13.9,5c-14.8,3.4-29.6,6.9-44.4,10.3c-4.6,1.1-10.3,3.7-9.7,8.3c0.4,3.7,4.6,5.5,8.2,6.4c18,4.7,36.7,5.1,55.3,5.4
			c47.8,0.9,95.5,1.8,143.3,2.7c6.7,0.1,16.1-3.4,13.7-9.6c-5.1-1.9-10.3-3.7-15.4-5.6c33.6-4.6,67.7-5.7,101.6-3.5
			c1.3-4.5-2.1-9.8-6.8-10.5c23.7-1.8,47.9,2.1,69.9,11.1c-4.6,4.4-9.2,8.7-13.8,13.1c4.8,5.5,12.9,6.3,20.2,6.7
			c44.8,2.1,89.8,1.2,134.5-2.6c10-0.9,22.7-4.3,23.9-14.3c-7.3-4.9-14.6-9.8-21.9-14.6c19.1-3.5,38.2-7.1,57.3-10.6
			c4.1-0.8,8.5-1.6,11.5-4.5c3.1-2.8,4.1-8.3,1-11.1c35.1-2.4,70.1-6.9,104.7-13.4c7.8-1.5,17.8-6.3,15.9-14
			c-7.7-1.9-15.4-3.9-23.1-5.8c-2.5-0.6-5.4-1.5-6.6-3.9c-2.7-5.4,5.7-9.3,11.7-9.9c15.9-1.6,31.5-5.8,46.1-12.2
			c3.6-1.6,7.7-4.4,7-8.2c-0.6-3.5-4.7-5-8.2-5.8c-36.5-8.3-73.6-13.7-111-16.1c3.7-4.7,7.5-9.4,11.2-14.1
			c-33.4-4.3-68.5-8.4-99.9,3.8c-8.3,3.2-16.2,7.6-24.7,10.2c-11.1,3.4-22.9,3.9-34.6,3.9c-40.7,0.2-81.4-3.9-121.2-12.1
			c-10.1-2.1-20.1-4.4-30.1-7c-8.9-2.3-19.1-7.2-28.2-7.6c-18.5-0.8-38.2,1.1-56.9,1.1C1386.7,845.6,1362.4,845.6,1338.1,845.6z"/>
		<path fill="#35A6D8" d="M751.3,1208.6c7.5,1.2,15.3-0.4,22.9-1c3.2-0.3,6.7-0.2,9.9,0.2c5,0.7,8.5,4,7.4,7.4
			c-0.5,1.5,0,3.3,1.5,4.5c2.7,2.2,7.2,2.9,11.4,3.4c12.6,1.4,25.5,1.7,38.1,0.7c7.8-0.6,16.4-1.5,23,1.3c4.1,1.8,5.9,5.8,4.8,8.8
			c-0.8,2,1.5,3.9,4.5,4l5.8,0.2c2.5,0.1,3,2.5,0.6,3l-54.4,11.9c-0.1,0-0.2,0-0.2,0.1c-9.7,2.2-8.7,11.7,1.3,13
			c25.7,3.3,52.4,2.3,78.7,1.4c53.3-2,106.7-4,160-5.9c7-0.3,14.3-0.6,20.2-3.2c5.9-2.6,9.4-8.3,5.5-12.2c-1.6-1.6-4.1-2.7-6.6-3.8
			l-8.8-3.7c-5.4-2.2-3.6-7.8,2.7-8.3c14.5-1.2,29.2-1.6,43.7-1c4.8,0.2,8.8,2.2,10.9,5.1c1.4,2,4.2,3.7,7.3,4.6
			c5.3,1.5,11.3,1.1,17,0.7c19.9-1.4,39.7-2.8,59.6-4.2c8.2-0.6,15.4,3.6,15.9,9.1l0.2,2.1c77.8,3.6,156,2.2,233.4-4.1
			c6.5-0.5,13.3-1.2,18.7-3.7c0.1,0,0.1-0.1,0.2-0.1c7.1-3.4,3.9-11-4.8-11.5c-3.9-0.3-7.7-0.9-10.9-2.4c-6-2.8-8.2-9.7-2.1-12.5
			c3.2-1.5,7.8-1.4,8.5-5.4c0.5-2.6-1.2-5.2-4.2-6.8c-16.6-9.1-38-11.6-59.1-13.3c-2.8-0.2-4.6-2.2-3.4-4v0c2.8-4.4-1.9-9.2-8.9-9.3
			c-117.3-1.1-234.5-1.4-351.8-0.7c-11.1,0.1-21.3,4.9-24,12.2c-0.2,0.6-0.6,1.2-1.3,1.8c-2.2,2-5.8,3.1-9.4,3.1l-53.9,0.7
			c-1.3,0-2.6-0.2-3.8-0.6c-5.1-2-1.4-6.2-3.5-9.2c-1.6-2.1-5.5-2.8-9-3.2c-36.1-4.2-97-12-131.1,0c-12.2,4.3-19.3,11.4-33.1,14.2
			c-9.5,2-27,0.5-34.9,4.5C738.2,1200.1,739.3,1206.7,751.3,1208.6z"/>
		<path opacity="0.2" fill="#FFFFFF" d="M1908.9,777.8c-19.8,0.1-39.7,0.3-59.2,2.4c-21.9,2.3-43.2,7.1-65.1,9.4
			c-24.1,2.5-48.6,2.1-73,2.7c-15.2,0.4-30.4,1.1-45.5,0.1c-15.1-1-30.2-4-42-10.3c52-5.6,105.2,4.3,157.5,0.1
			c44.2-3.5,87.1-17,131.4-14.2c13,0.8,25.8,3,38.4,5.2c4.7,0.8,9.5,1.7,13.3,3.6c3.3,1.7,9.5,8.5,1.8,8.9c-3.3,0.2-12-4.5-16-5.3
			C1937.2,777.7,1922.8,777.7,1908.9,777.8z"/>
		<path opacity="0.2" fill="#FFFFFF" d="M174.3,1531.1c31.9,8.6,65.5,5.3,98.5,4.9c50.5-0.6,101,5.7,149.8,18.8
			c17.4,4.7,38.7,16.5,34.9,34.2c-2.5,11.8-16.2,18.2-28.3,17.4c-12.1-0.8-23-6.8-34.1-11.6c-57.2-24.7-122.4-17.9-184.4-12.1
			c-19.3,1.8-38.8,3.5-58.1,1.7c-28.1-2.6-55.4-12.6-78.5-28.7c-0.2-4.7-0.5-9.3-0.7-14c10.2-0.4,20.4-0.8,30.6-1.3
			c-11.4-17.2-33.3-23.3-50.9-34.1c-11.1-6.8-30.6-27.5-23.5-42.5c7.2-15.2,31.2-1.8,43.4,5.6
			C107.7,1490.5,133.3,1520.1,174.3,1531.1z"/>
		<path opacity="0.2" fill="#FFFFFF" d="M955.1,1527.1c40.8-19.4,73.3-52.2,108.6-80.4c35.3-28.2,77.2-52.9,122.3-51
			c-17.2,31.3-49.7,51-81.9,66.4c-18.9,9.1-38.5,17.3-55.2,30c-16.7,12.7-30.5,30.9-32.7,51.8c-2.1,20.6,7.4,41.1,21.1,56.6
			c13.7,15.5,31.4,26.9,48.9,38c27.3,17.5,54.5,34.9,81.8,52.4c20.5,13.1,43.9,33.1,37.5,56.6c-13.1,0.2-25.3-6.6-36.3-13.7
			c-81.8-52.8-149.1-136.3-244.7-154.3c-50.7-9.5-104.2,1.1-154-12.4c-7.1-1.9-14.4-4.5-19.5-9.8c-29.1-30.4,66.5-14.2,82.1-13.2
			C875.2,1546.9,916.3,1545.5,955.1,1527.1z"/>
		<path opacity="0.2" fill="#FFFFFF" d="M120.2,1790.6c7.4-5.4,15.7-9.7,22.2-16.2c6.5-6.5,11-16.1,8.2-24.8
			c-3.2-10.1-14.2-15-24-18.8c-31.2-12-63.7-24.3-97.1-21.8c-3.7,4.4,0.1,11.6,5.4,13.8c5.3,2.2,11.4,1.2,17.1,1.3
			c13.3,0.3,25.7,6.4,37.5,12.5c2.3,1.2,4.7,2.4,6,4.7c0.9,1.6,1.2,3.5,1.4,5.3c0.8,6.5,1.5,13.4-1.4,19.3
			c-7.8,15.4-51.9,28-34.9,53C76.5,1842,107.4,1800,120.2,1790.6z"/>
		<path opacity="0.2" fill="#FFFFFF" d="M704.3,1792.8c29.7-12,55.7-31.6,81.9-49.9c26.3-18.4,53.9-36.1,85.1-43.5
			c12.4,9.8,7.6,31.1-4.8,41c-12.4,9.9-29,12-44.4,15.6c-23.2,5.4-45.5,14.8-65.5,27.8c-24.2,15.7-46.4,37-74.8,41.9
			c-28.4,4.9-56.6-7.8-82.7-20.1c-5-2.4,13.7-9,15.7-9c8.9,0,19.7,6,29.1,6.8C664.6,1804.8,685.4,1800.5,704.3,1792.8z"/>
		<path opacity="0.2" fill="#FFFFFF" d="M1508.3,1845.4c4.1-4.7,8-10.8,6.3-16.8c-10.9-0.6-21.8-1.2-32.7-1.9
			c-3.3-0.2-6.7-0.4-9.8,0.8c-4.9,1.8-8.1,6.3-11.4,10.2c-12.7,14.8-31.4,23.6-50.6,27.4c-19.2,3.9-41.2-1.5-59.2,2.9
			C1394.9,1905.4,1473.8,1885.1,1508.3,1845.4z"/>
		<path opacity="0.2" fill="#FFFFFF" d="M1894.4,1859.4c-21.7-3-43.6-8.3-62.1-20c-18.5-11.7-33.4-30.8-35.7-52.6
			c-0.3-2.6-0.4-5.2,0.5-7.7c2.4-6.9,10.9-9.1,18.2-10.2c2.8-0.4,5.9-0.8,8.3,0.7c2.8,1.8,3.5,5.5,4.1,8.7c2.9,15.3,9,30.4,20.4,41
			c17.3,16.2,46,18.5,65.7,5.3c2.4-1.6,4.8-3.6,6-6.3c2.5-5.8-1.7-12.4-6.5-16.5c-5.3-4.5-11.5-7.9-18.2-9.8
			c-7.4-2.1-16.9-4-18.5-11.5c-1.3-6.4,4.7-12,10.8-14.2c14.7-5.4,31.7,0.6,42.9,11.6c11.1,10.9,17.3,26,21.4,41.1
			c3.5,12.8,11.8,33-1.7,41.8C1937.5,1868.8,1908,1861.2,1894.4,1859.4z"/>
		<path opacity="0.2" fill="#FFFFFF" d="M828.2,1411.6c21.2-7.9,40.4-20.2,59.2-32.7c14.4-9.6,28.6-19.5,42.7-29.6
			c7.8-5.6,15.6-11.6,21.1-19.5c0.1-0.1,0.1-0.2,0.2-0.3c8.4-12.3-0.6-29-15.5-29c-53.4,0-106.8,0-160.2,0
			c-3.5,5.5,4.5,11,10.9,12.6c17.7,4.3,46.9,9.8,72.6,13.7c14.2,2.2,18.4,20.6,6.6,28.6c-18.4,12.6-40.7,25.8-49.7,29.8
			c-9.4,4.1-39.1,9.4-44.5,16.8C754.3,1426.1,819.3,1415,828.2,1411.6z"/>
		<path opacity="0.2" fill="#FFFFFF" d="M108.5,1134.6c-25.8-8.7-52.6-14.5-79.7-17.3c-1.2-0.1-2.5-0.2-3.5,0.5
			c-1,0.7-1.3,2-1.4,3.3c-1.3,10.8,6.4,21.9,16.9,24.6c18.9,4.9,26.9-2.1,32.9,18.4c3,10.3-1.7,15.9,12.2,18.4
			C108.5,1186.5,133.9,1143.2,108.5,1134.6z"/>
		<path opacity="0.2" fill="#FFFFFF" d="M742.1,1088.6c-33.2-9.4-66.4-19.3-101.5-23.9c-35.1-4.6-72.7-3.4-104.3,8.6
			c-20.2,7.6-37.3,19.4-58.5,25.3c-3.6,1-7.4,1.9-10.4,3.7c-2.9,1.8-4.7,5-3,7.5c11.3,3.3,24.1,3.8,35.9,1.4
			c10.8-2.2,20.6-6.9,31.8-7.7c5.4-0.4,11,0.1,16.4-0.6c8.8-1.1,16.2-5.4,23.9-8.7c28.6-12.3,66.5-12.4,95.1-0.1
			c8.1,3.5,16.1,8.6,16.9,15.4c0.9,7.7-7.6,14.1-16.3,18.5c-16.1,8.1-35.2,13.1-54.8,14.2c-6,0.4-12.5,0.5-17.2,3.2
			c-6.6,3.8-6.8,11-11.5,16.1c-6.3,6.8-19.1,8.3-30.4,8.8c-16.7,0.7-33.5,0.4-50.1-1c-3.5-0.3-7.3-0.7-9.7-2.6
			c-4.3-3.4-0.8-9.3,4.7-11.7s12.2-2.9,18.1-4.7c5.9-1.8,11.4-6.3,9.5-10.7c-2.4-5.6-13.2-5.7-21.2-4.7c-9,1.1-18,2.3-27,3.4
			c-8.6,1.1-18.7,3.1-21.2,9.1c-1.3,3.1,0,6.4,1.7,9.4c7,11.6,22.3,19.8,38.7,24c16.5,4.3,34.2,5.1,51.7,5.5
			c17.7,0.4,37.7-0.3,49.7-9.8c5.8-4.6,8.9-10.6,14.4-15.5c10.3-9.1,27.7-12.6,44-12.5c16.3,0.1,32.2,3.2,48.4,4.8
			c16.1,1.6,33.4,1.4,47.6-4.3c3.8-1.5,7.7-4.6,5.8-7.4c-1.4-2.2-5.4-2.6-8.7-2.8c-9.9-0.5-19.7-1.1-29.6-1.6
			c-6.7-0.4-14.3-1.1-18-5.2c-4.9-5.4,1-12.8,8.6-16.2c17.4-7.8,39.7-3.6,59.4,0.2c47.3,9.2,95.8,15.3,144.6,18
			c2.7-2.2-1.9-5.1-5.7-6.1c-26.2-6.9-52.9-16.4-80.4-19.8C799.4,1104.4,770.5,1096.6,742.1,1088.6z"/>
		<path opacity="0.2" fill="#FFFFFF" d="M83.3,1027.5c16.1-1.7,31.2-8.5,45.9-15.2c5.9-2.7,12.7-6.7,12.8-13.2
			c-18.3-8-38.9-8-58.7-9.7c-21-1.8-41.7-5.5-62.4-9.2c-0.9,3,0.7,6.4,3.2,8.4c2.5,2,5.6,2.9,8.7,3.8c7.9,2.3,15.7,4.5,23.6,6.8
			c3.3,1,6.8,2,9.4,4.4c2.5,2.4,3.7,6.6,1.6,9.4c-3.9,5.3-25.1,3.4-16.3,10.6C57.5,1029,75.6,1028.8,83.3,1027.5z"/>
		<path opacity="0.2" fill="#FFFFFF" d="M279.7,1016.9c6-5.9,9.5-13.8,14.3-20.7c12.3-17.4,33.2-28,43.2-46.8
			c1.7-3.2,2.9-7.5,0.3-10c-1.2-1.2-2.9-1.6-4.6-1.8c-9-0.9-17.6,4.2-24.2,10.3c-6.6,6.2-12.1,13.6-19.2,19.2
			c-2.9,2.3-6.2,4.3-9.9,4.4c-9.6,0.3-18-12.2-26.6-8c-0.9,0.4-1.7,1-2.4,1.7c-5.4,5.2-3.3,15.9,3.7,18.7c3,1.2,6.5,1.1,9.3,2.9
			c5.2,3.4,4.3,11.7,0.3,16.4c-4.7,5.5-27.3,13-18.9,23.6C252,1035.6,274.1,1022.5,279.7,1016.9z"/>
		<path opacity="0.2" fill="#FFFFFF" d="M865.2,1021.7c24.1,0.8,49.1-2.4,69.3-12.4c17.3-8.5,30.1-21.4,46.6-30.7
			c22.1-12.4,49.9-17.9,77.3-19c27.4-1.1,54.9,1.8,82.1,4.7c6.4,0.7,14.1,2.1,16.3,6.7c1.9,3.9-1.3,8.3-5.8,10.5s-10.2,2.8-15.6,3.2
			c-31.9,2.7-64,3.8-96.1,3.5c-9.4-0.1-19.5-0.2-27.2,3.9c-7.7,4-10.5,13.9-2.9,18c2.4,1.3,5.3,1.7,8.1,2.2
			c8.9,1.5,17.8,2.9,26.8,4.4c2.3,9.5-9.4,18.4-22,20.1c-12.6,1.7-25.3-1.7-37.1-5.4s-23.9-7.8-36.7-7.4
			c-16.4,0.5-30.7,8.2-46.3,11.9c-28.4,6.8-81.9-0.5-101-18.7C809.8,1010.1,851.6,1021.3,865.2,1021.7z"/>
		<path opacity="0.2" fill="#FFFFFF" d="M1922.5,1688.7c-7.7-6.8-15.5-18.7-13.7-32.2c1.3-10.1,7.5-16.8,13.7-20.6
			s12.9-5.9,18.2-11.9c8.5-9.5,11.8-27.4,10.5-43.6c-1.3-16.2-6.6-30.9-12.5-44.3c-2.7-6.1-5.5-12.1-7.3-19
			c-1.7-6.9-2.3-14.4-3.6-21.5c-2.9-15.4-9.3-28.4-14.4-42.3c-5.1-13.9-8.9-30.5-5.9-45.8c2.4-12.2,8.9-21.6,16.2-27.4
			c7.3-5.7,15.5-8.3,23.5-10.5c4.8-1.3,11-1.4,12.9,5.5c1.4,4.8-0.4,10.4-2.6,14.4c-5.3,9.7-13.1,15-19.9,22.2
			c-6.8,7.1-13.2,18.1-12.6,30.8c0.3,8.4,3.6,15.7,6.8,22.6c7.1,15.3,14.2,30.6,21.3,45.8c10.1,21.7,20.7,46.3,18.7,72.9
			c-2.2,29.4-18.9,50.4-35,66.2c-4.5,4.4-11,11.8-9.5,21.3c1.8,11.2,9.6,7.5,13.9,13.1c2.5,3.2,4.8,11.3,1.1,15.1
			C1938.2,1703.5,1926.1,1691.9,1922.5,1688.7z"/>
		<path opacity="0.2" fill="#FFFFFF" d="M640.9,1285.9c3.2,0.9,7,2.9,6.5,6.2c-0.5,2.9-4.1,3.9-7,4.1c-40.1,3.4-81.6-13.2-120.1-1.3
			c-16.8,5.2-31.6,15.6-43.6,28.5c-5.6,6-12.4,13.3-20.4,11.6c-4-7.8,1.3-17.4,8.1-23c6.8-5.6,15.3-9.3,20.7-16.1
			c-8.4-3.5-16.9-7.1-25.3-10.6c-3.6-1.5-7.3-3.1-9.9-6c-2.6-2.9-3.9-7.4-1.8-10.7c1.4-2.2,26.7,3.2,30.5,3.1
			c13.2-0.2,26.3-0.4,39.5-0.3c26.5,0.2,53,1.4,79.2,5.2C611.9,1278.8,626.6,1281.8,640.9,1285.9z"/>
		<path opacity="0.2" fill="#FFFFFF" d="M1477.5,1270.2c25.5-8.8,50.1-20.9,76.8-25c41.4-6.5,83.5,6.9,120.5,26.5
			c-23.3,5-47.5,5.9-71.1,2.5c-21.5-3.1-42.7-9.6-64.4-8.6c-21.9,1.1-42.6,9.8-63.1,17.8c-15.3,6-30.7,11.7-46.4,16.2
			c-30.9,8.9-65.8,12.7-93.9-2.9c-1.9-1.1-4.1-2.6-4.2-4.8c-0.7-12,56.5-4.5,63.4-5C1423.1,1284.9,1450.9,1279.3,1477.5,1270.2z"/>
		<path opacity="0.2" fill="#FFFFFF" d="M1436.1,1110.2c14.9-3.7,28.7-9.6,43.2-14.2c24.9-7.9,51.7-11.9,78.7-11.7
			c103.9,0.9,196.1,62.7,299.7,70.9c27.6,2.2,55.3,0.5,82.8-1.2c8.6-0.5,19.8,0.3,22.4,7.1c1.7,4.7-2.4,9.5-7.8,11.5
			s-11.6,1.7-17.5,1.5c-69.8-3.2-140.7-6.5-207.3-25.1c-50.5-14.1-98.6-37.1-151.5-40.6c-8.1-0.5-16.9-0.4-23.4,3.5
			c-1.6,0.9-3,2.2-3.1,3.8c-0.1,1.8,1.5,3.3,3,4.6c9.6,7.9,22,13.6,35.2,16.1c13.6,2.5,30.9,3.5,36.2,14.1
			c-17.9,5.1-37.8-0.7-55.5-7.1c-17.6-6.4-36.3-13.7-55.1-11.4c-2.6,14.7,12.5,28,28.4,35.9c25.6,12.6,56.5,17.5,85.5,13.6
			c13.1-1.8,25.6-5.2,38.7-7c20.9-2.8,42.4-1,63.7,0.4c68.3,4.4,138.4,4.7,202.5,25.4c2.2,0.7,4.7,1.6,5.8,3.3
			c1.7,2.5-0.4,5.8-3.5,7.1c-3.1,1.3-6.8,1.2-10.3,1.1c-85.2-3.1-170.2-12.8-255.4-13.4c-43.8-0.3-89.5,1.4-129.7-13.7
			c-15.8-5.9-30.6-14.6-39.4-26.8c-8.9-12.2-10.8-28.1-1.9-39.9c-7.2-5.6-18.6-5.7-27.9-3.2s-17.5,7-26.7,9.7
			c-18.6,5.3-39.3,2.3-59-0.8c-2.8-0.4-5.9-1-7.5-2.9c-8.9-10.7,17.4-8.2,21.6-7.6C1412.8,1114.4,1425,1113,1436.1,1110.2z"/>
		<path opacity="0.2" fill="#FFFFFF" d="M1752.7,1015.8c3.8-3.7,7.3-7.6,12.8-10.3c4.7-2.3,10.6-3.3,16.3-4.3
			c63.8-10.7,132-11,196-0.6c-45.7,13.5-99.5,6.8-149,12.8c-6.3,0.8-12.9,1.8-17.6,4.6c-4.8,2.7-7,7.6-3.4,11
			c47.7,1.1,95.1,7.9,138.9,19.8c1.4,0.4,2.8,0.8,3.9,1.4c3.9,2,3.7,6.1,0.8,8.7c-3,2.6-8,3.9-12.9,4.6c-15.7,2.2-31.9-0.8-47.3-3.7
			c-35.1-6.8-70.1-13.5-105.2-20.3c-5.1-1-10.3-2-15.6-2.3c-15.9-1-31.1,3.7-46.4,6.8c-10.1,2.1-56.8,2.5-27.9-4.2
			C1719.7,1034.4,1738.2,1029.9,1752.7,1015.8z"/>
		<path opacity="0.2" fill="#FFFFFF" d="M81.5,922.8c14.2-1.3,28.5-2.7,42-7.4c14.3-5,27.1-13.6,40.8-20.1
			c51.5-24.4,111.6-17,168.4-13c4.8,0.3,9.9,0.6,14-1.9c4.1-2.4,6.3-8.6,3-12.1c-1.9-2-5-2.4-7.7-2.7c-13.4-1.3-26.8-1.8-40.2-2.5
			c-75.7-3.7-151.2-11.3-226-22.8c-10.9-1.7-22.1-3.4-32.9-0.9c-10.7,2.5-21,10.5-22.7,21.4c39.3-1,78.5-2,117.8-3
			c6.5-0.2,15.1,1.5,15.6,8c0.4,5.7-6.2,8.9-11.6,10.6c-25.5,7.8-51.1,15.3-76.8,22.4c-7.7,2.1-36.5,11.2-29,24.2
			C41,931.5,73.5,923.6,81.5,922.8z"/>
		<path opacity="0.2" fill="#FFFFFF" d="M624.8,926.1c25.9-1.5,51.1-14.5,66.5-35.4c2.9-3.9,5.5-8.2,9.4-11.1
			c8.9-6.7,21.3-4.8,32.4-5.2c4.9-0.2,11.2-2.7,10.4-7.5c-0.7-3.8-5.3-5.1-9.1-5.5c-11.8-1.3-23.7-1.6-35.6-1.1
			c-3.9,0.2-8,0.5-11.5,2.2c-6.2,3-9.6,9.7-15.2,13.7c-7.1,5.2-16.6,5.3-25.4,5.2c-8.9-0.1-17.9-0.2-26.5-2.4
			c-16.3-4.2-31.3-15.8-48-13.6c-1.6,2.9,1,6.3,3.5,8.5c9.2,8,19.7,14.5,30.9,19.4c2.7,1.2,5.5,2.3,7.4,4.5c1.9,2.3,2.3,6,0,7.9
			c-1.6,1.4-4,1.3-6.1,1.4c-7.3,0.3-19.2,3.8-12,12.5C601.8,926.9,616.5,926.5,624.8,926.1z"/>
		<path opacity="0.2" fill="#FFFFFF" d="M927.2,849.5c17.1,0.4,32.9,8.8,49.3,13.7c32.1,9.4,66.4,5.1,99.3-1
			c32.8-6.2,65.9-14.2,99.2-11.9c1.1,3-0.4,6.4-2.9,8.4c-2.4,2-5.6,2.9-8.6,3.7c-15,3.9-30.4,6.3-45.8,7.4
			c-4.2,0.3-8.5,0.5-12.3,2.3c-3.8,1.8-6.9,5.8-6.3,9.9c0.6,4.9,5.6,7.8,10,9.9c18.3,8.9,36.7,17.8,55,26.7
			c-34.4,0.2-68.7-8-99.3-23.7c-7.1-3.6-14-7.7-21.6-10.1c-25.2-8.1-53.3,2.9-79-3.5c-8-2-15.5-5.6-23.4-7.9
			c-7.9-2.3-16.6-3.4-24.2-0.2c-4.4,1.8-8.1,4.9-12.3,7.1c-6.6,3.5-14.2,4.7-21.7,5.9c-3.1,0.5-6.3,1-9.4,0.3
			c-3.1-0.7-6-2.9-6.6-6.1c-2-10.7,15-16.9,21.9-20.4C900.6,853.9,913.5,849.1,927.2,849.5z"/>
		<path opacity="0.2" fill="#FFFFFF" d="M1934.8,902.6c3.9-4.2,6.9-9.8,5.7-15.4c-1.8-8.9-12.1-12.7-20.9-15
			c-20.1-5.2-40.2-10.3-60.4-15.5c4.7-3.9,11.2-4.8,17.4-5.3c33-2.6,66.1,2.5,98.8,7.5c2.2,0.3,4.5,0.7,6.3,2c1.8,1.3,3,3.8,2,5.8
			c-11,2.6-22.1,4.7-33.3,6.3c-1.7,3.8,0,8.4,2.9,11.4c2.9,3,6.8,4.7,10.5,6.7c5.7,3,11,6.6,15.9,10.7c3.4,2.8,6.8,6.3,7.2,10.7
			c0.4,4.8-3,9.2-7.2,11.5c-4.2,2.2-9.1,2.7-13.9,3.1c-16.5,1.2-33,1.2-49.5,0.1C1909.7,926.6,1934.8,902.6,1934.8,902.6z"/>
		<path opacity="0.2" fill="#FFFFFF" d="M491.3,785.7c19.5-3.6,38.5-8.6,58.5-10.3c24.4-2.1,49.1,0.7,73.3,3.4
			c23.2,2.7,46.4,5.3,69.7,8c2.7,0.3,6.1,1,6.5,2.9c0.4,1.9-2.9,3.1-5.7,3.7c-16.1,3.2-33.4,2.2-49.7-0.2c-16.4-2.3-32.3-6-48.8-8
			c-11.4-1.4-23.1-2.1-34.8-2c-51.4,0.4-101.9,15.1-152.9,11c-2.9-0.2-5.9-0.6-8.3-1.7c-2.4-1.1-4-3.3-2.9-5.1
			c0.9-1.4,3-2.2,5.1-2.8c15.3-4.2,24.5,2.2,38.2,4.3C456.1,791.5,475.1,788.7,491.3,785.7z"/>
		<path opacity="0.2" fill="#FFFFFF" d="M1178.1,772.7c25.1-4.1,50.7,1.7,75.8,6.3c29.7,5.3,59.9,8.8,90,6.7
			c29.5-2.1,58.3-9.4,87.5-14.2c33-5.5,66.6-7.7,100.1-6.8c1.4,3.3-2.6,6.2-5.9,7.4c-19.9,7-41.8,3.7-62.9,4.7
			c-21.2,1.1-42.1,6.7-61,16.3c17.5,0.2,35-0.2,52.4-1.4c-1.3,7.4-9.9,10.6-17.3,11.7c-44.4,6.9-88.8-10.3-133.7-11.9
			c-19.8-0.7-39.8,1.7-59.2-2.1c-14.3-2.8-28-8.9-42.5-10.1c-32.8-2.8-64.1,19.4-96.9,15.9c-0.3,0-0.5-5.4-0.5-5.8
			c11.7-2.9,24-2.8,35.9-6.2C1152.5,779.6,1165,774.9,1178.1,772.7z"/>
		<path opacity="0.2" fill="#FFFFFF" d="M332.3,1645.5c5.1,1.4,10.4,3,14.7,6.2c8.9,6.6,11.7,18.4,14,29.2c1.2,6,2.4,12.7-0.8,18
			c-2.6,4.3-7.5,6.5-12.2,8.2c-8.7,3.1-18.2,5.2-27.3,3.4c-5.7-1.1-11.1-3.7-16.3-6.3c-16.6-8.2-33.2-16.3-49.8-24.5
			c-4.4-2.2-9.7-6.2-7.9-10.8c8.2-4.8,17.9-7,27.3-6c3.7,0.4,7.5,1.2,11.2,0.5c3.7-0.7,7.4-3.4,7.7-7.1c0.4-5.2-5.4-8.4-10.2-10.2
			c-12.2-4.8-29-14.2-5.4-12.2C295.6,1635.3,314.6,1640.6,332.3,1645.5z"/>
		<path fill="#60CDEF" d="M1096.1,1575.3c-9.9-7.4-20.4-17.7-18.5-29.9c1.2-8,7.5-14,13.5-19.4c5.9-5.3,11.9-10.7,19.1-14.2
			c7.2-3.5,15.7-4.8,23.1-1.8c-2.3-0.9,4.4,85.8,2.7,90C1123,1598,1106.9,1583.4,1096.1,1575.3z"/>
	</g>
</g>
<g id="Foreground">
	<g>
		<g>
			<g>
				<g>
					<path fill="#FFF083" d="M319.7,1066.2c-7-11.6-18.1-20.8-31-24.9c-12.9-4.1-27.5-2.8-39.2,4.1c-8,4.7-14.3,11.9-19.8,19.3
						c-14.9,20-25.2,43.2-30.1,67.6c-2.3,11.3-3.4,23-7.3,33.8c-5.7,16-17.1,29.2-27.3,42.8c-10.2,13.6-19.9,28.7-21.2,45.6
						c-0.4,4.8,0,9.7,2,14c2,4.2,5.4,7.5,8.8,10.5c22.7,19.8,52.1,31.7,82.1,33.5c16.9,1,33.8-1.1,50.6-3.2
						c12-1.5,24.2-3.1,35.3-7.8c8.4-3.6,15.9-8.9,23.1-14.6c3.2-2.6,6.4-5.3,8.2-9c1.6-3.3,1.9-7,2-10.6c0.3-7.8-0.2-15.6-2.1-23.1
						c-2.6-10.3-7.8-19.7-12.2-29.4c-10.9-24.6-16.2-51.3-17.7-78.1c-0.8-13.3-1-26.9,0.1-40.2C325,1084.9,326.3,1077,319.7,1066.2z
						"/>
					<path fill="#EFB6AF" d="M440.4,1027.7c-4.5,3.7-7.1,9.3-6.8,15.2c1.6,31.9-2,126.5-93.7,167.7c-5.8,2.6-12,5-18.5,7.2
						c0,0,1.8,3.1,3.8,8c5.3,12.5,12.8,36.8-2.1,50.8c-0.5,0.5-1,0.9-1.4,1.4c-6.1,6.5-9.5,16.4-10.8,27.7
						c-2.6,22.3,3.3,50.2,14.4,70.1c0.9,1.6,1.8,3.2,2.8,4.7c0,0-61.1,43.8-153.4,0c0,0,2.8-2.1,6.8-5.9
						c10.7-10.4,29.5-33.7,21.6-64.2c-0.4-1.5-0.7-2.9-1-4.4c-4.5-20.4-1.7-35.1-1.3-48.9c0.1-3.7,0.1-7.3-0.3-10.9
						c-0.9-8.7-3.6-17.5-10.6-27.7c-4.4-6.4-9.2-14.3-14.1-23.3c-19.3-35.8-39.4-87.9-36.1-119.3c4.2-39.2,55.8-133.4,76.7-129.3
						c20.9,4.1-11.7,34.2,3.4,34.2c15,0,7.5,15.9-9.2,15.9c-16.7,0-50.4,36.7-36.7,90.5c3.3,13.2,10,38.2,23.5,58.7
						c8.5,12.9,19.8,23.9,34.8,29.1c3.9,1.4,8.1,2.4,12.6,2.8c0.2,0.1,0.6,0.1,0.8,0.1c13.5,1.3,28.4,1.5,43.1,0.3h0.1
						c4.6-0.4,9.1-0.9,13.7-1.5c9-1.2,17.7-2.9,26-5c22.1-5.8,40.3-15,48.5-27.6c35.7-55,42.1-100.5,35.5-136.4
						c-6.7-35.9,9.6-3.3,15.8-3.8c6.2-0.5,2.5-37.1,21.3-31.7C465.9,976.8,457.4,1013.6,440.4,1027.7z"/>
					<path fill="#EFB6AF" d="M328.1,1116.9c-4.2,28.9-15.5,35.7-28.7,35.5c0,0-0.1,0-0.2,0c-0.7,0-1.4,0.1-2.1,0.1
						c-6.5,1.2-11,7.4-10.2,14.1c0,0.5,0.1,0.9,0.2,1.4c0.6,4.9,1.5,10.6,2.8,16.8c4.1,20.4-43.5,0-43.5,0s-13.5-86.6,11.3-106
						C282.4,1059.4,333.7,1078.5,328.1,1116.9z"/>
					<path fill="#FFF083" d="M255.4,1098c2.3,2.3,1,6,2.6,8.7c1.3,2.1,4.2,3.2,6.8,3.1c2.7-0.1,5.2-1.1,7.7-2.1
						c12.8-5.2,25.8-11.7,33.5-22.4c6.5,9.3,14,19.3,25.6,22.4c3.2-4.9,3.4-11.1,1.8-16.7c-1.5-5.6-4.6-10.7-7.6-15.7
						c-2.2-3.7-4.5-7.4-7.8-10.3c-2.9-2.5-6.5-4.3-10.2-5.6c-12.3-4.3-26.2-3.7-38.9-0.2c-12.6,3.5-24.1,9.7-35,16.5
						c-2.8,1.7-5.6,3.6-7.7,6c-8.2,9.5-10.1,26.8,0.1,35.5c2.7,2.3,8,6.1,12.1,5.3c5.8-1.1,3.6-7.3,3.8-11.3
						C242.5,1107.3,247.9,1090.5,255.4,1098z"/>
					<path fill="#40537E" d="M326.9,1226.2c-0.6-0.2-1.1-0.4-1.7-0.6c-10.3-3.4-18-2.8-18-2.8c5.8-18-3.5-41.8-4.9-46.4
						c-4.6,0.7-9.1,1.1-13.7,1.5h-0.1c14.9,22.2,10.1,45.3,10.1,45.3c-6.6,0.7-14.1,3.9-17.7,6.7c-4.1,3.2-10.1,3.8-14.6,1
						c-13-8.3-27.6-8.6-27.6-8.6c7.7-20.2,6.6-44.7,6.6-44.7c-0.3,0-0.6,0-0.8-0.1c-4.5-0.5-8.7-1.4-12.6-2.8l-0.3,0.2
						c4.5,17.1-1.4,47.8-1.4,47.8c-10.6,1.2-14.9,5.5-14.9,5.5c-4.2,3.7-6.4,10.9-7.5,15c-0.4,1.8-2.1,3-3.9,2.9l-3.8-0.1
						c0.4,3.6,0.4,7.2,0.3,10.9l6.5,0.3c0,0,1.8,18.6,28.1,20.6c18.4,1.4,29.2-4,34.9-8.7c3.4-2.8,8.5-2.6,11.9,0.2
						c6.7,5.5,18.8,12.1,36.1,9.3c1.3-0.2,2.4-0.5,3.5-0.9C345.4,1270.4,337.2,1230,326.9,1226.2z"/>
					<path fill="#FFFFFF" d="M308,1135c-0.1,1-0.6,2-1.4,2.7c-0.8,0.8-1.8,1.3-2.9,1.6h0c-0.4,0.1-0.7,0.2-1.1,0.2
						c-2.8,0.4-6.3,0.2-7.5-2.3c-0.2-0.5-0.4-1.2-0.4-1.9v-0.3c0.1-0.6,0.2-1.3,0.7-1.7c0.4-0.3,0.9-0.3,1.4-0.3
						c3.5,0.1,7.1,0.1,10.6,0.2c0.1,0,0.3,0,0.4,0.1c0.1,0.1,0.1,0.2,0.1,0.3C308.1,1134,308.1,1134.5,308,1135z"/>
					<path fill="#F49089" d="M305.3,1112.5c-0.5-1.5-1.1-3.1-2.1-4.5c-0.9-1.3-2.9-0.8-3.2,0.8c-0.7,5-0.6,10.1-1,15
						c-0.1,1.9-0.5,3.8,1.7,4.5c0.5,0.2,3.8-0.3,6.2-0.6c1.3-0.2,2.2-1.5,1.9-2.8C308,1121.7,306.4,1115.9,305.3,1112.5z"/>
					<path fill="#F49089" d="M287,1166.7c0,0.5,0.1,0.9,0.2,1.4c-17.6-3-18.5-22.8-18.5-22.8c8.9,7.6,23,7.7,28.4,7.4
						C290.7,1153.7,286.2,1160,287,1166.7z"/>
					<path fill="#F49089" d="M197,1182.2c5.6,4.8,10.7,10.4,12,16.3c0.9,4.3-0.3,8.4-1.6,12.4c-0.8,2.6-1.8,5.3-4.5,6.8
						c-3.2-9.7-7.3-19.3-12.4-28.8c-1.3-2.4-10.5-14.1-9.2-15.7C184,1170,195,1180.5,197,1182.2z"/>
					<path fill="#F49089" d="M315.5,1212.5c0-0.6,0.1-1.3,0.3-1.8c0.3-0.7,0.9-1.3,1.5-1.8c2.6-2,5.9-3.1,9.2-3.1
						c-3.5,4.9-7.2,9.7-11.1,14.3c0.2-0.3,0-2.9,0-3.4C315.6,1215.3,315.5,1213.9,315.5,1212.5z"/>
					<path fill="#F49089" d="M265.9,1356.5c0.8-3.1,3.2-5.6,6.3-6.5c-1,0.3-1.6,7.8-1.7,8.9c-0.1,1.7,1.6,7.2,0.6,8
						C267.3,1369.9,265.5,1358.1,265.9,1356.5z"/>
				</g>
				<path fill="#40537E" d="M330,1381.9c0,0-63,45.2-158.3,0c0,0,2.9-2.1,7-6.1c6.4,2.7,12.9,5.3,19.5,7.5c11.8,4,24.1,6.7,36.6,8.1
					c21.7,2.4,43.9,0.9,65-4.6c8.9-2.3,18.3-7.9,27.4-9.8C328,1378.7,329,1380.3,330,1381.9z"/>
			</g>
			<g>
				<path fill="#F49089" d="M513.3,1366.4c1.7-3.1,3.8-6.4,8.4-7.9c2.4,6.8,1.9,14,2.8,20.9c0.3,2.2,0.8,4.4-3.1,5.2
					c-0.8,0.1-4.8-0.1-8.6-0.5c-3.5-0.3-5.7-4-4.3-7.2C510,1373.4,511.8,1369.2,513.3,1366.4z"/>
				<path fill="#EFB6AF" d="M686.3,1656.9c3.1,10.1,5.2,16.3,5.2,16.3c-105.8,50.2-175.8,0-175.8,0c1.5-2.4,2.8-5.3,3.8-8.7
					c13.1-44.9-17.6-171.8-17.6-171.8c-125.8-41.4-109.1-167.2-107.2-206.1c0.3-6.7-2.6-13.1-7.7-17.4
					c-19.5-16.1-29.2-58.3-10.3-63.7c21.5-6.2,17.2,35.8,24.4,36.3c7.2,0.5,25.8-36.8,18.1,4.3c-7.6,41-0.2,93.2,40.6,156.2
					c12.9,19.9,47.6,32.3,85.3,37.4c5.2,0.7,10.4,1.3,15.6,1.7h0.1c16.9,1.3,33.9,1.2,49.4-0.3c0.3,0,0.6,0,0.9-0.1
					c5.1-0.5,9.9-1.6,14.4-3.2c44.4-15.2,60.6-75.9,66.8-100.5c15.8-61.6-22.9-103.6-42-103.6c-19.2,0-27.7-18.2-10.6-18.2
					c17.2,0-20.1-34.4,3.8-39.1c23.9-4.8,83.1,103.2,87.9,148.1c4.8,44.9-26.3,132.2-57.4,163.4
					C646.6,1515.3,674,1616.9,686.3,1656.9z"/>
				<path fill="#EFB6AF" d="M609.2,1449.2c0,0-54.5,23.3-49.8,0c1.5-7.1,2.5-13.6,3.2-19.2c0.1-0.5,0.2-1,0.2-1.6
					c0.9-7.7-4.2-14.8-11.6-16.2c-0.7-0.1-1.5-0.2-2.4-0.2c-0.1,0-0.2,0-0.2,0c-9.9,0.2-18.9-3.1-25.2-14.7
					c-1.2-2.2-2.3-4.7-3.3-7.5c-1.8-5-3.3-11.1-4.4-18.5c-6.5-44.1,52.3-65.9,80.6-43.7C624.6,1350,609.2,1449.2,609.2,1449.2z"/>
				<path fill="#263F5E" d="M573.2,1412.1c-2.7,4.9-6,10-11.3,12.5c-3.6,1.7-7.8,2-11.9,2.2c-7.3,0.3-15.1,0.2-21-3.9
					c-4-2.8-6.4-7-7.7-11.6c-0.6-1.9-1-3.9-1.3-5.9c-0.2-1.7-0.7-3.7-1.2-6c-1.3-6.5-2.3-14.2,3.7-16.6c8.5-3.4,20.1-1.3,27.6,3.3
					c4.5,2.8,9.5,6.8,14.5,5c4-1.4,5.6-5.9,6.5-9.8c0.8-3.3,1.5-6.6,2.2-9.9c2.1-1.1,4.9-0.2,6.5,1.6c1.6,1.7,2.1,4,2.4,6.3
					C583.5,1390.7,578.8,1401.9,573.2,1412.1z"/>
				<path fill="#263F5E" d="M581.9,1412.1c-1.8,0.1-3.7,0.1-5.2-0.9c-1.5-1-2.1-2.7-2.7-4.4c-1.4-3.7-2.7-7.4-4.1-11.1
					c-1.4-3.9-2.9-7.9-2.5-12c0.4-3.9,2.3-7.4,3.6-11.1c1.3-3.7,1.7-8.1-0.7-11.2c-1.5-2-4-3.1-6.5-3.6c-4.2-0.9-9-0.2-12.2,2.7
					c-3.2,2.9-4.4,8.1-1.9,11.7c-1.3,0.6-2.5,1.2-3.8,1.9c-2-4.5-4.1-9.1-6.1-13.6c-0.6-1.4-1.3-2.8-2.4-3.9c-1.6-1.6-4-2.2-6.2-2.8
					c-6.6-1.7-13.3-3.7-19.1-7.5c-5.7-3.8-10.5-9.5-11.6-16.3c7.2-0.3,12.3-6.7,18-11.2c10.9-8.7,25.4-11,39.3-12.3
					c8.9-0.8,18-1.2,26.5,1.6c8.4,2.8,16.1,9.6,17.4,18.4c11.6,1.1,22,10.4,24.4,21.9c0.9,4.3,0.8,8.7,0.5,13.1
					c-0.8,14.2-1.7,31.9-8.6,44.6C613,1415.5,591.4,1411.7,581.9,1412.1z"/>
				<path fill="#FFFFFF" d="M532.7,1403.3c-0.5,1.8-1.9,3.2-3.4,4.4c-1.3,1-2.8,1.9-4.2,2.6c-1.2,0.6-2.5,1-3.8,1.1
					c-0.6-1.9-1-3.9-1.3-5.9c-0.2-1.7-0.7-3.7-1.2-6c0.6-0.1,1.1-0.2,1.4-0.4c1.3-0.7,2.5-1.6,3.9-2.1c2.1-0.8,4.5-0.6,6.3,0.7
					C532.3,1398.8,533.3,1401.2,532.7,1403.3z"/>
				<path fill="#F49089" d="M560.1,1503.7c0.9,5.2,1.4,10.4,1.4,15.6c0,3.2-0.1,6.5-1.2,9.5c-1,2.8-2.8,5.2-4.9,7.3
					c-4.4,4.5-9.9,7.9-15.9,9.8c6.3-2,12.4-17.6,14.3-23.2c3.1-8.9,1.7-18,3.8-26.7C559,1498.4,559.6,1501,560.1,1503.7z"/>
				<path fill="#F49089" d="M614.8,1503.7c-0.9,5.2-1.4,10.4-1.4,15.6c0,3.2,0.1,6.5,1.2,9.5c1,2.8,2.8,5.2,4.9,7.3
					c4.4,4.5,9.9,7.9,15.9,9.8c-6.3-2-12.4-17.6-14.3-23.2c-3.1-8.9-1.7-18-3.8-26.7C615.9,1498.4,615.3,1501,614.8,1503.7z"/>
				<path fill="#FFF083" d="M691.5,1673.2c-105.8,50.2-175.8,0-175.8,0c1.5-2.4,2.8-5.3,3.8-8.7c6.6,1.9,15.1,7.2,19.6,8.6
					c20.1,5.9,41.3,6.4,62.1,6.1c16.7-0.2,33.6-0.9,49.7-5.8c12.5-3.8,24.1-10,35.4-16.5C689.4,1667,691.5,1673.2,691.5,1673.2z"/>
			</g>
			<g>
				<path fill="#FFFFFF" d="M567.3,951.6c0,8.3-0.9,16.5-2.7,24.3c-8.6,38-37.1,68.4-74,79.9c-10.2,3.2-21.1,4.9-32.3,4.9
					c-15.7,0-30.7-3.3-44.2-9.3h0c-22.2-9.8-40.4-26.8-51.8-48.1c-3-5.5-5.4-11.2-7.4-17.3c-3.1-9.2-4.9-18.9-5.4-29
					c-0.1-1.8-0.1-3.5-0.1-5.3c0-33.9,15.4-64.1,39.6-84.1c18.8-15.6,43-24.9,69.4-24.9c1,0,1.9,0,2.9,0c35.7,0.9,67.2,19,86.4,46.4
					c3.3,4.7,6.2,9.6,8.7,14.8C563.3,918.2,567.3,934.4,567.3,951.6z"/>
				<path fill="#DF3E5F" d="M461.2,842.6c-0.3,0.5-0.5,1-0.8,1.4c-10.6,18.4-19.9,37.6-27.9,57.6c-8.1,20.1-14.8,42.5-13.8,64.1
					c0.1,2.8,0.4,5.6,0.8,8.4c0.6,4.4,1.7,8.8,3.1,13.1c-3,0-6.1-0.1-9.1-0.1H413c-5.3-0.1-10.6-0.1-15.8-0.2
					c-1.7-5-3.3-10-4.7-15.2c-0.1-0.3-0.2-0.7-0.3-1c-3.4-13.1-5.6-26.7-6.6-40.4c-1.4-20.8,0.6-42,3.2-62.9
					c18.8-15.6,43-24.9,69.4-24.9C459.3,842.6,460.2,842.6,461.2,842.6z"/>
				<path fill="#DF3E5F" d="M567.3,951.6c0,8.3-0.9,16.5-2.7,24.3c-4.8,2.9-9.9,5.4-15.1,7.5c-30.9,12.6-65.7,15.5-99.8,16.3
					c-4.3,0.1-10.1-0.5-15.8-1.7c-0.2-0.1-0.4-0.1-0.7-0.1c-5.9-1.3-11.7-3.3-15.7-5.9c-1.7-1.2-3.1-2.5-4-3.9
					c-0.2-0.3-0.4-0.6-0.5-1c-0.5-1-0.7-2.1-0.6-3.2v0c0.2-2.9,2.3-6.1,7-9.7c0.1,0,0.1-0.1,0.2-0.1c1.7-1.3,3.6-2.6,5.5-3.7
					c15.3-9.3,36.6-15.3,51.7-24.6c17.6-10.8,34.1-23.1,49-36.7c2.7-2.4,12.5-11,21.7-19.9C560,906.7,567.3,928.3,567.3,951.6z"/>
				<path fill="#DF3E5F" d="M490.6,1055.7c-10.2,3.2-21.1,4.9-32.3,4.9c-15.7,0-30.7-3.3-44.2-9.3h0c-5.2-11.5-8.6-24.2-9.8-37.3
					c-0.3-3.5-0.5-7-0.5-10.5c0-1.6,0-3.2,0.1-4.8c0.1-1.4,0.2-3.1,1.1-4c0.7-0.7,1.6-0.9,2.5-1c2.2-0.3,4.3-0.7,6.5-1
					c1.2-0.2,2.4-0.4,3.6-0.6c2.1-0.3,4.2-0.7,6.3-1c1.6-0.3,3.3-0.5,4.8,0.2c1.9,0.8,3.1,2.9,4.2,4.9c0.2,0.4,0.4,0.8,0.7,1.2
					c0.2,0.3,0.3,0.6,0.5,0.9C448.3,1022.6,468,1042.6,490.6,1055.7z"/>
				<path fill="#DF3E5F" d="M418.1,1002.6c-1.3,0.9-3.4,0.9-5.3,0.9c-3,0-6,0-8.9-0.1c-3.9,0-7.8-0.1-11.8-0.1
					c-9.9-0.1-19.9-0.1-29.8-0.2c-7.5-13.9-12-29.6-12.8-46.2c7.1,2,13.6,7.6,20.6,9.7c7.1,2.1,14.9,2.5,22.3,4.1
					c0.3,0.1,0.6,0.1,0.9,0.2c2.4,0.5,4.6,1.2,6.8,2.1c6,2.5,10.5,6.4,12.5,10.8c0.5,1,0.8,2.1,1,3.2c0,0,0,0.1,0,0.1
					c0,0.3,0.1,0.6,0.1,0.9c0.2,1.5,0.1,3,0.5,4.4c0.2,1,0.6,1.9,1.2,2.8C417.1,997.7,421,1000.6,418.1,1002.6z"/>
				
					<ellipse transform="matrix(0.9565 -0.2919 0.2919 0.9565 -270.9249 162.9818)" fill="#BA274A" cx="410.8" cy="989.5" rx="23" ry="26.4"/>
				<path opacity="0.2" fill="#263F5E" d="M567.3,951.6c0,8.3-0.9,16.5-2.7,24.3c-8.6,38-37.1,68.4-74,79.9
					c-10.2,3.2-21.1,4.9-32.3,4.9c-15.7,0-30.7-3.3-44.2-9.3h0c-22.2-9.8-40.4-26.8-51.8-48.1c-3-5.5-5.4-11.2-7.4-17.3
					c0.5,0.6,1,1.1,1.4,1.4c9.2,8.6,18.8,16.7,28.9,24.3c9,6.8,18.5,13.2,29.2,16.5c8.6,2.6,17.6,3.1,26.6,3.2
					c25.4,0.3,52.6-3.3,71.9-19.8c15.7-13.4,24-33.5,30-53.3c5.5-17.9,9.7-36.2,13.5-54.5C563.3,918.2,567.3,934.4,567.3,951.6z"/>
				<path fill="#FFFFFF" d="M395.5,930c0.1,5.9,0.3,12,3.1,17.1c-0.4-22.6,4.9-45.2,15.4-65.2c1.1-2.2,2.4-4.4,4.1-6.2
					c1.4-1.5,3-2.6,4.5-4c2.8-2.6,4.9-5.8,7-8.9c-4.7-1.6-10-0.8-14.5,1.2c-11.8,5.2-14.2,12.5-16.6,24.7
					C395.7,902.3,395.3,916.2,395.5,930z"/>
				<path fill="#FFFFFF" d="M513.6,975.4c1.9-0.2,3.9-0.3,5.4,0.4c2.1,1.2,1.6,3.8-0.4,5.3c-2,1.5-4.8,2.1-7.6,2.6
					c-16.2,3.1-32.8,5.3-49.3,5.4c-3.4,0-6.9,0-9.9-1.1c-2-0.7-4.7-2.6-4.6-4.4c0.1-2.2,2.9-1.8,5.6-2.2c6.5-0.8,13-1.3,19.5-2
					C486,978.1,499.8,976.7,513.6,975.4z"/>
			</g>
		</g>
		<g>
			<path fill="#DF3E5F" d="M1862.9,1491.1v-0.2c0-0.8,0-1.6-0.1-2.4c0-0.2,0-0.5,0-0.7c0-0.1,0-0.2,0-0.3c0-0.8-0.1-1.6-0.2-2.4
				c-0.1-1.1-0.2-2.1-0.3-3.2c-0.1-0.7-0.2-1.5-0.2-2.2c-0.1-1-0.2-2.1-0.4-3.1c-0.1-0.5-0.2-1.1-0.2-1.6c-0.3-1.7-0.6-3.5-0.9-5.2
				c-0.1-0.5-0.2-1-0.3-1.5c-0.2-1-0.4-2-0.7-3c-0.2-0.7-0.4-1.5-0.5-2.2c-0.2-0.7-0.4-1.4-0.5-2c-0.2-0.5-0.3-1.1-0.4-1.6
				c-0.2-0.6-0.4-1.2-0.6-1.9c-0.2-0.6-0.4-1.2-0.5-1.7c-0.3-0.9-0.6-1.9-0.9-2.8c-0.2-0.7-0.5-1.5-0.8-2.2
				c-0.1-0.2-0.1-0.3-0.2-0.5c-0.2-0.5-0.4-0.9-0.5-1.4c-0.2-0.4-0.3-0.8-0.5-1.1c-0.3-0.7-0.6-1.5-0.9-2.2
				c-0.3-0.8-0.6-1.5-0.9-2.2c-1.8-4.2-3.9-8.4-6.2-12.5c-0.5-1-1.1-1.9-1.6-2.8c-0.4-0.8-0.9-1.5-1.3-2.2c-0.5-0.8-1-1.6-1.4-2.3
				c-0.3-0.4-0.5-0.8-0.8-1.3c-0.3-0.4-0.5-0.8-0.8-1.2c-1-1.6-2.1-3.2-3.2-4.7c-0.6-0.8-1.1-1.6-1.7-2.3c-0.8-1.2-1.7-2.3-2.6-3.5
				c-0.9-1.2-1.8-2.3-2.7-3.4c-0.5-0.6-1-1.2-1.5-1.8c-0.5-0.6-1-1.2-1.5-1.8c-0.3-0.3-0.6-0.6-0.8-0.9c-0.6-0.7-1.1-1.3-1.7-2
				c-0.5-0.6-1-1.1-1.5-1.7c-0.1-0.1-0.1-0.2-0.2-0.2c-1.9-2-3.8-4-5.7-6c-0.7-0.7-1.3-1.3-2-2c-2.6-2.6-5.4-5.1-8.2-7.6
				c-0.6-0.5-1.2-1-1.8-1.5c-0.8-0.7-1.6-1.4-2.5-2.1c-0.6-0.5-1.1-0.9-1.7-1.4c-2.5-2.1-5.2-4.1-7.8-6.2
				c-5.5-4.1-11.2-8.1-17.2-11.9c-2.4-1.5-4.8-3-7.2-4.4c-5.4-3.2-10.9-6.2-16.6-9.1c-12.7-6.5-26.3-12.3-40.6-17.4
				c-10.6-3.8-21.6-7.1-33-10c-31.9-8.1-66.5-12.7-102.7-13.1c-48.2-0.5-93.6,6.7-133.7,19.7c0,0,0,0,0,0
				c-16.9,5.5-32.9,12.1-47.7,19.5c-1.1,0.6-2.2,1.1-3.3,1.7c-2.3,1.2-4.6,2.4-6.8,3.6c-0.5,0.3-1,0.6-1.5,0.8
				c-0.5,0.3-1.1,0.6-1.6,0.9c-0.8,0.4-1.5,0.9-2.3,1.3c-0.6,0.4-1.2,0.7-1.9,1.1c-0.5,0.3-1.1,0.6-1.6,1c-0.9,0.6-1.9,1.1-2.8,1.7
				c-0.8,0.5-1.6,1-2.4,1.5c-0.5,0.3-1,0.6-1.4,0.9c-2.1,1.3-4.1,2.7-6.2,4.1c-2,1.4-4,2.8-6,4.2c-0.6,0.4-1.2,0.8-1.7,1.3
				c-0.1,0.1-0.2,0.2-0.3,0.2c-0.5,0.3-1,0.7-1.4,1.1c-1,0.7-1.9,1.4-2.8,2.2c-0.5,0.4-1.1,0.8-1.6,1.2c-0.4,0.3-0.9,0.7-1.3,1.1
				c-0.4,0.4-0.9,0.7-1.3,1.1c-3.1,2.5-6.1,5.1-9,7.7c-0.8,0.7-1.6,1.4-2.3,2.1c-3.2,3-6.2,6-9.2,9.2c-0.2,0.1-0.3,0.3-0.4,0.4
				c-1.8,1.9-3.6,3.9-5.3,5.9c-0.8,0.9-1.5,1.8-2.2,2.6c-1,1.2-1.9,2.4-2.8,3.6c-0.5,0.7-1.1,1.4-1.6,2.1c-0.7,0.9-1.4,1.9-2.1,2.8
				c-0.6,0.8-1.1,1.6-1.7,2.4c-0.8,1.1-1.5,2.2-2.3,3.4c-0.6,0.9-1.1,1.8-1.7,2.6c-0.7,1.1-1.3,2.1-2,3.2
				c-3.1,5.1-5.8,10.3-8.1,15.6c-0.2,0.5-0.4,1-0.6,1.5c-0.4,0.8-0.7,1.7-1,2.5c0,0,0,0,0,0c-0.1,0.2-0.1,0.3-0.2,0.5
				c-0.2,0.4-0.3,0.8-0.5,1.2c-0.2,0.6-0.5,1.2-0.7,1.8c-0.2,0.5-0.4,1-0.6,1.5c-0.1,0.2-0.1,0.4-0.2,0.6c-0.3,0.8-0.6,1.6-0.8,2.5
				c-0.1,0.3-0.2,0.6-0.3,0.9c-0.2,0.7-0.5,1.4-0.7,2.2c-0.1,0.2-0.1,0.4-0.2,0.5c-0.2,0.7-0.4,1.4-0.6,2.1c0,0.1-0.1,0.3-0.1,0.4
				c-0.2,0.9-0.5,1.8-0.7,2.8c-0.1,0.2-0.1,0.3-0.1,0.5c-0.1,0.4-0.2,0.9-0.3,1.4c-0.1,0.4-0.2,0.7-0.3,1.1
				c-0.2,0.9-0.4,1.8-0.6,2.8c-0.2,0.9-0.4,1.9-0.5,2.8c-0.2,0.9-0.3,1.8-0.4,2.7c0,0.2-0.1,0.3-0.1,0.5c-0.1,0.7-0.2,1.4-0.3,2.1
				c-0.1,0.7-0.2,1.4-0.3,2.2c-0.4,3.3-0.6,6.6-0.7,9.9c0,0.4,0,0.8,0,1.2c0,0.6,0,1.2,0,1.7c0,1.1,0,2.2,0,3.2c0,0.6,0,1.3,0,1.9
				c0,0.6,0,1.2,0.1,1.7c0.1,1.2,0.1,2.3,0.2,3.5c0,0.4,0.1,0.9,0.1,1.3c0.2,2.4,0.5,4.9,0.8,7.3c0.1,0.8,0.2,1.6,0.4,2.3
				c0.1,0.8,0.3,1.6,0.4,2.3c0.2,0.8,0.3,1.6,0.5,2.3c0.2,0.9,0.4,1.8,0.6,2.7c0.2,0.6,0.3,1.3,0.5,1.9c0.2,0.9,0.5,1.8,0.7,2.7
				c0.1,0.5,0.3,1,0.4,1.6c0,0.1,0.1,0.2,0.1,0.4c0.2,0.7,0.4,1.3,0.6,2c0.3,0.9,0.5,1.7,0.8,2.6c0.2,0.7,0.5,1.4,0.7,2.2
				c0.3,0.8,0.5,1.5,0.8,2.3c0.1,0.4,0.3,0.8,0.4,1.1c0.1,0.4,0.3,0.8,0.4,1.1c0.3,0.8,0.6,1.5,0.9,2.2c0.6,1.5,1.2,3,1.9,4.4
				c0.3,0.7,0.7,1.5,1,2.2c0.3,0.6,0.6,1.2,0.8,1.8c0.3,0.6,0.6,1.2,0.9,1.8c0.9,1.8,1.8,3.5,2.8,5.3c1.2,2.2,2.5,4.4,3.8,6.5
				c0.5,0.7,0.9,1.4,1.4,2.1c0.4,0.6,0.7,1.1,1.1,1.7c1.1,1.7,2.3,3.4,3.5,5c0,0,0,0,0,0c1.2,1.7,2.5,3.3,3.7,5
				c0.4,0.5,0.9,1.1,1.3,1.6c0.9,1.1,1.8,2.2,2.7,3.3c0.4,0.5,0.9,1.1,1.4,1.6c2.3,2.7,4.7,5.3,7.2,7.9c1,1,2,2.1,3,3.1
				c0.5,0.5,1,1,1.5,1.5c1,1,2.1,2,3.2,3c0.5,0.5,1.1,1,1.6,1.5c0.5,0.5,1.1,1,1.6,1.5c2.2,2,4.4,3.9,6.8,5.9c0.6,0.5,1.2,1,1.7,1.4
				c0.6,0.5,1.2,0.9,1.8,1.4c0.7,0.6,1.5,1.2,2.2,1.8c1.1,0.8,2.1,1.6,3.2,2.5c0.6,0.5,1.2,0.9,1.9,1.4c0.6,0.5,1.2,0.9,1.9,1.4
				c0.6,0.5,1.3,0.9,1.9,1.4c0.6,0.4,1.3,0.9,1.9,1.4c1.1,0.8,2.2,1.6,3.4,2.3c1,0.7,2,1.3,2.9,2c1.3,0.9,2.7,1.8,4,2.6
				c1.2,0.8,2.4,1.5,3.6,2.2c0.6,0.4,1.3,0.8,1.9,1.2c2.4,1.4,4.8,2.8,7.3,4.2c0.8,0.4,1.6,0.9,2.4,1.3c1.1,0.6,2.2,1.2,3.3,1.8
				c0.7,0.4,1.5,0.8,2.2,1.2c0.8,0.4,1.6,0.9,2.5,1.3s1.7,0.8,2.5,1.3c0.8,0.4,1.7,0.8,2.5,1.2c2.4,1.2,4.8,2.3,7.2,3.4
				c0.4,0.2,0.8,0.3,1.1,0.5c3.2,1.4,6.4,2.8,9.6,4.2c1.6,0.7,3.1,1.3,4.8,1.9c0.2,0.1,0.3,0.1,0.5,0.2c1.3,0.5,2.7,1.1,4.1,1.6
				c0.9,0.3,1.8,0.7,2.6,1c2.6,1,5.3,1.9,7.9,2.9c4.4,1.5,8.8,3,13.3,4.4c1.4,0.4,2.8,0.8,4.1,1.2c6.6,2,13.4,3.8,20.2,5.4
				c1.2,0.3,2.3,0.5,3.4,0.8c2.3,0.5,4.6,1,6.9,1.5c1.2,0.2,2.3,0.5,3.5,0.7c5.8,1.2,11.6,2.2,17.5,3.2c1.6,0.2,3.2,0.5,4.8,0.7
				c0.4,0.1,0.8,0.1,1.2,0.2c1.2,0.2,2.4,0.4,3.7,0.5c1.5,0.2,2.9,0.4,4.4,0.6c1.8,0.2,3.6,0.4,5.4,0.6c1.8,0.2,3.5,0.4,5.3,0.6
				c1.2,0.1,2.4,0.2,3.6,0.3c2.4,0.2,4.8,0.4,7.2,0.6c5.7,0.4,11.5,0.8,17.3,1c1,0,2,0.1,3,0.1c3,0.1,6.1,0.2,9.1,0.2
				c2.5,0,4.9,0,7.3,0c1,0,2,0,2.9,0c0.5,0,1,0,1.5,0c0.8,0,1.7,0,2.5,0c0.6,0,1.1,0,1.7,0c2.3-0.1,4.5-0.1,6.8-0.2
				c1.7-0.1,3.4-0.2,5.1-0.2c0.9,0,1.7-0.1,2.6-0.1c1.1-0.1,2.1-0.1,3.2-0.2c1.2-0.1,2.4-0.2,3.6-0.2c1-0.1,2-0.1,3-0.2
				c1.4-0.1,2.8-0.2,4.2-0.3c4-0.3,7.9-0.8,11.8-1.2c0.1,0,0.3,0,0.4,0c0.2,0,0.3,0,0.5-0.1c1-0.1,1.9-0.2,2.9-0.4
				c1.3-0.2,2.7-0.3,4-0.5c1.2-0.2,2.4-0.3,3.6-0.5c1.6-0.2,3.2-0.5,4.8-0.7c0.7-0.1,1.4-0.2,2-0.3c0.6-0.1,1.2-0.2,1.8-0.3
				c3.3-0.5,6.6-1.1,9.9-1.8c1.1-0.2,2.2-0.4,3.4-0.7c0,0,0.1,0,0.1,0c1.4-0.3,2.9-0.6,4.3-0.9c1-0.2,2-0.4,3-0.6
				c0.8-0.2,1.6-0.3,2.4-0.5c0.4-0.1,0.8-0.2,1.2-0.3c1.7-0.4,3.4-0.8,5.1-1.2c1.8-0.4,3.5-0.8,5.2-1.3c1.2-0.3,2.4-0.6,3.6-0.9
				c0.2,0,0.3-0.1,0.4-0.1c1.2-0.3,2.5-0.7,3.7-1c1.2-0.3,2.5-0.7,3.7-1c0,0,0.1,0,0.1,0c1.3-0.4,2.5-0.7,3.8-1.1
				c1.7-0.5,3.3-1,5-1.5c1.5-0.5,3-1,4.5-1.5c0.2-0.1,0.5-0.2,0.7-0.2c1-0.3,2-0.7,3-1c0.8-0.3,1.6-0.5,2.3-0.8
				c1.5-0.5,3-1.1,4.4-1.6c1.5-0.5,2.9-1.1,4.4-1.6c0.1,0,0.2-0.1,0.3-0.1c1.5-0.6,3-1.1,4.5-1.7c0.8-0.3,1.6-0.6,2.3-0.9
				c0.8-0.3,1.6-0.6,2.3-1c0.7-0.3,1.5-0.6,2.2-0.9c0.8-0.3,1.6-0.7,2.4-1c1.3-0.6,2.6-1.1,3.9-1.7c1.7-0.8,3.4-1.5,5.1-2.3
				c0.7-0.3,1.5-0.7,2.2-1c1.1-0.5,2.2-1.1,3.3-1.6c0.8-0.4,1.6-0.8,2.3-1.2c0.8-0.4,1.6-0.8,2.4-1.2c0.7-0.3,1.3-0.7,2-1
				c1-0.5,2-1.1,2.9-1.6c0.7-0.4,1.4-0.8,2.1-1.1c0.8-0.4,1.5-0.9,2.3-1.3c0.6-0.3,1.2-0.7,1.8-1c4.8-2.7,9.4-5.6,13.9-8.5
				c0.6-0.4,1.3-0.8,1.9-1.3c0.6-0.4,1.3-0.8,1.9-1.3c0.6-0.4,1.3-0.8,1.9-1.3c1.2-0.9,2.5-1.7,3.7-2.6c1.2-0.8,2.3-1.7,3.5-2.5
				c0.2-0.1,0.3-0.2,0.4-0.3c0.5-0.4,1-0.8,1.5-1.1c1-0.7,1.9-1.5,2.9-2.2c0.3-0.2,0.6-0.5,0.9-0.7c1-0.8,1.9-1.5,2.9-2.3
				c1.1-0.9,2.2-1.8,3.2-2.7c0.1-0.1,0.2-0.2,0.3-0.2c0.9-0.8,1.7-1.5,2.6-2.3c2.5-2.2,5-4.5,7.3-6.8c0.6-0.6,1.2-1.2,1.8-1.8
				c1-1,2-2,3-3.1c0.3-0.3,0.6-0.6,0.8-0.9c0.7-0.8,1.4-1.5,2.1-2.3c0.6-0.6,1.2-1.3,1.7-1.9c0.8-0.9,1.6-1.8,2.4-2.7
				c0.5-0.6,1-1.2,1.5-1.8c1.6-1.9,3.1-3.7,4.5-5.6c0.5-0.7,1-1.3,1.5-2c0-0.1,0.1-0.1,0.1-0.2c0.6-0.8,1.2-1.6,1.7-2.4
				c0.3-0.4,0.6-0.8,0.8-1.2c0.4-0.6,0.8-1.2,1.2-1.7c0.3-0.4,0.6-0.8,0.8-1.2c1.3-2,2.6-4,3.9-6.1c0.3-0.4,0.6-0.9,0.8-1.3
				c0.4-0.7,0.8-1.4,1.2-2.1c0.2-0.3,0.3-0.5,0.5-0.8c0.4-0.7,0.8-1.5,1.2-2.2c0.3-0.6,0.6-1.1,0.9-1.7c0.9-1.7,1.8-3.4,2.6-5.2
				c0.3-0.6,0.5-1.1,0.8-1.7c0.2-0.4,0.4-0.8,0.6-1.3c1.1-2.4,2.1-4.9,3-7.4c0.1-0.4,0.3-0.8,0.4-1.2c0.4-1.2,0.8-2.3,1.2-3.5
				c0.3-0.8,0.5-1.7,0.8-2.5c0.4-1.3,0.8-2.5,1.1-3.8c0.1-0.5,0.3-0.9,0.4-1.4c0.2-0.9,0.5-1.8,0.7-2.8c0,0,0-0.1,0-0.1
				c0.2-0.9,0.4-1.8,0.6-2.8c0.1-0.5,0.2-1,0.3-1.5c0-0.2,0.1-0.4,0.1-0.5c0.1-0.5,0.2-1,0.3-1.6c0.2-1.1,0.4-2.2,0.6-3.3
				c0.1-0.9,0.3-1.8,0.4-2.7c0.1-0.3,0.1-0.7,0.1-1c0-0.4,0.1-0.8,0.1-1.1c0.1-0.4,0.1-0.8,0.1-1.2c0.1-0.7,0.1-1.4,0.2-2.1
				c0.1-0.6,0.1-1.2,0.1-1.8c0.1-0.7,0.1-1.4,0.1-2.2c0-0.4,0-0.7,0-1.1c0,0,0-0.1,0-0.1c0-0.5,0-1.1,0.1-1.6c0-0.8,0-1.6,0.1-2.4
				C1863,1493.8,1863,1492.5,1862.9,1491.1z M1572.9,1565.6c-44.4-0.4-82.7-17.2-101.2-41.2c-6.7-8.7-10.8-18.3-11.6-28.4
				c-0.2-1.5-0.2-3.1-0.2-4.6c0.1-5,0.9-9.9,2.4-14.6c0.1-0.2,0.1-0.4,0.2-0.7c0.4-1.3,0.9-2.6,1.5-3.9c0.3-0.7,0.6-1.4,1-2.1
				c0.2-0.4,0.4-0.9,0.7-1.3c0.3-0.6,0.6-1.2,1-1.8c0.5-0.9,1-1.8,1.6-2.6c0,0,0,0,0,0c0.3-0.5,0.6-0.9,0.9-1.4c0.9-1.4,2-2.8,3-4.1
				c0.4-0.5,0.7-0.9,1.1-1.3c0.4-0.5,0.8-0.9,1.2-1.4c1.6-1.8,3.2-3.5,4.9-5.1c0.4-0.4,0.9-0.8,1.3-1.2c0.8-0.7,1.6-1.4,2.5-2.2
				c0.4-0.3,0.8-0.7,1.3-1c0,0,0.1-0.1,0.1-0.1c1.3-1.1,2.7-2.1,4.1-3.1c0.4-0.3,0.9-0.6,1.4-0.9c1.5-1,3.1-2.1,4.7-3
				c0.6-0.4,1.2-0.8,1.9-1.1c0.5-0.3,0.9-0.5,1.4-0.8c0.4-0.2,0.8-0.5,1.2-0.7c0.3-0.2,0.6-0.3,0.9-0.5c0.8-0.4,1.5-0.8,2.3-1.2
				c0.5-0.3,1.1-0.5,1.6-0.8c1.1-0.5,2.2-1.1,3.3-1.6c1.1-0.5,2.2-1,3.3-1.5c0.4-0.2,0.9-0.4,1.3-0.5c0.7-0.3,1.5-0.6,2.2-0.9
				c1.4-0.6,2.9-1.1,4.3-1.6c0.9-0.3,1.8-0.6,2.6-0.9c4.1-1.3,8.2-2.5,12.5-3.5c0.5-0.1,1-0.2,1.4-0.3c2.5-0.6,4.9-1.1,7.5-1.5
				c0.9-0.1,1.7-0.3,2.6-0.4c0.9-0.2,1.8-0.3,2.8-0.4c0.1,0,0.1,0,0.1,0c0.9-0.1,1.8-0.2,2.7-0.3c0.9-0.1,1.9-0.2,2.8-0.3
				c0.9-0.1,1.9-0.2,2.8-0.3c3.4-0.3,6.9-0.5,10.5-0.7c0.4,0,0.9,0,1.3,0c2,0,4.1-0.1,6.2,0c0.8,0,1.5,0,2.2,0c0.5,0,1,0,1.5,0
				c1.7,0,3.3,0.1,5,0.2c1,0.1,1.9,0.1,2.9,0.2c0.7,0,1.3,0.1,2,0.2c0.5,0,1,0.1,1.5,0.1c1.6,0.2,3.1,0.3,4.7,0.5
				c0.2,0,0.4,0.1,0.6,0.1c0.7,0.1,1.3,0.2,2,0.3c1.2,0.2,2.5,0.3,3.7,0.5c0.5,0.1,1,0.2,1.4,0.2c0.1,0,0.2,0,0.3,0
				c0.5,0.1,1,0.2,1.4,0.2c0.3,0,0.6,0.1,0.9,0.2c0.4,0.1,0.8,0.1,1.2,0.2c0.2,0,0.3,0.1,0.5,0.1c0.6,0.1,1.3,0.3,1.9,0.4
				c0.9,0.2,1.8,0.4,2.6,0.6c0.5,0.1,1.1,0.2,1.6,0.4c0.1,0,0.3,0.1,0.4,0.1c0.4,0.1,0.8,0.2,1.2,0.3c1.2,0.3,2.3,0.6,3.5,0.9
				c0.4,0.1,0.9,0.2,1.3,0.4c0.8,0.2,1.5,0.4,2.3,0.7c0.8,0.2,1.6,0.5,2.3,0.7c0.6,0.2,1.1,0.3,1.7,0.5c0.6,0.2,1.2,0.4,1.8,0.6
				c0.9,0.3,1.8,0.6,2.7,1c0.1,0,0.2,0.1,0.3,0.1c0.9,0.3,1.8,0.7,2.7,1c0.9,0.4,1.9,0.7,2.8,1.1c0.8,0.3,1.6,0.7,2.4,1
				c4.3,1.9,8.5,4.1,12.4,6.3c0.4,0.2,0.7,0.4,1.1,0.6c1.1,0.7,2.2,1.3,3.3,2c0.4,0.3,0.9,0.6,1.3,0.9c0.3,0.2,0.6,0.4,0.9,0.6
				c1.1,0.7,2.1,1.5,3.1,2.2c0.3,0.2,0.6,0.5,0.9,0.7c0.2,0.1,0.3,0.3,0.5,0.4c0.4,0.3,0.8,0.6,1.2,0.9c0.8,0.6,1.6,1.3,2.4,2
				c0.3,0.3,0.6,0.6,1,0.8c1.2,1,2.3,2.1,3.4,3.1c0.3,0.3,0.7,0.7,1,1c1.4,1.4,2.7,2.8,3.9,4.3c0.3,0.4,0.7,0.8,1,1.2
				c0,0,0.1,0.1,0.1,0.1c0.2,0.3,0.4,0.5,0.6,0.8c0.6,0.8,1.2,1.6,1.8,2.5c0.2,0.2,0.3,0.4,0.4,0.6c0.2,0.3,0.5,0.7,0.7,1
				c0.4,0.6,0.8,1.1,1.1,1.7c0.2,0.3,0.4,0.6,0.6,0.9c0,0,0,0.1,0.1,0.1v0c0.4,0.6,0.7,1.3,1.1,1.9c0.3,0.6,0.6,1.1,0.9,1.7
				c0.3,0.7,0.7,1.3,0.9,2c0.1,0.2,0.2,0.5,0.3,0.7c0.1,0.1,0.1,0.2,0.1,0.3c0.3,0.8,0.7,1.6,1,2.4c0.3,0.8,0.6,1.6,0.8,2.4
				c0.1,0.4,0.2,0.8,0.4,1.3c0.1,0.2,0.1,0.4,0.1,0.5c0.1,0.4,0.2,0.9,0.3,1.3c0,0.2,0.1,0.3,0.1,0.5c0.1,0.5,0.2,1,0.3,1.5
				c0.1,0.6,0.2,1.1,0.3,1.7c0,0.1,0,0.2,0,0.3c0.1,0.5,0.1,1,0.2,1.5c0,0.2,0,0.3,0.1,0.5c0.1,0.4,0.1,0.8,0.1,1.2
				c0,0.1,0,0.1,0,0.2c0,0.1,0,0.2,0,0.4c0,0,0,0.1,0,0.1c0,0.5,0.1,1.1,0.1,1.6c0,0.6,0,1.2,0,1.9v0.5c0,0.5,0,1,0,1.5
				c-0.5,13.2-6.5,25.5-16.5,36C1650.7,1552,1614.3,1565.9,1572.9,1565.6z"/>
			<path fill="#BA274A" d="M1863,1495.1c-1,102.9-131.3,185-291.1,183.5s-288.5-86.2-287.6-189c0.2-17.3,4-33.9,10.9-49.7
				c4.8,14,9.2,28.3,13.9,42.4c17,51.5,54,93.9,102.8,117.5c106.9,51.5,249.4,60,333.8-21.1c51.2-42.9-37.1-111.2,2.6-148.7
				c18.1-22.6,36.3-39.1,54.1-50.4C1840.7,1411.5,1863.4,1451.7,1863,1495.1z"/>
			<path fill="#BA274A" d="M1803.1,1538.3c-0.4-5.8-2.9-11.4-6.1-16.2c-2.2-3.3-4.8-6.4-7.7-9.2c4.8-4.3,8.3-10,8.9-16.4
				c0.2-2.1,0-4.4-1.2-6.1c-1.5-2.2-4.3-3-6.8-3.7c-78.3-21.3-161.2-23.6-241.5-11.6c-27.7,4.1-56.3,9.9-83.3,2.5
				c-17.5-4.8-33-14.9-50.2-20.7c-35.3-11.9-76.6-4-104.9,20.2c-7,6-13.4,13.2-15.9,22.1c-1.6,5.8-0.9,24.4,8.6,24
				c3.6-0.2,9.1-6.9,12-9c4.1-3,8.3-5.6,12.7-8.1c18-10,38.5-15.4,59-15.8c11.6-0.2,23.3,1.2,34.5,4.4c-0.1,7.9-0.3,15.8-0.4,23.7
				c0,2.3-0.1,4.6,1,6.7c3.3,6.5,12.8,4.2,20.1,4.7c10,0.7,18,8.3,26.3,13.9c9.3,6.2,19.9,10,30.5,13.7
				c26.5,9.1,53.7,17.3,81.7,19.4c28,2.1,57.1-2.1,81.3-16.3c8.5-5,16.4-11.2,25.5-15.1c5.1-2.2,10.5-3.6,15.8-4.9
				c2.9-0.8,5.8-1.5,8.8-2.3c3.7,0.2,7.4,0.5,11,1.3c15.3,3.6,29.8,9.9,44.6,15.3c9.8,3.6,21.9,6.3,29.9-0.5
				C1801.5,1550.3,1803.5,1544.2,1803.1,1538.3z"/>
			<path fill="#BA274A" d="M1739.4,1473.4c-0.1,2.1-0.4,4.2-1.8,5.8c-1.2,1.4-2.9,2-4.6,2.6c-15,5.4-30.3,9.8-45.8,13.1
				c0-0.5,0-1,0-1.5c0.4-40.4-50.2-73.7-113-74.3c-54.6-0.5-100.5,23.9-111.8,56.8c-5.6-2.7-10.8-5.9-15.4-10
				c-9.2-8.1-15.6-20.1-14.2-32.2c1.2-10.6,7.9-22.5,1.3-30.9c-3.6-4.6-9.9-6-15.7-6.7c-33.3-3.9-67.1,5-97.4,19.2
				c-4,1.9-10.8,6.1-17.7,8.8c18.7-31.4,50.4-58.6,90.7-79c24.6,0.1,49.1,5.3,72,14.2c9.6,3.8,19.1,8.2,29.2,10.4
				c9.9,2.1,20.1,2,30.3,1.9c21.8-0.2,43.5-0.4,65.3-0.7c20-0.2,40.1-0.4,59.8,3.3c19.7,3.7,39,11.5,53.4,25.4
				c9.7,9.4,16.7,21.1,23.1,33C1733.8,1445.5,1740.2,1459.1,1739.4,1473.4z"/>
			<path fill="#EFB6AF" d="M1404.2,1467.8c-13-3.7-26.6-6-40-4.4c-26.4,3-49,19.9-68.9,37.6c-3.3,2.9-6.5,5.9-10.4,7.9
				c-8.9,4.6-19.9,3.5-29.1-0.5c-9.2-4-16.9-10.7-24.5-17.3c-6.2-5.4-13-12.5-11-20.5c5.9-6.3,16.4-4.5,24.3-0.9
				c7.9,3.6,15.9,8.7,24.5,7.5c7.2-1,12.9-6.3,18.1-11.2c14.4-13.6,29.4-27.1,47.4-35.1c26.9-12,58.3-10.5,86.2-1.1
				c20.2,6.8,114.4,49.3,87.2,80.5c-12,13.8-31.5-2.3-42-10.1C1447.1,1486,1427.3,1474.4,1404.2,1467.8z"/>
			<path fill="#EFB6AF" d="M1453.9,1373.6c-12.2-5.8-25.3-10.2-38.7-10.9c-26.6-1.4-51.6,11.7-74.1,25.9c-3.7,2.3-7.4,4.7-11.6,6.1
				c-9.5,3.1-20.2,0.2-28.6-5.3c-8.4-5.5-14.9-13.3-21.3-21c-5.2-6.3-10.8-14.5-7.6-22c6.9-5.2,16.9-1.7,24.1,3.1
				c7.2,4.9,14.2,11.2,22.9,11.4c7.2,0.2,13.7-4.1,19.7-8.1c16.4-11,33.4-21.9,52.5-26.9c28.5-7.4,59.3-0.8,85.3,13
				c18.8,10,104.8,67.3,72.9,93.7c-14,11.6-30.7-7.4-39.8-16.9C1493.2,1398.5,1475.6,1383.9,1453.9,1373.6z"/>
			<g>
				<path fill="#EFB6AF" d="M1744.2,1396c0,0-53.5-48.9-25.4-83.7c32.9-40.7,76.7,50.6,76.7,50.6s-6.4,17.2-1.3,18.6
					c5.1,1.4,8.9-7.3,8.9-7.3s13.1,24.5,27.8,12.7c13.1-10.5-2-35.5-16.8-38.4c-3.4-0.7-6.4-2.8-8-5.9
					c-9.4-18.5-41.3-74.2-85.6-69.7c-36.9,3.8-63.5,79.9-42.4,135.1L1744.2,1396z"/>
				<path fill="#EFB6AF" d="M1696,1404.2c-0.4-1.6-19.8,11.8-138.8-0.3c-1.1,1.1-15.9,12.9-18.5,45.3c-1.4,31.5-9.9,32.6,66.2,90.7
					c-1.1-0.6,9.9,14,65.6-8.9c57-21.6,115.7-7.6,113.8-57.7c-1.3-32.2-20.6-48.7-30-61.8c0,0,0,0,0,0c-2.9-4.1-7.7-11.3-10.1-15.6
					C1740,1388.7,1696.7,1405.3,1696,1404.2z"/>
				<path fill="#EFB6AF" d="M1754.9,1342.4c-20.5,25.1-17.6,39.5-7.5,50.2c0,0,0,0,0.1,0.1c0.5,0.6,1,1.2,1.4,1.8
					c3.9,6.2,2.2,14.5-3.9,18.9c-0.4,0.3-0.8,0.6-1.3,0.9c-4.4,3.2-9.7,6.7-15.8,10.3c-19.7,12,32.6,35.6,32.6,35.6
					s81.1-54,78.4-88.8C1836.3,1336.6,1782.2,1308.9,1754.9,1342.4z"/>
				<path fill="#FFFFFF" d="M1753.3,1367.7c-0.8,0.9-1.2,2-1.1,3.2c0,1.2,0.3,2.5,0.9,3.6l0,0c0.2,0.4,0.4,0.7,0.6,1.1
					c1.7,2.6,4.6,5.3,7.5,4.4c0.6-0.2,1.2-0.6,1.9-1.1l0.2-0.2c0.5-0.5,0.9-1.2,0.8-1.9c-0.1-0.5-0.5-1-0.8-1.4
					c-2.7-2.9-5.4-5.7-8.1-8.6c-0.1-0.1-0.2-0.2-0.4-0.2c-0.1,0-0.2,0.1-0.4,0.1C1754,1366.9,1753.6,1367.2,1753.3,1367.7z"/>
				<path fill="#F49089" d="M1773.8,1353c1.4-0.6,2.9-1.2,4.4-1.5c2-0.4,3.5,1.9,2.2,3.5c-3.5,4.1-7.6,7.7-11.2,11.6
					c-1.4,1.5-2.8,3.3-5,2c-0.5-0.3-2.3-2.8-3.8-5c-1.1-1.5-0.5-3.6,1.1-4.5C1764.9,1357.4,1770.3,1354.5,1773.8,1353z"/>
				<path fill="#F49089" d="M1745,1413.4c-0.4,0.3-0.8,0.6-1.3,0.9c15.6,12.1,32.6-2,32.6-2c-12.8-1.6-23.6-13.1-27.4-17.8
					C1752.9,1400.7,1751.1,1409.1,1745,1413.4z"/>
				<path fill="#EFB6AF" d="M1782.6,1460c0,0,15.4,72.7,58.5,61c50.6-13.7-15.3-90.6-15.3-90.6s-18.4-1.1-17.5-6.3
					s10.3-5.1,10.3-5.1s-17.1-21.9-0.4-30.6c14.9-7.7,31.7,16.2,28.3,30.8c-0.8,3.4-0.1,7,2.2,9.7c13.2,16,51.2,67.8,29.2,106.5
					c-18.4,32.3-103,22.5-145-19.1L1782.6,1460z"/>
				<path fill="#40537E" d="M1633.2,1542.7c0,0-66.1-66.6-40-135.6l-71.4-55.5c0,0-40.5,24.5-45.3,71.7l32,28.1l-37.1-7.8
					c0,0-42,31.1-30.4,74.3l59.3,12.5c17.2,3.6,33.7,9.9,48.7,19C1568.4,1560.9,1601.8,1572.7,1633.2,1542.7z"/>
				<path fill="#FFF083" d="M1801.1,1414.4c4-3.4,7.2-7.7,9.4-12.4c2.5,1.9,6.2,1.6,8.9-0.1c2.6-1.7,4.4-4.5,5.6-7.4
					c1.4-3.5,2.1-7.6,0-10.7c-2.4-3.5-7.1-4.1-11.3-4.3c1.9-1.6,3.5-3.6,4.8-5.7c0.4-0.7,0.8-1.4,1.2-2.2c1.4-2,1.4-4,1.4-4
					c-2.5-0.5-4.9-1.6-7.2-3.2c-1.1-0.8-2.2-1.7-3.3-2.7c-8.1-5-11.5-16.3-18.6-21.9c-1-0.8-2.1-1.5-3.3-2
					c-7.6-1.2-19.6-1.2-18.6-12.2c0-10,13-9,20.6-7.3c1.2,0.2,2.4,0.4,3.6,0.7c8.2,1.9,16.1,5.8,23.6,10.4c0.9,0.6,1.8,1.3,2.7,2
					c1,0.7,2,1.4,3,2.1c6.9,5.1,13.6,10.9,16.3,18.9c1.6,4.7,1.6,9.8,1.6,14.8c1.1-0.8,2.3-1.6,3.6-1.6s2.7,1.3,2.2,2.6
					c-0.4,1-1.7,1.3-2.5,2.1c-3.1,2.7,1.8,8.5-0.7,11.8c-1.6-0.2-3.2-1.2-4.1-2.5c-0.5,9.4-4,18.5-9.1,26.4
					c-4.5,6.9-10.2,12.9-16.5,18.3c-3,2.5-5.1,5.2-7.3,0.9C1804.9,1421.3,1803.7,1417.7,1801.1,1414.4z"/>
			</g>
			<path fill="#F49089" d="M1749.9,1494.9c2.4,0,4.8,0,7.1,0.7c2.2,0.6,4.2,1.9,6.2,3.1c7.2,4.5,15.1,9.9,16.9,18.2
				c-13.7-4.8-27.6-9.7-42-11.7c-4-0.6-22.5-1.9-12.2-7.4C1732.5,1494.1,1742.5,1494.9,1749.9,1494.9z"/>
			<path fill="#F49089" d="M1681.4,1412.2c0.9-1.2-0.2-7.7-0.1-9.4c0.1-3.4,0.4-6.8,0.8-10.1c0.4-3.4,1-6.7,1.8-10
				c0.7-2.9,1.2-6.2,3.6-3.1C1694.3,1388.2,1686.8,1405,1681.4,1412.2z"/>
			<path fill="#F49089" d="M1711,1472.3c0.1-0.6,0.4-1.3,1.4-1.5c1-0.2,1.8,0.5,2.3,1c1.5,1.6,7.2,8.8,1.7,8.9
				C1710.5,1480.8,1710.6,1474.5,1711,1472.3z"/>
			<path fill="#F49089" d="M1692.2,1426.7c-0.2,0.5-0.7,1.1-1.6,1.1c-1-0.1-1.7-0.8-2.1-1.4c-1.2-1.8-5.4-9.6,0-8.6
				C1694.4,1418.9,1693,1424.7,1692.2,1426.7z"/>
			<path fill="#F49089" d="M1617.5,1455c4.7,0.1,9.8-2.6,10.9-7.2c-3.8-0.6-7.6,0.2-11.4,0.9c-3.3,0.6-7.3,0.5-10.4,1.3
				C1607.4,1453.4,1614.5,1454.9,1617.5,1455z"/>
			<path fill="#FFFFFF" d="M1529.9,1594.4c19.3,3.5,38.9,4.7,58.4,3.8c25-1.3,43-13.4,49.9-5.2c2.9,3.4,1.6,9.5-1.2,12.8
				c-2,2.4-5.1,3.1-8.1,3.6c-49.9,9.2-101.9,5.3-150.2-11.4c-11.7-4.1-23.5-9-33.1-17.2c-3.7-3.1-7.1-7-8.1-11.9
				c-0.7-3.5,0.7-9.7,4.4-11c3.6-1.3,7.3,2.8,10.1,4.7c7.9,5.3,16.1,10.1,24.5,14.3C1493.5,1585.1,1511.5,1591.1,1529.9,1594.4z"/>
			<path fill="#FFFFFF" d="M1591.8,1320.5c11.9,0.2,24.4,0.8,35.4,4.8c6.9,2.5,5.1,12.7-2.2,12.6c-0.1,0-0.1,0-0.2,0
				c-21.1-0.4-42.2-0.8-63.3-1.2c-4.7-0.1-26.3,2.5-22.4-7.3c1.9-4.9,14.3-5.9,18.6-6.7C1568.8,1320.4,1580.4,1320.3,1591.8,1320.5z
				"/>
		</g>
		<g>
			<g>
				<g>
					<path fill="#EFB6AF" d="M800.7,921.4c0.4,0.8,0.7,1.7,1.1,2.5c2.1,4.7,4.3,9.4,6.6,14h41.3l-16.8-37c-3.4-7.5-6.8-15.1-8-23.2
						c-1.3-9.6,0.7-19.4,2.7-28.9c3.1-14.7,6.2-29.5,9.2-44.2c0.3-1.3,0.8-3.8,1.2-6.6c1.3-9.2,1.6-22.1-9.5-11.3
						c-2.2,2.2-3.6,5-4.7,7.9c-0.2,0.5-0.4,1-0.6,1.5c-8.9,23.9-16.6,48.2-23.1,72.9c-1.6,6-3.1,12.1-3.3,18.3
						C796.3,899.2,796,910.6,800.7,921.4z"/>
					<g>
						<path fill="#FFF083" d="M819.5,782c0,3.9,0.3,8.2,2.7,11.3c3.8,4.7,15.7,6.8,20.7,2.8c4.2-3.4,6.5-14.6,9.1-19.4
							c2.7-5,30.9-56,28.6-57.7c-1.7-1.2-3.6-0.9-5.7-0.3c-1.9,0.6-4,1.5-5.9,1.6c-3.7,0.2-6.4-2.3-8.3-5.5c-1.4-2.3-2.4-5-3.1-7.5
							c-1.4-1.1-3.2-0.9-4.9-0.1c-0.7,0.3-1.4,0.8-2.1,1.2c-2,1.5-4,3.5-6.5,3.6c-3.4,0.2-5.9-3.1-8.1-5.6c-0.1-0.1-0.2-0.2-0.3-0.3
							c-2.3-2.5-6.1-4.5-8.6-2.4c-1.3,1.1-1.7,3-2,4.7C821.2,732.8,819.3,757.4,819.5,782z"/>
						<path fill="#FCDC24" d="M851.1,742.2c-4.2,10.5-8.9,21.2-8.7,32.4c5.7-6.2,7.9-14.7,11.4-22.4c3.2-6.9,7.4-13.1,11.8-19.3
							c3.1-4.4,7.1-9.1,9.4-14.2c-1.9,0.6-4,1.5-5.9,1.6c-3.7,0.2-6.4-2.3-8.3-5.5C857.9,724.1,854.7,733.2,851.1,742.2z"/>
						<path fill="#FCDC24" d="M834.1,767.9c5.8-20,11.9-40,18.3-59.8c0.1-0.3,0.2-0.6,0.3-0.9c-0.7,0.3-1.4,0.8-2.1,1.2
							c-2,1.5-4,3.5-6.5,3.6c-3.4,0.2-5.9-3.1-8.1-5.6c-0.1-0.1-0.2-0.2-0.3-0.3C832.1,726.5,833.1,747.3,834.1,767.9z"/>
					</g>
				</g>
				<g>
					<path fill="#EFB6AF" d="M754.5,900.6c2.2,11.6,0.8,21.8,7.8,31.3c1.5,2,3,4,4.5,6H817c-3.5-4.7-7.1-9.3-10.6-14
						c-4.6-6-9.1-12-13.7-18c-5-6.5-10-13.2-12.9-20.9c-3.4-9.1-3.6-19-3.8-28.8c-0.2-15.1-0.5-30.1-0.7-45.1c0-1.3-0.1-3.9-0.3-6.7
						c-0.8-9.2-3.3-21.9-11.8-8.9c-1.7,2.6-2.4,5.7-2.8,8.8c-0.1,0.5-0.2,1.1-0.2,1.6c-3.4,25.3-5.6,50.7-6.4,76.2
						C753.5,888.2,753.3,894.5,754.5,900.6z"/>
					<g>
						<path fill="#FFF083" d="M753.5,792.8c0.9,3.8,2.1,7.9,5.1,10.4c4.7,3.8,16.8,3.1,20.8-1.8c3.4-4.3,3.1-15.6,4.6-20.9
							c1.5-5.5,17.9-61.4,15.2-62.6c-1.9-0.8-3.7-0.1-5.6,1c-1.8,1-3.6,2.3-5.5,2.9c-3.5,1-6.7-0.8-9.3-3.5
							c-1.9-1.9-3.5-4.4-4.7-6.7c-1.6-0.7-3.3-0.1-4.8,1c-0.7,0.5-1.2,1.1-1.7,1.7c-1.6,1.9-3.1,4.3-5.5,5c-3.3,0.9-6.4-1.7-9.2-3.7
							c-0.1-0.1-0.2-0.1-0.3-0.2c-2.8-1.9-6.9-3-8.9-0.4c-1.1,1.4-1,3.3-0.9,5.1C744.2,744.4,747.8,768.9,753.5,792.8z"/>
						<path fill="#FCDC24" d="M775.5,747c-1.8,11.1-4,22.6-1.3,33.6c4.2-7.3,4.4-16.1,6.2-24.3c1.6-7.4,4.4-14.5,7.2-21.5
							c2-4.9,4.9-10.4,6.1-15.9c-1.8,1-3.6,2.3-5.5,2.9c-3.5,1-6.7-0.8-9.3-3.5C778.1,727.9,777,737.5,775.5,747z"/>
						<path fill="#FCDC24" d="M764.6,775.9c1.2-20.8,2.8-41.6,4.7-62.4c0-0.3,0.1-0.6,0.1-1c-0.7,0.5-1.2,1.1-1.7,1.7
							c-1.6,1.9-3.1,4.3-5.5,5c-3.3,0.9-6.4-1.7-9.2-3.7c-0.1-0.1-0.2-0.1-0.3-0.2C753.5,735.9,759.1,756,764.6,775.9z"/>
					</g>
				</g>
			</g>
			<path fill="#F49089" d="M806.5,927.9c-1.7-3.2-3.4-6.5-4.3-10.3c-1-4-1-8.1-1-12.2c0-1.3,0-2.7,0.1-4c0.1-1.6,1.5-1.5,1.9,0.1
				c1.3,6,3,11.9,4.8,17.8c1.5,4.8,3.1,9.8,5.5,13.6c0.6,1,0.4,2.5-0.4,2.7c-0.7,0.1-1.4,0.2-1.9-0.3
				C809.3,933.8,807.7,930.2,806.5,927.9z"/>
		</g>
		<g>
			<path fill="#263F5E" d="M1255.5,1036.5c-5.7-4.9-11.8-9.7-19-12c-17.1-5.6-35.3,3.8-49.7,14.5c-11.9,8.7-24.5,19.1-39.2,18.3
				c-9.8-0.5-18.7-6.1-25.5-13.1c-3.2,8.9,0.7,19.2,7.5,25.8c6.8,6.5,16.1,9.9,25.3,12.1c9.8,2.3,20.8,3.2,29.2-2.2
				c3.5-2.3,6.3-5.5,9.2-8.6c8.1-8.6,17.3-16.1,27.3-22.2c7-4.3,15-8.1,23.2-7.1c14.9,1.7,17.9,15.7,28.4,22.7
				C1278.9,1054.4,1261.4,1041.7,1255.5,1036.5z"/>
			<path fill="#DF3E5F" d="M1275.7,1056.3c-2.3,2.3-5.5,3.7-8.8,3.8c-2,0-4-0.3-5.6-1.1c-3.1-1.5-5-4.4-4.3-8.5
				c-1.5-0.6-3.2-0.9-4.8-1.4c-0.3-0.1-0.6-0.2-0.7-0.4c-0.1-0.2,0-0.5,0-0.7c0-1.4-2.2-1.6-3-2.8c-0.6-0.9-0.2-2.1,0.3-3
				c0.8-1.3,1.8-2.5,3.1-3.4c2.4-1.8,5.5-2.6,8.5-2.2c1.2,0.2,2.5,0.6,3.5,1.4c0.9,0.8,1.5,2.2,1.1,3.4c1.1,0,2.3-0.3,3.4-0.2
				c1.1,0,2.3,0.5,2.9,1.4c0.6,1,0.2,2.5-0.9,2.8c2.8,0.4,6,1.2,7.2,3.7C1278.8,1051.5,1277.5,1054.4,1275.7,1056.3z"/>
			<path fill="#BA274A" d="M1267.9,1053.1c-0.4,1.1-1.2,2-2,2.8c-1.3,1.2-2.9,2.3-4.5,3.1c-3.1-1.5-5-4.4-4.3-8.5
				c-1.5-0.6-3.2-0.9-4.8-1.4c-0.3-0.1-0.6-0.2-0.7-0.4c-0.1-0.2,0-0.5,0-0.7c0-1.4-2.2-1.6-3-2.8c-0.6-0.9-0.2-2.1,0.3-3
				c0.8-1.3,1.8-2.5,3.1-3.4c0.8,0.5,1.5,0.9,2.1,1.3c0.4,0.2,0.9,0.5,1.2,0.9c0.8,1.2-0.4,2.9,0.1,4.2c1.8,0.1,3.5,0.2,5.3,0.3
				c0.3,0,0.6,0,0.8,0.2c1,0.6,0.3,2.1-0.4,2.9c1.8,1.1,4.5-0.1,6.1,1.2C1268,1050.6,1268.2,1051.9,1267.9,1053.1z"/>
			<path fill="#F49089" d="M1322.3,1124.1c1.2,0.6,2.4,1.2,3.7,1.1c1.8-0.2,5.8-7.1,6.7-8.7c1.1-2,1.7-4.3,1.8-6.6
				c0-0.3,0-0.7-0.3-0.8c-0.2-0.1-0.5,0-0.7,0.1c-3.5,1.4-9.8,8-13,10C1316.7,1121.3,1319.6,1122.7,1322.3,1124.1z"/>
			<path fill="#EFB6AF" d="M1233.1,1100.3c0,0-14.3,31.1-39.1,33.3c-3.6,0.3-7.5,0-11.6-1.1c-1.2-0.3-2.4-0.7-3.7-1.2
				c-3.8-1.5-7.8-3.7-12-6.7c-0.5-0.3-1-0.7-1.5-1.1c-3.2-2.5-6.6-4.8-10.1-6.8c-47.3-27.2-115.1-9.3-134.6-3.3
				c-3.1,1-5.7,3.2-7.1,6.2c-4.2,8.6-14,19.9-19,19.8c-5.8-0.2,4.1-13.6,4.1-13.6s-52.9,30.3-41.8,1.9c8.6-21.8,28.8-22.8,37.5-22.1
				c2.8,0.2,5.7-0.4,8.1-1.9c90.1-56.8,177.7-28.4,213.5-12.2c1.5,0.7,2.9,1.3,4.2,2c1.6,0.8,3.1,1.5,4.4,2.2
				c1.8,0.9,3.4,1.8,4.6,2.5c1.8,1,3,1.7,3.5,2h0C1233,1100.3,1233.1,1100.3,1233.1,1100.3z"/>
			<path fill="#EFB6AF" d="M1422.6,1212.7h-135.3c-13.5-6.7-27.4-16.8-41-31.8c-1.1-1.2-2.1-2.4-3.2-3.6c-0.6-0.7-1.1-1.3-1.7-2
				c-0.4-0.5-0.8-0.9-1.2-1.4c0,0-2.1,2-5.3,5.6c-1.8,2-4,4.5-6.4,7.4c-3.5,4.4-7.5,9.7-11.3,15.6c-2.1,3.2-4.1,6.6-6,10.2
				l-130.3-20.8c9.1-13.9,21-29.9,35.7-44.8c0.8-0.8,1.7-1.7,2.5-2.5c4.5-4.4,9.3-8.8,14.4-12.8c3.2-2.6,6.6-5.2,10-7.6
				c3.8-2.7,7.7-5.2,11.7-7.5c11.2-6.5,23.3-11.6,36.3-14.5h0c6.4-1.4,13-2.4,19.7-2.7c2.4-0.1,4.7-0.2,7-0.2h0.4
				c5.2,0,9.9,0.3,14.1,0.8h0c0.1,0,0.2,0,0.3,0c18.8,2.3,29.3,9.3,35.8,18.5c2,2.9,3.7,6,5.1,9.2c0.5,1.1,1,2.3,1.4,3.5v0
				c1.7,4.5,3,9.2,4.3,13.9c5.1,18.4-2.5,37.1,21.3,45.3c55.6,19.1,75.6,11,75.6,11s6.5-14.3,17.1-12.2s-4.9,8.7-3.6,14.3
				C1391.2,1208.3,1409.7,1199.3,1422.6,1212.7z"/>
			<path fill="#EFB6AF" d="M1343.8,1095.1c-2,6.1-5.7,11.9-11.5,16.7c-5,4.1-9.4,7.2-13.5,9.4c-0.8,0.4-1.6,0.8-2.3,1.2
				c-1.4,0.7-2.8,1.2-4.2,1.7c-2.1,0.7-4.1,1.2-5.9,1.4c-7.8,1-13.8-1.9-18.8-6.6c0,0,0,0-0.1-0.1c-0.5-0.5-1.1-0.9-1.6-1.2
				c-5.5-3.5-13-1.8-16.9,3.7c-0.3,0.4-0.5,0.7-0.8,1.1c-2.8,4-5.9,8.8-9.1,14.2c-10.5,17.7-32.1-28.9-32.1-28.9s2.4-3.6,6.4-9.2
				c14-19.5,48.2-63.3,72.4-61.6C1330.7,1038.6,1351.9,1070,1343.8,1095.1z"/>
			<path fill="#263F5E" d="M1343.8,1095.1c-3.8,3.8-8.1,7-11.1,8.8c-9.4,5.6-21.2,5.2-31.9,3c-10.7-2.2-21.2-5.9-32.2-6.3
				c-11.1-0.4-22.6,2.7-33-1.1c-0.1,0-0.3-0.3-0.6-0.8c-3.6-6-2.8-13.6,1.8-18.9c17.1-19.5,34.9-46.1,68.8-43
				C1330.6,1039.2,1351.9,1070,1343.8,1095.1z"/>
			<path fill="#EFB6AF" d="M828.8,1196.4c0.8,1.2,0.9,2.6,1.3,4c0.3,1.1,0.7,2.1,1.2,3H862c-4.1-7.7-14.4-13.5-17.5-22.7
				c-0.8-2.4-1.5-5.1-3.6-6.6c-1.7-1.3-3.9-1.5-6.1-1.7c-7.8-0.6-15.7-0.8-23.6-0.6c-6.5,0.1-13.2,0.5-19.1,3.1
				c-3,1.3-6,3.5-6.2,6.8c-0.2,2.6,1.7,5,3.9,6.2c2.2,1.3,4.9,1.7,7.4,2c8.5,1.2,17,2.5,25.4,3.8
				C825,1194,827.5,1194.5,828.8,1196.4z"/>
			<path fill="#EFB6AF" d="M940,1224.5c1,1.5,1.2,3.3,1.6,5c0.3,1.3,0.9,2.6,1.5,3.8H982c-5.2-9.8-18.2-17-22.1-28.6
				c-1-3.1-1.9-6.4-4.5-8.4c-2.1-1.6-5-1.9-7.6-2.1c-9.9-0.7-19.8-1-29.7-0.8c-8.2,0.1-16.6,0.6-24.1,3.9c-3.7,1.6-7.5,4.5-7.8,8.5
				c-0.2,3.2,2.1,6.2,4.9,7.9c2.8,1.6,6.1,2.1,9.4,2.6c10.7,1.6,21.4,3.2,32.1,4.8C935.3,1221.5,938.4,1222.1,940,1224.5z"/>
			<path fill="#FFF083" d="M1235,1179.5c-1.8,2-4,4.5-6.4,7.4c-10.9-1.9-21.7-4.4-32.3-7.4c-22.4-6.3-44.2-14.8-64.9-25.4
				c-3.6-1.8-9.4-4.1-14.8-7c0.8-0.8,1.7-1.7,2.5-2.5c4.5-4.4,9.3-8.8,14.4-12.8c3.2-2.6,6.6-5.2,10-7.6c4.8,3.1,9.7,6,14.7,8.8
				c4.8,2.7,9.7,5.2,14.7,7.6c18.6,9,38.2,16.2,57.9,22.9c2.9,1,8.2,3.1,11,4.1C1246.8,1169.3,1238.2,1176,1235,1179.5z"/>
			<path fill="#FFF083" d="M1275.4,1131.4L1275.4,1131.4c-3.4,1.8-6.4,3.6-7.2,4.1c-5.7,3.4-10.9,7.6-15.5,12.4
				c-4.7,4.9-8.8,10.3-12.1,16.2c-0.4,0.8-0.8,1.5-1.2,2.3c-2.5,5-3.5,8.3-10.8,6.8c-0.3-3.2,0.7-6.5,2.2-9.7c1-2.3,2.3-4.4,3.4-6.4
				c8.1-13.7,18.5-26,30.8-36.2c1.2-1,2.4-2,3.9-2.3c2,2.9,3.7,6,5.1,9.2C1274.5,1129.1,1274.9,1130.2,1275.4,1131.4z"/>
			<path fill="#FFF083" d="M1229.3,1098.2c-1,0.7-2,1.5-3.1,2.2c-10.6,7.8-21.3,17-30.7,30.9c-0.5,0.8-1,1.6-1.6,2.4
				c-1.5,2.3-2.9,4.8-4.3,7.3c-0.3,0.6-0.7,1.2-1,1.9c-0.7,1.4-1.5,2.9-2.3,3.9c-2.2,2.6-4.4,1.4-5.8-0.9c-1.6-2.7-8.2,4.7-6.1,0.2
				c0.8-1.7,5.2-9.5,7.9-13.6c0.7-1,1.3-1.8,1.6-2.3c1.2-1.3,2.4-2.6,3.3-3.6c1.3-1.6,2.5-3.2,3.8-4.7c3.9-4.9,7.8-9.6,11.8-14
				c2.7-2.9,5.4-5.7,8.2-8h0c3.1-2.7,6.2-4.9,9.2-6.4c1.6,0.8,3.1,1.5,4.4,2.2C1226.5,1096.6,1228.1,1097.5,1229.3,1098.2z"/>
			<path fill="#F49089" d="M1157.5,1101c1.8,1.4,3.6,3,4.4,5.1c0.4,1,0.6,2.1,0.7,3.1c0.5,4,0.5,8.1,0,12.2c-1.8-1.6-2.5-4-3.4-6.2
				c-2.4-5.6-7.1-9.7-10-15c-1.1-1.9-2.1-4.1,1-4C1152.7,1096.3,1155.6,1099.5,1157.5,1101z"/>
			<path fill="#F49089" d="M1264.4,1169.6c2.4,0.5,4.7,1.4,6.9,2.2c-3.7,0.5-7.4,0.9-11.1,1.4c-2,0.3-13.6,1.9-11.3-2.7
				C1250.6,1167.3,1261.5,1169,1264.4,1169.6z"/>
			<path fill="#FFF083" d="M1183,1132.7c7.3,2,14.1,7.1,16,14.3c0.4,1.4,0.6,2.8,1.4,4c1.8,2.3,5.3,2.1,8.2,1.9
				c11.9-0.9,25,2.2,32.6,11.3c1.7,2,3.2,4.4,3.4,7.1c0.2,2.3-0.4,4.6-1.1,6.8c-1,3.4-2.2,7-5.1,9.1c-2.3,1.7-5.2,2-8.1,2.4
				c-5.8,0.7-11.7,1.3-17.5,0.8c-5.8-0.5-11.7-2.4-16.1-6.2c-0.7-0.6-1.4-1.3-2.2-1.6c-1.1-0.5-2.4-0.4-3.6-0.3
				c-11.9,0.6-24-1.2-35.3-5.2c-2.8-1-5.7-2.2-7.9-4.3c-3.5-3.3-4.7-8.3-5.3-13.1c-0.5-3.5-0.7-7.1-0.7-10.7
				C1142,1129.7,1169.6,1129,1183,1132.7z"/>
			<g>
				<path fill="#EFB6AF" d="M1283.3,1093.8c1.6-2.3,3.6-4.5,6.3-5.3c3.5-1,7.4,0.7,9.6,3.7s2.9,6.8,2.6,10.4
					c-0.2,2.4-0.8,4.7-1.7,6.9c-0.2,0.4-0.4,0.8-0.7,1.1c-0.3,0.2-0.7,0.3-1.1,0.4c-3.4,0.6-6.9,0.9-10.2,0
					C1279.2,1108.7,1278.7,1100.4,1283.3,1093.8z"/>
			</g>
		</g>
		<path fill="#BA274A" d="M1700.4,967.4c-30.1,6.2-61,6.4-91.8,6.6c-93.8,0.6-191.7,0.3-275.2-42.2c-3.3-1.7-7.1-4.5-6.1-8.1
			c0.3-1.3,1.3-2.4,2.3-3.4c0.1-0.1,0.2-0.2,0.3-0.2c33.2-31.9,77.2-51,122.3-60.5c33.3-7.1,67.3-9.3,101.4-9.7c3.6,0,7.3,0,10.9,0
			c4.2,0,8.4,0,12.6,0.1h0c4.2,0,8.4,0.1,12.7,0.2c31.8,0.5,63.6,1.8,95.2,5.5c28.3,3.3,56.5,8.5,83.8,17
			c13.6,4.2,44.8,9.1,53.1,22.4c0.7,1.2,1.2,2.4,1.6,3.6C1831.2,927.8,1721.2,963.1,1700.4,967.4z"/>
		<path fill="#DF3E5F" d="M1823.4,898.5c-3.2,11.4-25.3,23.2-50.1,33.2c-9,3.6-18.4,7-27.4,9.9c-20.1,6.6-38.2,11.3-45.4,12.6
			c-30.1,5.5-61,5.7-91.8,5.9c-47.5,0.3-96,0.3-143.2-4.6c-9.3-1-18.5-2.1-27.6-3.5c-36.3-5.5-71.5-14.5-104.4-29.4
			c-1.3-0.6-2.7-1.4-3.8-2.3c0.1-0.1,0.2-0.2,0.3-0.2c7.7-7.4,16-14.1,24.8-20.2c16.4-11.3,34.3-20.4,53.1-27.5
			c14.4-5.4,29.4-9.7,44.4-12.9c33.3-7.1,67.3-9.3,101.4-9.7c3.6,0,7.3,0,10.9,0c4.2,0,8.4,0,12.6,0.1h0c4.2,0,8.4,0.1,12.7,0.2
			c31.8,0.5,63.6,1.8,95.2,5.5c7.6,0.9,15.3,1.9,22.9,3.1c20.3,3.2,40.4,7.6,60.1,13.6c0.3,0.1,0.5,0.2,0.8,0.2
			c13.6,4.2,44.8,9.1,53.1,22.4C1822.6,896.2,1823.1,897.3,1823.4,898.5z"/>
		<path fill="#BA274A" d="M1772.6,935.8c-0.9,1.6-2.5,2.8-4.1,3.7c-6.8,3.9-15.2,4.5-22.7,2.1c-4.2-1.3-8.1-3.6-11.2-6.7
			c-1.4-1.4-2.8-3.1-4.7-3.7c-2.4-0.8-5.1,0.2-7.5,1.1c-26,10.1-54.1,13.5-81.8,16.9c-16.6,2-33.3,4-50.1,4.7
			c-33.4,1.5-67-2.2-99.2-11.3c-6.1-1.7-13.1-3.5-18.5-0.1c-4.4,2.8-5.9,7.8-7.5,12.9c-1,3.1-1.9,6.2-3.6,8.9
			c-4.9,0.8-9.9,1.5-14.7,0.2c-4.8-1.3-9.2-5.1-9.5-10c-0.1-0.9,0-1.7,0.2-2.6c0.5-2.6,1.7-5,2.7-7.5c2.9-7.4,3.3-16.1-0.7-23
			c-4-6.9-12.8-11.1-20.3-8.3c-6.4,2.4-12.1,9.3-18.6,7c-2-0.7-3.5-2.2-5.3-3.3c-5.3-3.2-12.1-2.3-18.2-3.1
			c-6.9-0.9-17.1-6.6-23-13.9c16.4-11.3,34.3-20.4,53.1-27.5c5.4,1.5,10.9,3,16.4,4c12,2.3,24.4,2.3,36.7,2.2
			c52.2-0.2,104.3-0.3,156.5-0.5c26.6-0.1,54.3-0.4,78-12.4c4.2-2.1,8.4-4.7,12.6-7.1c20.3,3.2,40.4,7.6,60.1,13.6
			c-2.1,1.8-4.9,2.9-7.6,3.1c-5.6,0.4-10.9-1.8-16.2-3.7c-5.2-1.9-11.1-3.4-16.3-1.5c-2.6,0.9-4.9,2.7-7.1,4.4
			c-10.6,8.5-20.7,18.1-33.4,22.8c-10.6,3.9-22.1,3.9-33.3,4c-22.8,0.1-45.5,0.2-68.3,0.3c-2.8,8.1,2.6,17.2,10,21.5
			c7.4,4.3,16.4,4.8,25,4.8c11.8,0,23.6-0.7,35.3-2.7c19-3.3,37.2-10.2,56.3-13.1c19.1-2.9,40.1-1.2,55.1,10.9
			c2.7,2.2,5.3,5.4,5.8,8.6C1773.5,933.1,1773.3,934.5,1772.6,935.8z"/>
		<path fill="#EFB6AF" d="M1541.3,939c-8.6,1.5-21.4-3.3-30.1-4.6c-10.3-1.6-20.6-3.1-30.8-4.7l-46.2-6c-0.8-4.6-1-9.4-1-14.2
			c-0.1-13.3,6.8-50.1,15.6-59.3c8.1-8.5,20.4-10.4,31.7-10c23.2,0.9,45.4,9.5,67.2,18.1c1.7,0.7,3.5,1.4,4.8,2.8
			c1.6,1.7,2.3,4.2,2.8,6.6C1557.7,879.1,1554.5,936.7,1541.3,939z"/>
		<path fill="#EFB6AF" d="M1777.9,853c-1.9,4.5-9.8,6.4-14.5,5.4c-8.8-1.8-17.8-4.9-26.7-4.1c-1.2,0.1-2.4,0.3-3.6,0.5
			c-3.9,0.9-7.5,2.6-11.1,4.3c-14.4,6.8-28.8,13.6-43.1,20.4c-12,5.7-24.1,11.4-37,14.4c-9.7,2.3-19.8,3-29.7,2.1
			c-2.6-0.2-5.2-0.6-7.4-1.8c-4.5-2.4-6.7-7.9-6.6-13c0.1-4.3,1.5-14.9,6.5-16.6c3.7-1.2,10.5,2.5,14.1,3.2
			c14.2,2.6,29.4,1.6,43.4-2.1c28.1-7.5,53.8-27,82.8-25.5c1.9,0.1,3.8,0.3,5.7,0.5c2.9,0.4,5.8,0.9,8.7,1.5
			C1767.2,844.7,1773.8,849.4,1777.9,853z"/>
		<path fill="#EFB6AF" d="M1777.8,922c-0.1,0.2-0.2,0.4-0.2,0.6c-2.2,4.5-8.8,3.8-13.6,2.1c-9.6-3.6-19.2-8.8-29.4-8.1
			c-4,0.3-7.8,1.4-11.6,2.6c-15.2,4.6-30.5,9.1-45.7,13.7c-12.7,3.8-25.5,7.6-38.7,8.7c-9.9,0.8-20,0-29.7-2.3
			c-2.5-0.6-5-1.3-7.1-2.9c-4.1-3.1-5.4-8.8-4.6-13.9c0.7-4.3,3.7-14.5,8.9-15.4c3.8-0.7,10,4.1,13.5,5.3c13.7,4.7,28.9,6,43.2,4.4
			c28.9-3.2,57.2-18.6,85.7-12.9c2,0.4,4,0.9,5.9,1.5c0,0,0,0,0,0c1.7,0.5,3.5,1.1,5.2,1.7C1767.3,910.5,1773.7,917,1777.8,922z"/>
		<path fill="#40537E" d="M1607.2,855.8c2,0,4.3,0.2,5.6,1.7c0.7,0.8,0.9,1.9,1.2,3c2.5,11,4.9,22.5,2.5,33.6
			c-0.5,2-1.3,4.2-3.1,5.1c-0.9,0.4-2,0.5-3,0.5c-4,0.1-8,0.2-12,0.3c5.3,0.5,10.4,2.3,14.9,5c0.8,0.5,1.6,1,2,1.8
			c0.4,0.7,0.5,1.6,0.6,2.4c1.2,11.7-1.5,23.7-7.5,33.8c-0.9,1.5-2,3.1-3.5,3.9c-1.9,1-4.1,0.9-6.2,0.7c-20.6-1.5-41.2-2.9-61.5-6.3
			c-0.7-0.1-1.5-0.3-2-0.7c-0.6-0.6-0.8-1.5-0.9-2.3c-2.7-19.2,11.7-79.7,11.7-79.7c1.7-5.7,10.6-3.3,15.6-3.3
			C1576.6,855.6,1591.9,855.7,1607.2,855.8z"/>
		<path fill="#EFB6AF" d="M1435.5,982.2c0.8,0,1.5-0.2,2.2-0.5c9.8-5.3,15.8-16.8,21.1-27.6c2.7-5.6,5.5-11.2,6.6-17.5
			c1.1-6.2,0.3-13.2-3.4-18c-4.9-6.3-16-8.1-22.8-4.8c-9.2,4.5-6.4,18.8-10.2,28.2c-11,26.9-93.2,24.1-96.6,20.6
			c-2.7-2.8-3.8-7-5.6-10.6c-0.2-0.3-0.3-0.6-0.5-0.9c-2.5-4.1-8.8-2.3-8.8,2.5c0,3.7,0.4,7.4,1.1,11c0.5,2.5-1.1,5-3.7,5.5
			c-4.4,0.9-9.2,0.1-13.7-0.4c-5.5-0.6-12.6,0.6-14,6.6c0,0,0,0,0,0.1c-0.7,2.9,1.7,5.6,4.7,5.6H1435.5z"/>
		<path fill="#F49089" d="M1381,894.4c-0.9-1.9-1.8-4.1-0.9-6.8c4.1,1.2,7.5,3.9,11.1,5.9c1.1,0.6,2.4,1.1,1.4,3.3
			c-0.2,0.4-1.7,2.3-3.2,4c-1.4,1.6-3.9,1.4-5-0.4C1383.2,898.4,1381.8,896.1,1381,894.4z"/>
		<path fill="#EFB6AF" d="M1454.3,876.5c0,0-7.5,34.5-17.2,24.2c-2.9-3.2-5.8-5.9-8.2-8.2c-0.2-0.2-0.4-0.4-0.7-0.7
			c-3.4-3.1-8.7-3.1-11.9,0.1c-0.3,0.3-0.6,0.7-0.9,1.1c0,0.1-0.1,0.1-0.1,0.1c-2.2,3.2-5,5.7-8.9,6.7c-2,0.6-4.3,0.7-7,0.4
			c-0.1,0-0.2,0-0.3,0c-1.4-0.2-2.9-0.5-4.5-0.9c-3.1-0.9-6.5-2.3-10.5-4.3c-23.6-12.1-13.9-48.2,6.7-54.2
			C1411.5,834.7,1454.3,876.5,1454.3,876.5z"/>
		<path fill="#FFFFFF" d="M1406.5,899c0,0.3,0,0.5,0,0.8c-2,0.6-4.3,0.7-7,0.4c-0.1,0-0.2,0-0.3,0c0.1-0.8,0.1-1.7,0.3-2.5
			c0.3-1.3,1.3-2.4,2.5-2.8c1.2-0.4,2.7-0.1,3.6,0.9C1406.3,896.7,1406.5,897.9,1406.5,899z"/>
		<path fill="#FFF083" d="M1418.6,875.1c-4.5,1.6-9.1,2.7-13.8,3.4c0.5-3.1-0.5-6.4-2.7-8.7c-2.2-2.2-5.5-3.3-8.7-2.8
			c-1.5,0.3-3.1,1-3.6,2.4c-0.4,1-0.1,2.2-0.4,3.3c-0.6,2-3,2.9-5.1,3.2c-2.1,0.3-4.4,0.3-6,1.7c-1,0.9-1.5,2.1-2.2,3.3
			c-2.1,3.5-5.9,6-9.9,6.6c-0.5,0.1-1.1,0.1-1.5-0.2c-0.5-0.3-0.7-1-0.8-1.6c-0.3-2.1-0.3-4.3,0-6.5c-2.8,1-6.2-1.5-5.9-4.5
			c0.1-1.1,0.6-2.2,1.1-3.1c1.4-2.7,3.1-5.3,5-7.7c-2-1-4.2-2.2-4.8-4.4c-0.6-2.4,1-4.7,2.6-6.5c2.9-3.1,6.2-5.8,9.8-7.9
			c0.6-0.3,1.2-0.7,1.5-1.3c0.4-0.9-0.2-2-0.4-3c-0.3-1.8,1-3.5,2.5-4.4c1.6-0.8,3.5-1,5.3-0.9c2.3,0.1,4.6,0.3,6.9,0.8
			c1.5,0.3,3.1,0.7,4.5,0.2c1.4-0.6,2.3-2,3.5-2.9c2.7-2,6.6-1,9.3,1c2.7,2,4.7,4.8,7.3,6.9c3.3,2.7,18.4,7.5,16.5,12.5
			c-0.5,1.4-2.8,3.1-3.8,4.4c-1.2,1.6-2.3,3.4-3.2,5.2C1420.1,867.1,1419,871.1,1418.6,875.1z"/>
		<path fill="#F49089" d="M1465.7,899.5c0.5,0.6,0.9,1.3,1.3,2c0.7,1.2,1.4,2.5,2,3.7c0.8,1.4,1.5,2.8,1.6,4.4
			c-0.8,0.1-1.6-0.4-2.2-1c-0.6-0.6-0.9-1.4-1.3-2.1c-0.9-1.7-2.1-3.4-3.4-4.9c-1.2-1.4-4-2.7-4.8-4.2c-0.7-1.1,0.3-1.9,1.7-1.7
			C1462.2,895.9,1464.7,898.3,1465.7,899.5z"/>
		<path fill="#F49089" d="M1483.3,854.9c1.6-0.2,3.3-0.6,4.7-1.5c-1-0.7-2.3-0.7-3.6-0.7c-3.8-0.1-7.7-0.1-11.5,0.1
			c-3.7,0.2-7,3.1-1.2,3C1475.6,855.8,1479.5,855.5,1483.3,854.9z"/>
		<path fill="#EFB6AF" d="M1778.9,861.8c-14.7,11.9-42.3-7.5-42.3-7.5s-4.2-14.3,14-13.6c3,0.1,5.9,0.7,8.7,1.5
			c7.9,2.4,14.4,7.2,18.6,10.8c0.5,0.4,0.9,0.8,1.3,1.2C1781.5,856.3,1781.3,859.9,1778.9,861.8z"/>
		<path fill="#EFB6AF" d="M1779.3,932.5c-14.9,11.6-44.8-15.9-44.8-15.9s-2.1-12.4,16.1-11.7c1.3,0,2.6,0.2,3.8,0.5c0,0,0,0,0,0
			c1.8,0.4,3.5,1,5.2,1.7c7.7,3.3,14.1,9.9,18.1,14.9c1,1.3,1.9,2.4,2.6,3.4C1782,927.7,1781.5,930.8,1779.3,932.5z"/>
		<path fill="#EFB6AF" d="M1454.3,844.4c0,0,47.5-53.5,79.3-49.4c31.8,4.2,59.8,54.8,59.8,54.8l-19.7,0c0,0-21.5-26.7-40.1-28.8
			c-18.7-2.1-37.6,31.1-37.6,31.1S1486.7,840.2,1454.3,844.4z"/>
	</g>
</g>
</svg>
