<?xml version="1.0" encoding="utf-8"?>
<!-- Generator: Adobe Illustrator 24.3.0, SVG Export Plug-In . SVG Version: 6.00 Build 0)  -->
<svg version="1.1" xmlns="http://www.w3.org/2000/svg" xmlns:xlink="http://www.w3.org/1999/xlink" x="0px" y="0px"
	 viewBox="0 0 500 500" enable-background="new 0 0 500 500" xml:space="preserve">
<g id="BACKGROUND">
	<g>
		<g>
			<rect fill="#F9E8D4" width="500" height="500"/>
		</g>
	</g>
</g>
<g id="OBJECTS">
	<g id="LINES">
		<path fill="#EB7350" d="M36.8,149.9c0.5-0.8,1.2-2,0.5-2.9c-0.5-0.5-1.5-0.3-1.8-1c0,0,0,0-0.1-0.1c0,0,0-0.1,0.1-0.1
			c0.4-0.5-0.5-1-0.9-0.5c-0.5,0.8-1.1,1.7-1.4,2.6c-0.2,0.7,0.4,1,0.9,1.3c0.6,0.4,1.4,0.8,2.2,0.8
			C36.5,150.2,36.7,150.1,36.8,149.9z M34.4,148.3c-0.1-0.1-0.2-0.2-0.2-0.2c0-0.1,0.1-0.3,0.2-0.4c0.1-0.3,0.3-0.5,0.4-0.8
			c0.3,0.3,0.8,0.5,1.3,0.7c0.1,0,0.4,0.1,0.5,0.2c0.1,0.4-0.2,0.9-0.5,1.3c-0.4-0.1-0.9-0.3-1.3-0.5
			C34.7,148.5,34.6,148.4,34.4,148.3z"/>
		<path fill="#EB7350" d="M52.6,110.1c0-0.1,0.1-0.1,0.1-0.2c0.3-0.6-0.6-1.1-0.9-0.5c-0.1,0.1-0.1,0.2-0.2,0.3
			c-0.3,0-0.5,0.3-0.6,0.6c0,0.1,0,0.1,0,0.2c-0.1,0.1-0.2,0.3-0.3,0.4c-0.4,0.6-0.4,1.4-0.4,2.1c0,0.3,0.2,0.5,0.5,0.5
			c0.5,0,1.1,0,1.6-0.1c0.9-0.2,0.9-1.1,0.8-1.8C53.3,111.2,53,110.6,52.6,110.1z M51.5,112.5c0-0.5,0.1-0.9,0.4-1.3
			c0-0.1,0.1-0.1,0.1-0.2c0,0,0,0,0,0c0.3,0.4,0.4,0.8,0.4,1.2C52.5,112.5,52,112.5,51.5,112.5z"/>
		<path fill="#EB7350" d="M64.3,170.1c-0.5,0-1.2,0.1-1.6-0.2c-0.5-0.4-1.2,0.3-0.7,0.7c0,0,0,0,0,0c-0.1,0.1-0.1,0.2-0.1,0.3
			c0-0.1-0.2,0.1-0.4,0.2c-0.2,0.2-0.5,0.4-0.6,0.6c-0.6,0.8-0.5,1.7-0.3,2.6c0.1,0.3,0.4,0.4,0.6,0.3c0.8-0.1,1.6-0.2,2.5-0.3
			c0.4-0.1,0.8-0.2,1-0.5c0.2-0.3,0.3-0.6,0.3-0.9c0.1-0.7,0.3-1.3,0.6-2c0.1-0.1,0-0.4-0.1-0.5C65.1,170.3,64.7,170.1,64.3,170.1z
			 M63.9,173.3C63.9,173.2,63.9,173.3,63.9,173.3c-0.3,0.1-0.4,0.1-0.6,0.2c-0.6,0.1-1.2,0.2-1.8,0.3c-0.1-0.7,0-1.3,0.6-1.7
			c0.4-0.3,0.7-0.5,0.8-1c0.1,0,0.1,0.1,0.2,0.1c0.4,0,0.9,0,1.4,0.1c-0.2,0.4-0.3,0.9-0.4,1.3C64,172.7,63.9,173.1,63.9,173.3z"/>
		<path fill="#EB7350" d="M39.4,221.4c-0.3-0.5-1-0.2-0.9,0.3c-0.5-0.2-0.9-0.4-1.4-0.3c-1.2,0.4-1.6,2.4-1.9,3.4
			c-0.1,0.3,0.2,0.6,0.5,0.6c1.5,0,3,0,4.4,0.6c0.3,0.1,0.6,0,0.7-0.3c0.4-0.9,0.8-2.1,0.2-3C40.6,222.2,39.8,222.1,39.4,221.4z
			 M37.5,222.4c0.5,0.1,1,0.4,1.5,0.4c0.1,0,0.2,0,0.3-0.1c0.2,0.1,0.3,0.2,0.5,0.3c0.7,0.4,0.5,1.3,0.2,1.9
			c-1.2-0.4-2.5-0.5-3.7-0.5C36.5,223.7,37,222.3,37.5,222.4z"/>
		<path fill="#EB7350" d="M253.5,58.4c-0.1-0.8-0.9-1.3-1.6-1.5c-0.4-0.1-0.7-0.2-1.1-0.2c-0.2-0.2-0.6-0.3-0.8,0
			c-0.8,0.1-1.6,0.2-2.4,0.5c-0.6,0.2-0.4,1.1,0.3,1c0.4-0.1,0.7-0.2,1.1-0.3c-0.1,0.1-0.2,0.2-0.4,0.4c-0.5,0.6-0.7,1.3-0.7,2.1
			c0,0.3,0.2,0.5,0.5,0.5c1.3,0.1,2.7,0.1,4-0.5C253,60,253.6,59.2,253.5,58.4z M248.9,59.9c0.1-0.5,0.3-0.9,0.7-1.3
			c0.3-0.3,0.6-0.6,0.8-0.9c0.3,0,0.5,0,0.8,0.1c0.5,0.1,1.1,0.3,1.3,0.8c0.1,0.4-0.6,0.8-0.9,0.9C250.8,59.9,249.8,59.9,248.9,59.9
			z"/>
		<path fill="#EB7350" d="M248.8,39.9c0.1-0.2,0.1-0.5-0.2-0.7c-0.7-0.4-1.5-0.8-2.3-0.6c-0.9,0.1-1.7,0.5-2.6,0.6c-0.6,0-0.6,1,0,1
			c0.3,0,0.5-0.1,0.8-0.1c-0.1,1-0.5,1.9-0.6,2.9c0,0.4,0.4,0.6,0.8,0.4c0.8-0.4,1.8-0.7,2.5-1.2C247.9,41.7,248.4,40.7,248.8,39.9z
			 M246.5,41.4c-0.5,0.3-1,0.5-1.6,0.8c0.2-0.8,0.5-1.5,0.5-2.4c0.1,0,0.2,0,0.3-0.1c0.7-0.2,1.3-0.2,1.9,0.1
			C247.4,40.5,247.1,41.1,246.5,41.4z"/>
		<path fill="#EB7350" d="M229.3,144.6c-0.5,0.6-0.7,1.3-0.9,2c-0.2,0.9-0.9,1.1-1.8,1.2c-0.4-0.7-0.9-1.8-0.1-2.2
			c0.8-0.3,1.5-0.4,2.1-1c0.5-0.4-0.2-1.1-0.7-0.7c-0.7,0.6-1.7,0.5-2.4,1.1c-1,0.9-0.1,2.6,0.3,3.5c0.1,0.2,0.3,0.3,0.4,0.2
			c1,0,2.2-0.2,2.7-1.2c0.4-0.7,0.3-1.7,1-2.3C230.5,144.9,229.8,144.2,229.3,144.6z"/>
		<path fill="#EB7350" d="M460.7,147.4c0.8,0.5,2.9,1.9,3.8,0.8c0.3-0.4,0.3-0.8,0.4-1.3c0.1-0.6,0.2-1.2,0.5-1.7
			c0.3-0.5-0.5-1-0.9-0.5c-0.5,0.8-0.5,1.6-0.7,2.5c0,0.2,0,0.4-0.3,0.4c-0.7-0.1-1.3-0.5-1.9-0.8c0.7-1.5,1.9-2.3,3.1-3.4
			c0.5-0.5-0.2-1.2-0.7-0.7c-1.4,1.3-2.8,2.3-3.5,4.2C460.4,147.1,460.6,147.3,460.7,147.4z"/>
		<path fill="#EB7350" d="M478.1,163.2c0.3-0.4-0.3-1-0.8-0.6c-0.9,0.7-1.8,1.7-2,2.9c-0.1,0.7,0,1.4,0.7,1.8c0.7,0.3,1.4,0,1.9-0.5
			c0.8-0.8,1-2.1,1-3.1C478.8,163.2,478.4,163.1,478.1,163.2z M477.8,163.7c0,0.8-0.1,1.6-0.6,2.3c-0.1,0.2-0.3,0.3-0.5,0.4
			c-0.1,0-0.2,0-0.4,0c0,0,0,0-0.1-0.1c0,0-0.1-0.1-0.1-0.1c-0.1-0.2,0-0.4,0-0.6c0.2-0.8,0.9-1.5,1.6-2.1
			C477.9,163.5,477.8,163.6,477.8,163.7z"/>
		<path fill="#EB7350" d="M441.9,64.1c-0.2,0.4-0.4,0.8-0.6,1.2c-0.4-0.3-1,0.2-0.7,0.7c0.1,0.2,0.2,0.3,0.3,0.5
			c-0.1,0.4-0.2,0.8-0.2,1.2c0,0.6,0.1,1.4,0.6,1.8c0.6,0.4,1.1-0.3,1.2-0.9c0.1-0.7-0.2-1.5-0.5-2.2c0.2-0.6,0.5-1.2,0.9-1.8
			C443.1,64,442.2,63.5,441.9,64.1z"/>
		<path fill="#4E557A" d="M429,38.5c-2,0-4,0-6,0c-2.2,0-2.5-2.4-4.5-2.6c-0.9-0.1-1.7,0.6-2.1,1.3c-0.5,0.7-0.8,1.4-1.3,2.1
			c-1.3,2.2-3.5,0.4-3.6-1.6c0-0.4-0.4-0.6-0.8-0.4c-3.1,1.8-6.6,3.8-10.2,2c-0.6-0.3-1.1,0.6-0.5,0.9c3.6,1.9,7.2,0.3,10.5-1.6
			c0.2,1.3,0.9,2.4,2.3,2.9c1.5,0.6,2.6-1,3.3-2.1c0.6-1,1.5-3.4,3.2-2.1c0.9,0.7,1.1,1.6,2.2,2.1c0.8,0.4,2,0.1,2.9,0.1
			c1.5,0,3.1,0,4.6,0C429.6,39.5,429.6,38.5,429,38.5z"/>
		<path fill="#EB7350" d="M473.7,323.8c-1.1,0-2.2,0.2-3.3,0.4c-1.6,0.2-2.4-0.7-3.9-1c-1.1-0.3-2.5,2.1-3.1,1.5
			c-2.8-2.7-5.1-1-7.4,1.3c-0.5,0.5,0.2,1.2,0.7,0.7c0.7-0.7,1.4-1.4,2.2-2c1.6-1.2,3.2,0.2,4.4,1.4c0.2,0.2,0.5,0.2,0.7,0
			c0.7-0.7,1.7-2.2,2.8-1.5c0.6,0.4,1.4,0.6,2.1,0.7c1.5,0.2,3.2-0.3,4.8-0.4C474.3,324.8,474.3,323.8,473.7,323.8z"/>
		<path fill="#EB7350" d="M203.5,353.9c-5.5,1.6-11-2.1-16.1,1.4c-0.5,0.4,0,1.2,0.5,0.9c4.9-3.4,10.5,0.3,15.9-1.3
			C204.4,354.6,204.2,353.7,203.5,353.9z"/>
		<path fill="#EB7350" d="M272.3,280.2c0.6-0.1,0.6-1.1,0-1c-3.7,0.4-7.6-1.4-11.2-0.6c-0.9,0.2-1.8,0.6-2.8,0.2
			c-0.7-0.3-1.5-0.6-2.3-0.6c-2,0-3.9,0.6-5.8,1.1c-0.6,0.1-0.4,1.1,0.3,1c2-0.4,4-1.2,6.1-0.9c0.9,0.1,1.5,0.7,2.3,0.9
			c0.5,0.1,1.3-0.4,1.8-0.5C264.3,278.6,268.5,280.5,272.3,280.2z"/>
		<path fill="#EB7350" d="M279.9,218.8c0.6-0.3,1.2-0.7,1.8-1c0.4-0.2,0.9-0.5,1.3-0.7c1.1-0.5,0.8,1.1,0.8,1.9
			c0,0.4,0.4,0.6,0.8,0.4c4.3-2.1,9.6-2.9,13.4,0.6c0.5,0.4,1.2-0.3,0.7-0.7c-4-3.7-9.3-3.1-13.9-1.1c-0.1-0.8-0.2-1.5-0.7-2.2
			c-0.1-0.2-0.3-0.3-0.6-0.2c-1.4,0.3-2.9,1.3-4.1,2.1C278.9,218.2,279.4,219.1,279.9,218.8z"/>
		<path fill="#EB7350" d="M96.7,307.3c-0.4-0.5-1.1,0.2-0.7,0.7c6.1,7.4,12.4,15.1,15.2,24.4c0.2,0.6,1.1,0.4,1-0.3
			C109.3,322.7,102.9,314.9,96.7,307.3z"/>
		<path fill="#EB7350" d="M115.5,338.9c-0.2-0.6-1.2-0.3-1,0.3c1.4,3.4,3.5,6.3,6.1,8.9c0.5,0.5,1.2-0.2,0.7-0.7
			C118.9,344.8,116.8,342.1,115.5,338.9z"/>
		<path fill="#EB7350" d="M119.3,333.4c0.4,0.5,1.2-0.2,0.7-0.7c-1.4-1.5-2.5-3.2-3.2-5.1c-0.2-0.6-1.2-0.3-1,0.3
			C116.6,329.9,117.8,331.8,119.3,333.4z"/>
		<path fill="#EB7350" d="M312.3,386.5c-13.1,0-26.2,0-39.3,0c-0.6,0-0.6,1,0,1c13.1,0,26.2,0,39.3,0
			C313,387.5,313,386.5,312.3,386.5z"/>
		<path fill="#EB7350" d="M273,381.2c-3.1,0-6.1-0.1-9.2-0.6c-0.6-0.1-0.9,0.8-0.3,1c3.1,0.6,6.3,0.7,9.5,0.7
			C273.6,382.2,273.6,381.2,273,381.2z"/>
		<path fill="#EB7350" d="M404.8,462.2c-0.2-0.6-1.1-0.4-1,0.3c2,7.1,4,14.2,6,21.3c0.2,0.6,1.1,0.4,1-0.3
			C408.9,476.4,406.8,469.3,404.8,462.2z"/>
		<path fill="#EB7350" d="M468.8,453.4c-0.2-0.3-0.5-0.3-0.8-0.1c-1.5,1.2-2.9,2.8-4.7,1.8c-1.7-0.9-2.1-0.3-3.9,0.4
			c-1.6,0.6-3,0.3-4.6,0.2c-1.5-0.1-2.8,0.7-4,1.5c-0.5,0.4,0,1.2,0.5,0.9c1.9-1.3,3.2-1.4,5.3-1.2c0.7,0.1,1.3,0,1.9-0.1
			c0.8-0.1,2.7-1.4,3.4-1.2c1,0.3,1.6,1,2.7,1c1.3-0.1,2.6-1.3,3.6-2.2c0.9,1.1,2.2,1.7,3,2.9c0.4,0.5,1.2,0,0.9-0.5
			C471.2,455.4,469.6,454.8,468.8,453.4z"/>
		<path fill="#EB7350" d="M461.9,405.6c0.7,1.2,3.3-0.5,4-0.8c0.2-0.1,0.3-0.4,0.2-0.6c-0.8-2.2-3.2-1.3-4.9-2.3
			c-0.6-0.3-1.1,0.5-0.5,0.9c0.4,0.2,0.8,0.4,1.2,0.5C462.2,404,461.5,404.8,461.9,405.6z M463,403.5c0.7,0.1,1.5,0,2,0.6
			c-0.6,0.3-1.3,0.6-2,0.8c-0.1,0-0.2,0-0.2,0c0,0,0-0.1,0-0.1c0.1-0.5,0.2-0.9,0.2-1.4C463,403.5,463,403.5,463,403.5z"/>
		<path fill="#EB7350" d="M374.3,377.2c-0.6,0-0.6,1,0,1c2.8,0,16.5-3.3,16.2,1.5c0,0.6,1,0.6,1,0
			C391.9,373.2,377.6,377.1,374.3,377.2z"/>
		<path fill="#EB7350" d="M166,288.6c-0.5-0.4-1.2,0.3-0.7,0.7c0.8,0.7,2.7,2.2,2.3,3.5c-0.1,0.5-0.9,0.6-1.3,0.6
			c-0.9,0.1-1.7,0-2.6-0.2c0.6-1.1,1.8-1.6,2.4-2.7c0.3-0.6-0.6-1.1-0.9-0.5c-0.3,0.6-0.9,1-1.4,1.4c-0.6,0.5-1,1.2-1.3,2
			c-0.1,0.2,0.1,0.6,0.3,0.6c1.5,0.3,4.7,1,5.6-0.8C169.4,291.6,167.1,289.6,166,288.6z"/>
		<path fill="#EB7350" d="M173.8,362.3c0,0.5,0.1,0.9,0.1,1.3c0.1,0.6-0.1,1-0.4,1.4c-0.5-0.3-0.9-0.6-0.6-1.3
			c0.3-0.7,0.5-1.3,0.6-2c0-0.6-1-0.6-1,0c0,0.9-0.6,1.6-0.7,2.5c-0.1,1,0.9,1.6,1.6,2c0.2,0.1,0.4,0.1,0.6-0.1c0.5-0.5,0.9-1,1-1.7
			c0.1-0.7-0.1-1.3-0.1-2C174.8,361.7,173.8,361.7,173.8,362.3z"/>
		<path fill="#EB7350" d="M166,348.6c-0.4-0.4-1,0.1-0.8,0.6c-0.6-0.3-1.1,0.6-0.5,0.9c0.4,0.2,0.8,0.4,1.2,0.6
			c0.3,0.1,0.6,0.3,0.9,0.2C167.9,350.4,166.4,349,166,348.6z"/>
		<path fill="#EB7350" d="M37.2,255.7c0,0.1,0,0.1,0,0.2c-0.3-0.1-0.8,0.2-0.6,0.6c0.1,0.4,0.5,2.6,1.4,1.7c0.2-0.2,0.2-0.6,0.2-0.9
			c0-0.5,0-1.1,0-1.7C38.2,255,37.2,255,37.2,255.7z"/>
		<path fill="#EB7350" d="M140.2,41.9c-1.2,0.2-2.3-0.6-3.4-0.4c-0.9,0.2-1.4,0.8-1.9,1.5c-1-0.7-1.9-1.7-3-2.4
			c-0.7-0.4-2,0.6-2.7,0.8c-3,0.8-6.2,0-9,1.2c-0.6,0.2-0.3,1.2,0.3,1c2.4-1,5-0.6,7.5-0.9c1.1-0.2,2.2-0.3,3.2-0.8
			c0.9-0.4,2.8,1.8,3.6,2.3c0.2,0.1,0.5,0,0.7-0.2c1.4-2.1,3-0.8,5-1.1C141.1,42.7,140.8,41.7,140.2,41.9z"/>
		<path fill="#EB7350" d="M20.3,48c-0.2,0-0.8,0.2-1,0c-0.1-0.2-0.4-0.2-0.6-0.1c-0.2,0.1-0.4,0.4-0.2,0.7c0,0,0,0,0,0
			c0.2,0.5-0.2,1-0.3,1.5c-0.1,0.8,0.6,1.2,1.3,1.4c0.3,0.1,0.6-0.2,0.6-0.5c0-0.3,0.5-0.4,0.7-0.6c0.3-0.2,0.6-0.4,0.7-0.8
			c0.1-0.4,0.2-1-0.1-1.3C21.1,48,20.7,48,20.3,48z M20.1,49.8c-0.3,0.2-0.5,0.4-0.7,0.6c0,0,0,0,0,0c-0.1,0-0.1-0.1-0.1-0.1
			c0-0.2,0.1-0.4,0.2-0.5c0.1-0.3,0.2-0.5,0.2-0.7c0.3,0,0.7-0.1,1,0c0,0,0,0,0,0.1C20.6,49.4,20.4,49.6,20.1,49.8z"/>
		<path fill="#EB7350" d="M281.4,39.8C281.4,39.8,281.4,39.8,281.4,39.8c0.3,0,0.5-0.2,0.6-0.4c0.2-0.4,0.2-0.6,0.2-1
			c0-0.1,0-0.2,0-0.3c0,0,0,0,0,0c0,0,0,0,0-0.1c-0.1-0.2-0.4-0.2-0.6-0.2c0,0-0.1,0-0.1,0c0,0,0,0-0.1,0c0,0-0.1,0.1-0.1,0.1
			c0,0,0,0,0,0c0,0,0,0,0,0.1c-0.2,0.6-0.3,0.6-0.3,1.1C280.9,39.6,281.1,39.8,281.4,39.8z"/>
		<path fill="#EB7350" d="M386,28c-0.2,0.2-0.2,0.6,0.1,0.7c0.5,0.2,1.4,0.7,1.5-0.2c0.1-0.5-0.6-1-0.9-1.3
			C386.2,26.9,385.5,27.6,386,28C386,28,386,28,386,28z M386.6,28.7C386.6,28.7,386.6,28.7,386.6,28.7L386.6,28.7z"/>
		<path fill="#EB7350" d="M469.2,204.5c-0.1,0.5-0.1,0.8,0.3,1.1c0.4,0.3,0.9,0.6,1.5,0.6c0.2,0,0.4-0.1,0.4-0.2
			c0.3-0.6,0.3-1.2-0.2-1.7c-0.1-0.1-0.2-0.2-0.4-0.3c0.3-0.3,0.6-0.5,0.7-1c0-0.6-1-0.6-1,0c0,0.1-0.3,0.3-0.5,0.4
			c-0.3-0.3-0.9-0.2-0.9,0.3c0,0.2,0.1,0.4,0.2,0.5C469.3,204.3,469.3,204.4,469.2,204.5z M470.6,205c-0.1-0.1-0.2-0.1-0.4-0.2
			c0,0,0,0,0,0C470.4,204.8,470.5,204.9,470.6,205z"/>
		<path fill="#EB7350" d="M461.9,107c-0.5,0-1.2,0.1-1.6-0.2c-0.5-0.4-1.2,0.3-0.7,0.7c0,0,0,0,0,0c-0.1,0.1-0.1,0.2-0.1,0.3
			c0-0.1-0.2,0.1-0.4,0.2c-0.2,0.2-0.5,0.4-0.6,0.6c-0.6,0.8-0.5,1.7-0.3,2.6c0.1,0.3,0.4,0.4,0.6,0.3c0.8-0.1,1.6-0.2,2.5-0.3
			c0.4-0.1,0.8-0.2,1-0.5c0.2-0.3,0.3-0.6,0.3-0.9c0.1-0.7,0.3-1.3,0.6-2c0.1-0.1,0-0.4-0.1-0.5C462.6,107.2,462.3,107.1,461.9,107z
			 M461.4,110.2C461.4,110.2,461.4,110.2,461.4,110.2c-0.3,0.1-0.4,0.1-0.6,0.2c-0.6,0.1-1.2,0.2-1.8,0.3c-0.1-0.7,0-1.3,0.6-1.7
			c0.4-0.3,0.7-0.5,0.8-1c0.1,0,0.1,0,0.2,0.1c0.4,0,0.9,0,1.4,0.1c-0.2,0.4-0.3,0.9-0.4,1.3C461.5,109.6,461.5,110.1,461.4,110.2z"
			/>
		<g>
			<path fill="#EB7350" d="M263.7,387.7c-3.3,0.7-7.3,0.7-10.7,0.7"/>
			<g>
				<path fill="#EB7350" d="M263.5,387.2c-3.5,0.6-7,0.6-10.5,0.6c-0.6,0-0.6,1,0,1c3.6,0,7.2,0,10.8-0.7
					C264.4,388,264.2,387.1,263.5,387.2L263.5,387.2z"/>
			</g>
		</g>
	</g>
	<g id="GIRL_SUNBATHING">
		<path opacity="0.4" fill="#EB7350" d="M258.9,256.9c-0.5-1.3-1.2-2.5-2-3.5c-15.1-28.2-95.5-162-101.7-168.6c0,0-0.1,0-0.3,0.1
			c-0.5-0.7-0.9-1.4-1.1-2.2c-0.2-0.6-1.1-0.3-0.9,0.3c0.3,0.8,0.7,1.6,1.2,2.3c-0.4,0.2-1,0.4-1.7,0.7c-0.5-0.9-1.3-1.7-2-2.5
			c-0.4-0.4-1.1,0.2-0.7,0.7c0.7,0.7,1.4,1.4,1.8,2.2c-0.7,0.3-1.5,0.7-2.4,1c-0.5-0.7-1-1.4-1.6-2c-0.4-0.4-1.1,0.2-0.7,0.7
			c0.5,0.5,1,1.1,1.4,1.7c-0.7,0.3-1.4,0.6-2.2,1c-0.6-0.6-1.3-1.1-2-1.5c-0.5-0.3-1,0.5-0.5,0.8c0.5,0.4,1,0.7,1.5,1.1
			c-0.8,0.3-1.6,0.7-2.5,1.1c-0.6-0.7-1.1-1.4-1.7-2c-0.4-0.4-1.1,0.2-0.7,0.7c0.5,0.6,1,1.2,1.5,1.8c-0.6,0.3-1.2,0.5-1.8,0.8
			c-0.5-0.5-0.9-1.1-1.3-1.7c-0.3-0.5-1.1-0.1-0.8,0.5c0.3,0.6,0.7,1.1,1.2,1.6c-0.6,0.3-1.2,0.5-1.9,0.8c-0.5-0.7-1-1.3-1.4-2
			c-0.3-0.5-1.1-0.1-0.8,0.5c0.4,0.7,0.8,1.3,1.3,1.9c-0.7,0.3-1.5,0.7-2.3,1c-0.4-0.5-0.7-1.1-1.1-1.6c-0.4-0.4-1.1,0.2-0.7,0.7
			c0.4,0.4,0.6,0.8,0.9,1.3c-0.5,0.2-1,0.5-1.5,0.7c-0.7-0.5-1.2-1.1-1.4-1.9c-0.2-0.6-1.1-0.3-0.9,0.3c0.3,0.9,0.8,1.6,1.4,2.1
			c-0.6,0.3-1.2,0.5-1.9,0.8c-0.4-0.9-0.9-1.7-1.6-2.5c-0.4-0.4-1.1,0.2-0.7,0.7c0.6,0.6,1.1,1.4,1.4,2.2c-0.5,0.2-1.1,0.5-1.6,0.7
			c-0.6-0.7-1.3-1.5-2-2.1c-0.4-0.4-1.1,0.2-0.7,0.7c0.6,0.6,1.2,1.2,1.7,1.9c-0.7,0.3-1.5,0.7-2.2,1c-0.8-0.8-1.4-1.8-2.1-2.6
			c-0.4-0.4-1.1,0.2-0.7,0.7c0.7,0.7,1.3,1.6,1.9,2.3c-0.7,0.3-1.3,0.6-2,0.9c-0.5-1-1-1.9-1.6-2.8c-0.3-0.5-1.2,0-0.8,0.5
			c0.6,0.9,1.1,1.8,1.5,2.7c-0.9,0.4-1.9,0.9-2.8,1.3c-0.5-0.5-0.9-1-1.2-1.7c0,0,0,0-0.1-0.1c0,0,0,0,0,0c-0.1-0.1-0.2-0.1-0.3-0.1
			c0,0,0,0,0,0c0,0,0,0,0,0c0,0,0,0-0.1,0c-0.2,0-0.3,0.2-0.4,0.3c0,0.1,0,0.2,0,0.3c0,0,0,0,0,0c0,0,0,0,0,0.1
			c0.3,0.6,0.7,1.1,1.1,1.6c-0.2,0.1-0.5,0.2-0.7,0.3c-0.7-0.7-1.3-1.3-2-2c-0.4-0.4-1.1,0.2-0.7,0.7c0.6,0.6,1.2,1.2,1.8,1.8
			c-1.1,0.5-2.3,1-3.4,1.5c-0.8-1.1-1.6-2.1-2.5-3c-0.4-0.4-1.1,0.2-0.7,0.7c0.8,0.9,1.6,1.8,2.3,2.8c-0.8,0.4-1.6,0.8-2.5,1.1
			c-0.5-0.7-1-1.4-1.4-2.1c-0.3-0.5-1.1-0.1-0.8,0.5c0.4,0.7,0.9,1.4,1.4,2c-0.7,0.3-1.4,0.7-2.1,1c-0.8-1-1.4-2.1-1.7-3.4
			c-0.2-0.6-1.1-0.3-0.9,0.3c0.4,1.3,1,2.5,1.8,3.5c-0.8,0.4-1.6,0.8-2.5,1.2c-0.5-0.5-1-1.1-1.3-1.7c0,0,0,0-0.1-0.1c0,0,0,0,0,0
			c-0.1-0.1-0.2-0.1-0.3-0.1c0,0,0,0,0,0c0,0,0,0,0,0c0,0,0,0,0,0c-0.2,0-0.3,0.2-0.4,0.3c0,0.1,0,0.2,0,0.3c0,0,0,0,0,0
			c0,0,0,0,0,0.1c0.3,0.6,0.8,1.2,1.2,1.7c-0.8,0.4-1.6,0.8-2.4,1.1c-0.5-0.7-1-1.4-1.3-2.3c-0.2-0.6-1.1-0.3-0.9,0.3
			c0.3,0.9,0.8,1.7,1.4,2.4c-0.7,0.3-1.4,0.7-2,1c-0.4-0.7-0.8-1.4-1.4-2c-0.4-0.4-1.1,0.2-0.7,0.7c0.5,0.5,0.8,1.1,1.2,1.7
			c-0.7,0.3-1.3,0.7-1.9,1c-0.5-0.7-1-1.5-1.4-2.3c-0.3-0.5-1.1-0.1-0.8,0.5c0.4,0.8,0.9,1.5,1.3,2.2c-0.6,0.3-1.1,0.6-1.6,0.8
			c-0.3-0.6-0.5-1.4-0.8-2c-0.2-0.6-1.1-0.3-0.9,0.3c0.2,0.7,0.5,1.5,0.8,2.2c-0.6,0.3-1.2,0.6-1.8,0.9c-0.4-0.9-0.7-1.9-1-2.9
			c-0.2-0.6-1.1-0.3-0.9,0.3c0.5,1.7,1,3.4,2,4.9c0,0,0,0.1,0.1,0.1c6.8,20.3,42.8,81.6,59.8,111.5c17.6,30.9,35.2,60.9,35.2,60.9
			s0.5-0.2,1.5-0.7c0.1,0.4,0.3,0.8,0.4,1.3c0.2,0.6,1.1,0.3,0.9-0.3c-0.2-0.5-0.3-0.9-0.5-1.4c0.3-0.1,0.7-0.3,1.1-0.5
			c0.3,0.9,0.6,1.7,0.9,2.6c0.2,0.6,1.1,0.3,0.9-0.3c-0.3-0.9-0.6-1.8-0.9-2.8c0.4-0.2,0.9-0.4,1.4-0.6c0.5,0.9,1,1.9,1.5,2.8
			c0.3,0.5,1.2,0,0.8-0.5c-0.6-0.9-1-1.8-1.5-2.7c0.7-0.3,1.4-0.6,2.2-1c0.4,0.8,0.9,1.5,1.3,2.3c0.3,0.5,1.1,0.1,0.8-0.5
			c-0.4-0.8-0.8-1.5-1.3-2.2c0.7-0.3,1.3-0.6,2.1-0.9c0.5,0.8,1.1,1.5,1.9,1.9c0.5,0.3,1-0.5,0.5-0.8c-0.6-0.3-1.1-0.9-1.5-1.5
			c0.9-0.4,1.7-0.8,2.6-1.2c0.4,1,0.9,2,1.5,2.9c0.3,0.5,1.2,0,0.8-0.5c-0.6-0.9-1.1-1.8-1.5-2.8c0.5-0.2,0.9-0.4,1.4-0.6
			c0.5,0.8,1.2,1.6,1.7,2.5c0.3,0.5,1.1,0.1,0.8-0.5c-0.5-0.9-1.1-1.6-1.6-2.4c0.5-0.2,1-0.5,1.6-0.7c0.8,1.1,1.6,2.2,2.6,3.2
			c0.4,0.4,1.1-0.2,0.7-0.7c-0.9-0.9-1.7-1.9-2.4-3c0.6-0.3,1.2-0.6,1.9-0.9c0.6,0.9,1.1,1.8,1.8,2.6c0.4,0.4,1.1-0.2,0.7-0.7
			c-0.7-0.7-1.1-1.5-1.6-2.3c0.6-0.3,1.2-0.6,1.8-0.9c0.7,0.7,1.3,1.3,2,2c0.4,0.4,1.1-0.2,0.7-0.7c-0.6-0.6-1.1-1.1-1.7-1.7
			c0.8-0.4,1.7-0.8,2.5-1.2c0.6,0.9,0.9,1.9,1.2,2.9c0.2,0.6,1.1,0.3,0.9-0.3c-0.3-1-0.7-2.1-1.3-3c0.6-0.3,1.2-0.6,1.8-0.9
			c0.5,0.9,1.2,1.7,2,2.5c0.4,0.4,1.1-0.2,0.7-0.7c-0.7-0.7-1.3-1.4-1.8-2.2c0.8-0.4,1.6-0.7,2.3-1.1c1,1.2,2,2.4,3.1,3.5
			c0.4,0.4,1.1-0.2,0.7-0.7c-1-1-1.9-2.2-2.9-3.3c0.7-0.3,1.3-0.6,2-1c0.5,1.3,1.2,2.5,2.1,3.5c0.4,0.4,1.1-0.2,0.7-0.7
			c-0.8-0.9-1.5-2-1.9-3.2c0.5-0.2,1-0.5,1.5-0.7c0.3,0.6,0.7,1.2,1.2,1.7c0.4,0.4,1.1-0.2,0.7-0.7c-0.4-0.4-0.7-1-1-1.5
			c0.5-0.2,1-0.5,1.4-0.7c0.3,0.7,0.7,1.3,1.2,1.9c0.4,0.4,1.1-0.2,0.7-0.7c-0.5-0.5-0.8-1-1.1-1.6c0.6-0.3,1.2-0.6,1.7-0.9
			c0.3,0.5,0.7,1.1,0.9,1.6c0.3,0.5,1.1,0.1,0.8-0.5c-0.3-0.5-0.6-1.1-0.9-1.6c0.5-0.3,1-0.5,1.5-0.8c0.5,0.6,1,1.2,1.4,1.9
			c0.3,0.5,1.2,0,0.8-0.5c-0.4-0.6-0.9-1.2-1.4-1.8c0.6-0.3,1.2-0.6,1.9-0.9c0.7,0.7,1.4,1.4,2,2.3c0.3,0.5,1.2,0,0.8-0.5
			c-0.6-0.8-1.3-1.5-2-2.2c0.5-0.3,1-0.5,1.5-0.8c0.6,1.2,1.6,2.1,2.5,3.1c0.4,0.4,1.1-0.2,0.7-0.7c-0.9-0.9-1.8-1.8-2.4-2.8
			c0.6-0.3,1.2-0.6,1.9-0.9c0.6,0.7,1.1,1.4,1.7,2.1c0.4,0.4,1.1-0.2,0.7-0.7c-0.6-0.6-1.1-1.2-1.6-1.8c0.8-0.4,1.6-0.8,2.3-1.2
			c0.7,0.9,1.4,1.9,1.8,3c0.2,0.6,1.1,0.3,0.9-0.3c-0.4-1.2-1.1-2.2-1.8-3.2c0.9-0.4,1.7-0.9,2.5-1.3c0.9,1.1,1.6,2.2,2.2,3.4
			c0.3,0.5,1.1,0.1,0.8-0.5c-0.6-1.2-1.4-2.3-2.2-3.4c0.6-0.3,1.1-0.6,1.6-0.9c0.5,0.8,0.8,1.8,1.1,2.7c0.2,0.6,1.1,0.3,0.9-0.3
			c-0.3-1-0.7-2-1.2-2.9c0.4-0.2,0.9-0.5,1.3-0.7c0.7,0.8,1.3,1.7,1.9,2.6c0.3,0.5,1.2,0,0.8-0.5c-0.6-0.9-1.3-1.7-1.9-2.5
			c0.8-0.4,1.6-0.9,2.3-1.3c0.6,0.8,1.1,1.6,1.7,2.4c0.3,0.5,1.2,0,0.8-0.5c-0.5-0.8-1.1-1.6-1.7-2.4c0.5-0.3,1-0.6,1.4-0.8
			c0.8,0.8,1.6,1.6,2.4,2.4c0.4,0.4,1.1-0.2,0.7-0.7c-0.7-0.7-1.5-1.5-2.2-2.2c0.7-0.4,1.4-0.9,2.1-1.3c0.7,0.9,1.3,1.9,1.7,3
			C258.2,257.7,259.1,257.5,258.9,256.9z"/>
		<path fill="#192730" d="M260.1,253.7c-0.5-1.3-1.2-2.5-2-3.5c-15.1-28.2-95.5-162-101.7-168.6c0,0-0.1,0-0.3,0.1
			c-0.5-0.7-0.9-1.4-1.1-2.2c-0.2-0.6-1.1-0.3-0.9,0.3c0.3,0.8,0.7,1.6,1.2,2.3c-0.4,0.2-1,0.4-1.7,0.7c-0.5-0.9-1.3-1.7-2-2.5
			c-0.4-0.4-1.1,0.2-0.7,0.7c0.7,0.7,1.4,1.4,1.8,2.2c-0.7,0.3-1.5,0.7-2.4,1c-0.5-0.7-1-1.4-1.6-2c-0.4-0.4-1.1,0.2-0.7,0.7
			c0.5,0.5,1,1.1,1.4,1.7c-0.7,0.3-1.4,0.6-2.2,1c-0.6-0.6-1.3-1.1-2-1.5c-0.5-0.3-1,0.5-0.5,0.8c0.5,0.4,1,0.7,1.5,1.1
			c-0.8,0.3-1.6,0.7-2.5,1.1c-0.6-0.7-1.1-1.4-1.7-2c-0.4-0.4-1.1,0.2-0.7,0.7c0.5,0.6,1,1.2,1.5,1.8c-0.6,0.3-1.2,0.5-1.8,0.8
			c-0.5-0.5-0.9-1.1-1.3-1.7c-0.3-0.5-1.1-0.1-0.8,0.5c0.3,0.6,0.7,1.1,1.2,1.6c-0.6,0.3-1.2,0.5-1.9,0.8c-0.5-0.7-1-1.3-1.4-2
			c-0.3-0.5-1.1-0.1-0.8,0.5c0.4,0.7,0.8,1.3,1.3,1.9c-0.7,0.3-1.5,0.7-2.3,1c-0.4-0.5-0.7-1.1-1.1-1.6c-0.4-0.4-1.1,0.2-0.7,0.7
			c0.4,0.4,0.6,0.8,0.9,1.3c-0.5,0.2-1,0.5-1.5,0.7c-0.7-0.5-1.2-1.1-1.4-1.9c-0.2-0.6-1.1-0.3-0.9,0.3c0.3,0.9,0.8,1.6,1.4,2.1
			c-0.6,0.3-1.2,0.5-1.9,0.8c-0.4-0.9-0.9-1.7-1.6-2.5c-0.4-0.4-1.1,0.2-0.7,0.7c0.6,0.6,1.1,1.4,1.4,2.2c-0.5,0.2-1.1,0.5-1.6,0.7
			c-0.6-0.7-1.3-1.5-2-2.1c-0.4-0.4-1.1,0.2-0.7,0.7c0.6,0.6,1.2,1.2,1.7,1.9c-0.7,0.3-1.5,0.7-2.2,1c-0.8-0.8-1.4-1.8-2.1-2.6
			c-0.4-0.4-1.1,0.2-0.7,0.7c0.7,0.7,1.3,1.6,1.9,2.3c-0.7,0.3-1.3,0.6-2,0.9c-0.5-1-1-1.9-1.6-2.8c-0.3-0.5-1.2,0-0.8,0.5
			c0.6,0.9,1.1,1.8,1.5,2.7c-0.9,0.4-1.9,0.9-2.8,1.3c-0.5-0.5-0.9-1-1.2-1.7c0,0,0,0-0.1-0.1c0,0,0,0,0,0c-0.1-0.1-0.2-0.1-0.3-0.1
			c0,0,0,0,0,0c0,0,0,0,0,0c0,0,0,0-0.1,0c-0.2,0-0.3,0.2-0.4,0.3c0,0.1,0,0.2,0,0.3c0,0,0,0,0,0c0,0,0,0,0,0.1
			c0.3,0.6,0.7,1.1,1.1,1.6c-0.2,0.1-0.5,0.2-0.7,0.3c-0.7-0.7-1.3-1.3-2-2c-0.4-0.4-1.1,0.2-0.7,0.7c0.6,0.6,1.2,1.2,1.8,1.8
			c-1.1,0.5-2.3,1-3.4,1.5c-0.8-1.1-1.6-2.1-2.5-3c-0.4-0.4-1.1,0.2-0.7,0.7c0.8,0.9,1.6,1.8,2.3,2.8c-0.8,0.4-1.6,0.8-2.5,1.1
			c-0.5-0.7-1-1.4-1.4-2.1c-0.3-0.5-1.1-0.1-0.8,0.5c0.4,0.7,0.9,1.4,1.4,2c-0.7,0.3-1.4,0.7-2.1,1c-0.8-1-1.4-2.1-1.7-3.4
			c-0.2-0.6-1.1-0.3-0.9,0.3c0.4,1.3,1,2.5,1.8,3.5c-0.8,0.4-1.6,0.8-2.5,1.2c-0.5-0.5-1-1.1-1.3-1.7c0,0,0,0-0.1-0.1c0,0,0,0,0,0
			c-0.1-0.1-0.2-0.1-0.3-0.1c0,0,0,0,0,0c0,0,0,0,0,0c0,0,0,0,0,0c-0.2,0-0.3,0.2-0.4,0.3c0,0.1,0,0.2,0,0.3c0,0,0,0,0,0
			c0,0,0,0,0,0.1c0.3,0.6,0.8,1.2,1.2,1.7c-0.8,0.4-1.6,0.8-2.4,1.1c-0.5-0.7-1-1.4-1.3-2.3c-0.2-0.6-1.1-0.3-0.9,0.3
			c0.3,0.9,0.8,1.7,1.4,2.4c-0.7,0.3-1.4,0.7-2,1c-0.4-0.7-0.8-1.4-1.4-2c-0.4-0.4-1.1,0.2-0.7,0.7c0.5,0.5,0.8,1.1,1.2,1.7
			c-0.7,0.3-1.3,0.7-1.9,1c-0.5-0.7-1-1.5-1.4-2.3c-0.3-0.5-1.1-0.1-0.8,0.5c0.4,0.8,0.9,1.5,1.3,2.2c-0.6,0.3-1.1,0.6-1.6,0.8
			c-0.3-0.6-0.5-1.4-0.8-2c-0.2-0.6-1.1-0.3-0.9,0.3c0.2,0.7,0.5,1.5,0.8,2.2c-0.6,0.3-1.2,0.6-1.8,0.9c-0.4-0.9-0.7-1.9-1-2.9
			c-0.2-0.6-1.1-0.3-0.9,0.3c0.5,1.7,1,3.4,2,4.9c0,0,0,0.1,0.1,0.1c6.8,20.3,42.8,81.6,59.8,111.5c17.6,30.9,35.2,60.9,35.2,60.9
			s0.5-0.2,1.5-0.7c0.1,0.4,0.3,0.8,0.4,1.3c0.2,0.6,1.1,0.3,0.9-0.3c-0.2-0.5-0.3-0.9-0.5-1.4c0.3-0.1,0.7-0.3,1.1-0.5
			c0.3,0.9,0.6,1.7,0.9,2.6c0.2,0.6,1.1,0.3,0.9-0.3c-0.3-0.9-0.6-1.8-0.9-2.8c0.4-0.2,0.9-0.4,1.4-0.6c0.5,0.9,1,1.9,1.5,2.8
			c0.3,0.5,1.2,0,0.8-0.5c-0.6-0.9-1-1.8-1.5-2.7c0.7-0.3,1.4-0.6,2.2-1c0.4,0.8,0.9,1.5,1.3,2.3c0.3,0.5,1.1,0.1,0.8-0.5
			c-0.4-0.8-0.8-1.5-1.3-2.2c0.7-0.3,1.3-0.6,2.1-0.9c0.5,0.8,1.1,1.5,1.9,1.9c0.5,0.3,1-0.5,0.5-0.8c-0.6-0.3-1.1-0.9-1.5-1.5
			c0.9-0.4,1.7-0.8,2.6-1.2c0.4,1,0.9,2,1.5,2.9c0.3,0.5,1.2,0,0.8-0.5c-0.6-0.9-1.1-1.8-1.5-2.8c0.5-0.2,0.9-0.4,1.4-0.6
			c0.5,0.8,1.2,1.6,1.7,2.5c0.3,0.5,1.1,0.1,0.8-0.5c-0.5-0.9-1.1-1.6-1.6-2.4c0.5-0.2,1-0.5,1.6-0.7c0.8,1.1,1.6,2.2,2.6,3.2
			c0.4,0.4,1.1-0.2,0.7-0.7c-0.9-0.9-1.7-1.9-2.4-3c0.6-0.3,1.2-0.6,1.9-0.9c0.6,0.9,1.1,1.8,1.8,2.6c0.4,0.4,1.1-0.2,0.7-0.7
			c-0.7-0.7-1.1-1.5-1.6-2.3c0.6-0.3,1.2-0.6,1.8-0.9c0.7,0.7,1.3,1.3,2,2c0.4,0.4,1.1-0.2,0.7-0.7c-0.6-0.6-1.1-1.1-1.7-1.7
			c0.8-0.4,1.7-0.8,2.5-1.2c0.6,0.9,0.9,1.9,1.2,2.9c0.2,0.6,1.1,0.3,0.9-0.3c-0.3-1-0.7-2.1-1.3-3c0.6-0.3,1.2-0.6,1.8-0.9
			c0.5,0.9,1.2,1.7,2,2.5c0.4,0.4,1.1-0.2,0.7-0.7c-0.7-0.7-1.3-1.4-1.8-2.2c0.8-0.4,1.6-0.7,2.3-1.1c1,1.2,2,2.4,3.1,3.5
			c0.4,0.4,1.1-0.2,0.7-0.7c-1-1-1.9-2.2-2.9-3.3c0.7-0.3,1.3-0.6,2-1c0.5,1.3,1.2,2.5,2.1,3.5c0.4,0.4,1.1-0.2,0.7-0.7
			c-0.8-0.9-1.5-2-1.9-3.2c0.5-0.2,1-0.5,1.5-0.7c0.3,0.6,0.7,1.2,1.2,1.7c0.4,0.4,1.1-0.2,0.7-0.7c-0.4-0.4-0.7-1-1-1.5
			c0.5-0.2,1-0.5,1.4-0.7c0.3,0.7,0.7,1.3,1.2,1.9c0.4,0.4,1.1-0.2,0.7-0.7c-0.5-0.5-0.8-1-1.1-1.6c0.6-0.3,1.2-0.6,1.7-0.9
			c0.3,0.5,0.7,1.1,0.9,1.6c0.3,0.5,1.1,0.1,0.8-0.5c-0.3-0.5-0.6-1.1-0.9-1.6c0.5-0.3,1-0.5,1.5-0.8c0.5,0.6,1,1.2,1.4,1.9
			c0.3,0.5,1.2,0,0.8-0.5c-0.4-0.6-0.9-1.2-1.4-1.8c0.6-0.3,1.2-0.6,1.9-0.9c0.7,0.7,1.4,1.4,2,2.3c0.3,0.5,1.2,0,0.8-0.5
			c-0.6-0.8-1.3-1.5-2-2.2c0.5-0.3,1-0.5,1.5-0.8c0.6,1.2,1.6,2.1,2.5,3.1c0.4,0.4,1.1-0.2,0.7-0.7c-0.9-0.9-1.8-1.8-2.4-2.8
			c0.6-0.3,1.2-0.6,1.9-0.9c0.6,0.7,1.1,1.4,1.7,2.1c0.4,0.4,1.1-0.2,0.7-0.7c-0.6-0.6-1.1-1.2-1.6-1.8c0.8-0.4,1.6-0.8,2.3-1.2
			c0.7,0.9,1.4,1.9,1.8,3c0.2,0.6,1.1,0.3,0.9-0.3c-0.4-1.2-1.1-2.2-1.8-3.2c0.9-0.4,1.7-0.9,2.5-1.3c0.9,1.1,1.6,2.2,2.2,3.4
			c0.3,0.5,1.1,0.1,0.8-0.5c-0.6-1.2-1.4-2.3-2.2-3.4c0.6-0.3,1.1-0.6,1.6-0.9c0.5,0.8,0.8,1.8,1.1,2.7c0.2,0.6,1.1,0.3,0.9-0.3
			c-0.3-1-0.7-2-1.2-2.9c0.4-0.2,0.9-0.5,1.3-0.7c0.7,0.8,1.3,1.7,1.9,2.6c0.3,0.5,1.2,0,0.8-0.5c-0.6-0.9-1.3-1.7-1.9-2.5
			c0.8-0.4,1.6-0.9,2.3-1.3c0.6,0.8,1.1,1.6,1.7,2.4c0.3,0.5,1.2,0,0.8-0.5c-0.5-0.8-1.1-1.6-1.7-2.4c0.5-0.3,1-0.6,1.4-0.8
			c0.8,0.8,1.6,1.6,2.4,2.4c0.4,0.4,1.1-0.2,0.7-0.7c-0.7-0.7-1.5-1.5-2.2-2.2c0.7-0.4,1.4-0.9,2.1-1.3c0.7,0.9,1.3,1.9,1.7,3
			C259.3,254.5,260.3,254.2,260.1,253.7z"/>
		<path fill="#0E171C" d="M212.3,244.7c0-2.8-4.7-5-5.3-6c-0.7-1-7.8-21.2-14.8-27.7c-0.5-6.7-0.3-19.2-8.7-30
			c-0.4-0.5-0.8-0.9-1.2-1.4c3-3.2,4.2-6.8,3-10.1c-2.8-8-9.8-10.5-8.1-13.3c1.5-2.5,2.1-10.3-10.3-19.6c3.1-3.7,6.8-8.7,6.1-10.3
			c-0.1-0.2-0.3-0.5-0.5-0.7l0,0c0,0-1.1-1.8-7.4-4c-6.3-2.2-13.8-4.7-13.8-4.7s-2.7-2.3-3.5-2.3c-2.2-1.4-4.3-1-4.3-1
			s-3.3-3.4-12.3,2.5s-7.5,12.2-6.3,17.5c0.8,3.6,2.8,9.4,4.1,15.6c0.9,5.4,1.1,9.1,1.1,9.1l0,0c0.1,1.2,0.2,2.5,0.1,3.9
			c-0.2,15,0.1,14.4,7,17.4c6.4,2.8,1.3,12.2,19.4,10.4c0.5,2.5,1.4,4.8,3,6.3c5.2,5,14.7,11.8,14.7,11.8s0.8,5,5.5,19
			c0.7,2.2-1.7,5.2-0.7,6.7s3.3,3.2,6,6.8c2.7,3.7,4.3,4.7,7.2,2.8c0.1-0.1,0.2-0.1,0.3-0.2c0.2,0.3,0.8,0.3,0.9-0.2
			c0.3-1,0.2-2.1-0.2-3.1c-0.1-0.2-0.2-0.3-0.4-0.3c-1-2.3-3.4-5.4-6.7-9.5c-0.7-2.9-0.8-9.1-0.8-10.9c0.1,0,0.2,0,0.3-0.1
			c2.1,2.8,14.5,20.2,16,22.8c1.1,3.8,2.4,11,3.8,14.9c-0.2,0.1-0.5,0.3-0.4,0.6c0.2,1.4,1.2,2.4,2.5,2.8c0.4,0.1,0.6-0.2,0.6-0.4
			c2.2,0.5,5.3-0.3,5.2-3C213.2,253.5,212.3,247.5,212.3,244.7z M165.2,127.8c0,0.1,0.1,0.2,0.1,0.2c-1.3,1.6-2.8,3-4.7,4.4
			c-0.2-0.1-0.3-0.2-0.5-0.3c-0.5-0.3-1-0.6-1.5-0.9c-3.2-1.5-4.7-5.6-6.7-10.5c0.3,0.7,0.6,1.4,0.9,2.1
			C154.9,123.7,162.9,127,165.2,127.8z M150.6,117.7c0.2,0.3,0.3,0.6,0.5,0.9C150.9,118.3,150.8,118,150.6,117.7z M149.3,115.8
			c-0.1-0.1-0.2-0.2-0.2-0.2C149.1,115.6,149.2,115.7,149.3,115.8z M150.5,117.4c-0.1-0.2-0.3-0.4-0.4-0.6
			C150.2,117,150.4,117.2,150.5,117.4z M150,116.7c-0.2-0.2-0.3-0.4-0.5-0.6C149.7,116.2,149.8,116.4,150,116.7z"/>
		<g>
			<path fill="#FFBB71" d="M186.3,167.5c-2.8-8-9.8-10.5-8.1-13.3c1.7-2.9,2.3-12.8-17.1-24c-0.5-0.3-1-0.6-1.5-0.9
				c-3.6-1.7-5.1-6.8-7.6-12.7c-2.6-5.9-7.4-4.9-7.4-4.9s-3.3-3.4-12.3,2.5s-7.5,12.2-6.3,17.5c0.8,3.6,2.8,9.4,4.1,15.6
				c0.9,5.4,1.1,9.1,1.1,9.1l0,0c0.1,1.2,0.2,2.5,0.1,3.9c-0.2,15,0.1,14.4,7,17.4c6.9,3,0.4,13.8,24.4,9.7
				C178.2,184.8,189.2,175.5,186.3,167.5z"/>
			<g>
				<path fill="#D68266" d="M156.5,169.5l0.8,5.5c0,0-1.9,14.3,3.3,19.3c5.2,5,14.7,11.8,14.7,11.8s0.8,5,5.5,19
					c0.7,2.2-1.7,5.2-0.7,6.7s3.3,3.2,6,6.8c2.7,3.7,4.3,4.7,7.2,2.8c2.8-1.8-0.3-6-6.2-13.3c-0.8-3.3-0.8-11.3-0.8-11.3
					s14.7,20.3,16.3,23.2c1.5,5,3.2,16,5.2,17.3c2,1.3,6.7,0.8,6.5-2.5c-0.2-3.3-1-9.3-1-12.2c0-2.8-4.7-5-5.3-6
					c-0.7-1-7.8-21.2-14.8-27.7c-0.5-6.7-0.3-19.2-8.7-30c-4.7-5.7-9.3-10.5-9.3-10.5l-5.8-5.5C169.3,163,160.7,166.3,156.5,169.5z"
					/>
				<path fill="#FFFFFF" d="M174.5,167.9c0,0-4.2,0.6-11.6,4.7c-2.5,1.1-5.5,2.4-5.5,2.4l-0.3,4.8c0,0,2.2,3.5,7.1,4.2
					s9.4,3.4,9.4,3.4s2.8-1.8,3.4-5.1c0.7-3.8,0.2-9.6-0.6-12.6C175,168.3,174.5,167.9,174.5,167.9z"/>
				<g>
					<g>
						<path fill="#AF5A4F" d="M164,184.5c4.1,0.7,7.8,2.2,11,5c2.8,2.5,5,5.7,7.2,8.7c1.8,2.4,3.1,3.8,3.2,6.8
							c0.2,4,0.1,7.9,0.4,11.8c0.1,0.6,1.1,0.6,1,0c-0.3-4.1-0.3-8.2-0.4-12.2c-0.1-3-1.6-4.6-3.3-7c-2.4-3.3-4.7-6.6-7.8-9.3
							c-3.1-2.7-7-4.1-11-4.8C163.6,183.4,163.4,184.4,164,184.5L164,184.5z"/>
					</g>
				</g>
				<g>
					<g>
						<path fill="#AF5A4F" d="M183,205.3c0,1,0,2,0,3c0,0.6,1,0.6,1,0c0-1,0-2,0-3C184,204.7,183,204.7,183,205.3L183,205.3z"/>
					</g>
				</g>
				<g>
					<g>
						<path fill="#AF5A4F" d="M181.3,206.3c0,0.3-0.1,0.7-0.2,1c0,0.6,1,0.6,1,0c0-0.3,0.1-0.7,0.2-1
							C182.4,205.7,181.4,205.7,181.3,206.3L181.3,206.3z"/>
					</g>
				</g>
				<g>
					<g>
						<path fill="#AF5A4F" d="M187.6,213.8c0.2,0.4,0.6,0.8,0.9,1.1c0.5,0.5,1.2-0.3,0.7-0.7c-0.3-0.3-0.6-0.6-0.8-0.9
							C188.1,212.7,187.3,213.2,187.6,213.8L187.6,213.8z"/>
					</g>
				</g>
				<g>
					<g>
						<path fill="#AF5A4F" d="M189.2,212.9c0.2,0.4,0.6,0.8,1,1c0.6,0.3,1.1-0.5,0.5-0.9c-0.3-0.2-0.5-0.4-0.7-0.7
							C189.8,211.9,188.9,212.4,189.2,212.9L189.2,212.9z"/>
					</g>
				</g>
				<g>
					<g>
						<path fill="#AF5A4F" d="M193.4,238.3c0.3,0.9,0.4,1.7,0.2,2.6c-0.2,0.6,0.8,0.9,1,0.3c0.3-1,0.2-2.1-0.2-3.1
							C194.1,237.4,193.1,237.7,193.4,238.3L193.4,238.3z"/>
					</g>
				</g>
				<g>
					<g>
						<path fill="#AF5A4F" d="M206,255.5c0.2,1.4,1.2,2.4,2.5,2.8c0.6,0.2,0.9-0.8,0.3-1c-1-0.3-1.6-1.1-1.8-2.2
							C206.9,254.6,205.9,254.8,206,255.5L206,255.5z"/>
					</g>
				</g>
				<g>
					<g>
						<path fill="#AF5A4F" d="M204.9,235.6c0.7,0.4,1.2,1,1.1,1.9c-0.1,0.6,0.9,0.6,1,0c0.2-1.2-0.6-2.2-1.6-2.8
							C204.9,234.4,204.4,235.3,204.9,235.6L204.9,235.6z"/>
					</g>
				</g>
				<g>
					<g>
						<path fill="#AF5A4F" d="M182.2,225.2c-0.2,0.6-0.2,1.2-0.2,1.8c0,0.6,1,0.6,1,0c0-0.5,0-1,0.1-1.5
							C183.3,224.8,182.4,224.6,182.2,225.2L182.2,225.2z"/>
					</g>
				</g>
				<g>
					<g>
						<path fill="#AF5A4F" d="M165.4,167.6c0.2,0.5,0.5,0.9,0.7,1.3c0.2,0.6,1.2,0.3,1-0.3c-0.2-0.5-0.5-0.9-0.7-1.3
							C166.1,166.8,165.1,167,165.4,167.6L165.4,167.6z"/>
					</g>
				</g>
				<path fill="#D68266" d="M174,124.2c-0.6-1.6-3.6-2.3-5.1-3.4c-1.8,6.3-6.4,8.8-12.2,13.2l4.3,8.1h1.6c0,0-0.4-1.3,1.4-3.2
					S175,126.8,174,124.2z"/>
				<path fill="#D68266" d="M166.8,129.8c2.1-1.8,1-5.2,1-5.2s-5.9,8.3-12.2,9.9c-3.7,1-5.4,2.7-5.4,2.7l-3.5-4.8l-6.1,1.5l3.3,4.6
					c0,0,0.1,1.9-1.5,3c-1.6,1-2.6,2.1-2.6,2.1c-1.8,1.6-4.5,4.5-4.1,7c0.6,3.8,7.1,14.2,8.9,15.5s6.4-0.6,7.5-2.8s9.1-7.8,9.1-7.8
					l-0.6-11.8l-4.1-5.2l2.5-1.7C158.8,136.8,164.7,131.6,166.8,129.8z"/>
				<path fill="#627A40" d="M176.2,159.6c0,0-3.1-2.1-6.9-5.5c1.2-7.8-8.1-12.9-8.1-12.9l-4.5-7.2c-1.1,0-2.1,0.4-2.9,0.9l4.8,8.7
					c0,0-0.5,5.9-0.1,9.3c-5.4-2.9-15.2-3.1-15.2-3.1l6.5,13.8c0,0,1.1,4.1,2.2,6.6s3.2,2.9,3.8,0.6c0.9,1.1,2.6,0.6,2.9-1.4
					c0.6,1.1,3,0.9,3.4-1.1c0.9,1,2.4,0.1,2.4-1.6c1.4,1.1,3,0.4,3.2-1.9c1.5,1.1,3,0.2,3.4-1.6c1.6,1.2,2.5,0.2,2.9-1.6
					C177,162.4,176.2,159.6,176.2,159.6z"/>
				<path fill="#D68266" d="M136.6,147.9c0,0-1.2-2.3-3.2-4.8s-4-6.3-3.2-7.2s3.7,4,3.7,4s-2.2-5-1.2-5.5s3,4.6,3,4.6
					s-1.4-4.3,0-4.7c1.4-0.3,4.7,9.7,5.2,10.4c1.1,1.5,12.9,18.1,9.8,22.8c-1,1.5-5.9,2.8-9.7-7.7S136.6,147.9,136.6,147.9z"/>
				<g>
					<g>
						<path fill="#AF5A4F" d="M136.2,148.1c2.5,5.8,5.4,11.3,8,17c0.3,0.6,1.1,0.1,0.9-0.5c-2.6-5.7-5.6-11.2-8-17
							C136.8,147,135.9,147.5,136.2,148.1L136.2,148.1z"/>
					</g>
				</g>
				<g>
					<g>
						<path fill="#AF5A4F" d="M140.1,143.8c1.5,2.1,2.9,4.3,4.2,6.5c0.3,0.5,1.2,0,0.9-0.5c-1.4-2.2-2.8-4.4-4.2-6.5
							C140.6,142.7,139.7,143.2,140.1,143.8L140.1,143.8z"/>
					</g>
				</g>
				<g>
					<g>
						<path fill="#AF5A4F" d="M162.6,141.4c0-2,0-4,1.1-5.9c0.3-0.6-0.5-1.1-0.9-0.5c-1.1,2-1.2,4.2-1.2,6.4
							C161.6,142,162.6,142,162.6,141.4L162.6,141.4z"/>
					</g>
				</g>
				<g>
					<g>
						<path fill="#AF5A4F" d="M158.9,152.7c-1.1-2.7-3-4.3-5.7-5.4c-0.6-0.2-1.1,0.6-0.5,0.9c2.4,1,4.3,2.3,5.3,4.8
							C158.1,153.6,159.1,153.3,158.9,152.7L158.9,152.7z"/>
					</g>
				</g>
				<g>
					<g>
						<path fill="#AF5A4F" d="M167.8,125c0.1,0,0.3,0,0.4,0c0.2,0,0,0.1-0.2-0.1c0-0.1-0.1-0.2-0.1-0.4c0.1,0.5,0.5,0.6,1,0.6
							c0.6,0.1,0.9-0.9,0.3-1c-0.1,0-0.2,0-0.3,0c0,0-0.3-0.1-0.1,0c0.2,0.4,0.2,0.6,0.2,0.4c0-0.1,0-0.3-0.1-0.4
							c-0.3-0.2-0.6-0.2-0.9-0.2C167.1,124,167.1,125,167.8,125L167.8,125z"/>
					</g>
				</g>
				<g>
					<g>
						<path fill="#4A5E37" d="M160.7,156.5c-1.4,0.3-2.3,1.4-2.4,2.8c0,0.2,0.2,0.5,0.4,0.5c1.9,0.3,2.3-1.5,3.1-2.9
							c-0.1,0.1-0.3,0.2-0.4,0.2c0.9-0.1,1.5,0,1.7,1c0.2-0.2,0.3-0.4,0.5-0.6c-0.6-0.1-1.3,0.1-1.9-0.3c-0.4-0.2-0.7,0.1-0.8,0.4
							c-0.2,1.5-0.5,3-0.5,4.5c0,0.6,1,0.6,1,0c0-1.5,0.3-3,0.5-4.5c-0.3,0.1-0.5,0.3-0.8,0.4c0.8,0.5,1.6,0.3,2.4,0.4
							c0.3,0,0.5-0.4,0.5-0.6c-0.2-1.2-1.1-1.8-2.4-1.7c-1.5,0.1-1,3-2.7,2.7c0.1,0.2,0.2,0.3,0.4,0.5c0.1-1,0.7-1.7,1.6-1.9
							C161.6,157.4,161.3,156.4,160.7,156.5L160.7,156.5z"/>
					</g>
				</g>
				<g>
					<g>
						<path fill="#4A5E37" d="M160.8,158.5c0.9,0.9,1.7,1.7,2.4,2.7c0.4,0.5,1.2,0,0.9-0.5c-0.7-1.1-1.7-2-2.6-2.9
							C161.1,157.4,160.4,158.1,160.8,158.5L160.8,158.5z"/>
					</g>
				</g>
				<path fill="#D68266" d="M152.1,116.6c0.7,1.5,1.3,3,1.8,4.3c2.2,0.9,11.5,4.6,12.7,5c1.4,0.5,4.7,0.3,4.7,0.3l2.2-2.6
					c0,0-1.1-1.8-7.4-4c-6.3-2.2-13.8-4.7-13.8-4.7s-2.7-2.3-3.5-2.3C150,113.4,151.2,114.6,152.1,116.6z"/>
			</g>
			<path fill="#D68266" d="M148.9,118.8c0,0,7.5,11.3,3.1,14.7c-4.4,3.4-11.4,1.2-13.8,0c-0.5,1.8-2,2.7-4.1,0.3s-1-4.6,1.5-4.2
				C132,124.8,139.2,107.2,148.9,118.8z"/>
			<g>
				<g>
					<path fill="#AF5A4F" d="M147.5,125c0.6,1.3,1.2,2.5,1.9,3.7c0.3,0.5,1.2,0,0.9-0.5c-0.7-1.2-1.3-2.4-1.9-3.7
						C148.1,123.9,147.2,124.4,147.5,125L147.5,125z"/>
				</g>
			</g>
			<path fill="#FFFFFF" d="M152.4,125.5c0,0-0.9,0.3-2.7-0.2c-1.8-0.5-2.5,0.9-3.3,1.7c-0.8,1-6.2,4.2-10.8,2.5c2.1,1,5.3,1.1,2.6,4
				c1.2,1,8.3,3.9,13.1,0.8C156.2,131.2,152.4,125.5,152.4,125.5z"/>
			<g>
				<g>
					<path fill="#AF5A4F" d="M142.2,125.9c0.2,0.3,0.3,0.6,0.4,1c0.2,0.6,1.2,0.3,1-0.3c-0.2-0.4-0.4-0.8-0.6-1.2
						C142.7,124.8,141.9,125.3,142.2,125.9L142.2,125.9z"/>
				</g>
			</g>
			<g>
				<g>
					<path fill="#AF5A4F" d="M149.1,122.8c0.3,0.4,0.5,0.9,0.8,1.3c0.3,0.6,1.2,0.1,0.9-0.5c-0.3-0.4-0.5-0.9-0.8-1.3
						C149.6,121.7,148.7,122.2,149.1,122.8L149.1,122.8z"/>
				</g>
			</g>
			<g>
				<g>
					<path fill="#AF5A4F" d="M142,122.9c-0.3,0.1-0.6,0.2-0.9,0.5c-0.5,0.4,0.2,1.1,0.7,0.7c0.1-0.1,0.3-0.2,0.4-0.2
						C142.9,123.7,142.6,122.7,142,122.9L142,122.9z"/>
				</g>
			</g>
			<g>
				<g>
					<path fill="#AF5A4F" d="M148.1,120.2c-0.2,0.1-0.4,0.1-0.6,0.2c-0.6,0.2-0.4,1.1,0.3,1c0.2-0.1,0.4-0.1,0.6-0.2
						C149,120.9,148.7,119.9,148.1,120.2L148.1,120.2z"/>
				</g>
			</g>
			<g>
				<g>
					<path fill="#AF5A4F" d="M134.8,132.2c0.8,0,1.4,0.4,2,0.9c0.4,0.5,1.1-0.2,0.7-0.7c-0.7-0.8-1.6-1.3-2.7-1.2
						C134.2,131.2,134.2,132.2,134.8,132.2L134.8,132.2z"/>
				</g>
			</g>
			<path fill="#FFBB71" d="M136.6,132.2c0,0,2.2-1.5,2.3-6c0.1-4.6,1.9-10.1,4.2-8.6c0.3-1.8,2.7-1.4,3.8,0s3,5.6,4.7,6
				c1-1.6-1.9-11.7-6.6-10.6c0,0-6.5-1.8-9.4,4.9C134.4,119.6,131.7,134.2,136.6,132.2z"/>
			<g>
				<g>
					<path fill="#AF5A4F" d="M166.6,126.1c1.3-0.1,2.6-0.3,3.9-0.4c0.6-0.1,0.6-1.1,0-1c-1.3,0.1-2.6,0.2-3.9,0.4
						C166,125.2,166,126.2,166.6,126.1L166.6,126.1z"/>
				</g>
			</g>
		</g>
		<g>
			<path fill="#0E171C" d="M97.8,119.7c-0.3-0.6-1.1-0.1-0.9,0.5c0.6,1.3,1,2.7,1.7,4c0.3,0.6,1.1,0.1,0.9-0.5
				C98.8,122.4,98.4,121.1,97.8,119.7z"/>
			<path fill="#0E171C" d="M103.8,132.4c-0.3-0.5-1.2,0-0.9,0.5c0.6,1,1,2,1.7,3c0.3,0.5,1.2,0,0.9-0.5
				C104.8,134.5,104.4,133.4,103.8,132.4z"/>
			<path fill="#0E171C" d="M106,128c-0.5-0.5-1.2,0.2-0.7,0.7c0.6,0.6,0.9,1.3,1.2,2.1c0.2,0.6,1.2,0.3,1-0.3
				C107.2,129.6,106.7,128.7,106,128z"/>
			<path fill="#0E171C" d="M215.6,190.3c0.3,0.6,1.2,0.1,0.9-0.5c-0.4-0.7-1-1.3-1.3-2c-0.3-0.6-1.2-0.1-0.9,0.5
				C214.6,189,215.2,189.5,215.6,190.3z"/>
			<path fill="#0E171C" d="M219.7,193c-0.5-0.5-1.2,0.2-0.7,0.7c0.6,0.7,1.1,1.5,1.6,2.2c0.4,0.5,1.2,0,0.9-0.5
				C220.9,194.6,220.4,193.7,219.7,193z"/>
			<path fill="#0E171C" d="M216,194.3c-0.4-0.5-1.1,0.2-0.7,0.7c0.3,0.3,0.4,0.7,0.7,1c0.4,0.5,1.1-0.2,0.7-0.7
				C216.4,195,216.3,194.6,216,194.3z"/>
			<path fill="#0E171C" d="M179.4,250.3c-0.5-0.5-1.2,0.3-0.7,0.7c1.1,1.1,2.3,2.3,3.3,3.6c0.4,0.5,1.3,0,0.9-0.5
				C181.7,252.7,180.6,251.5,179.4,250.3z"/>
			<path fill="#0E171C" d="M171.2,223.7c0-0.6-1-0.6-1,0c0,0.7,0.4,1.3,0.7,1.9c0.3,0.6,1.2,0.1,0.9-0.5
				C171.5,224.6,171.2,224.2,171.2,223.7z"/>
			<path fill="#0E171C" d="M215.1,229.1c-0.3-0.6-1.1-0.1-0.9,0.5c0.3,0.5,0.4,1.1,0.7,1.7c0.3,0.6,1.1,0.1,0.9-0.5
				C215.5,230.2,215.4,229.6,215.1,229.1z"/>
			<path fill="#0E171C" d="M223.2,242.7c0,0.4,0.3,0.7,0.3,1c0.1,0.6,1.1,0.6,1,0c0-0.4-0.3-0.7-0.3-1
				C224.1,242,223.1,242,223.2,242.7z"/>
			<path fill="#0E171C" d="M183.5,153.7c0,0.6,1,0.6,1,0c0-2-0.4-3.8-1.4-5.6c-0.3-0.6-1.2-0.1-0.9,0.5
				C183.2,150.2,183.5,151.8,183.5,153.7z"/>
			<path fill="#0E171C" d="M162.9,115.6c-1.2-0.8-2.4-1.4-3.7-2c-0.6-0.3-1.1,0.6-0.5,0.9c1.2,0.6,2.5,1.2,3.7,2
				C163,116.8,163.5,115.9,162.9,115.6z"/>
			<path fill="#0E171C" d="M154.8,195.2c-0.2-0.6-1.2-0.3-1,0.3c0.3,1,0.8,1.9,1.4,2.8c0.4,0.5,1.2,0,0.9-0.5
				C155.6,196.9,155.1,196.1,154.8,195.2z"/>
			<path fill="#0E171C" d="M127.5,158.7c0-0.6-1-0.6-1,0c0,1.3,0.1,2.5,0.4,3.8c0.1,0.6,1.1,0.4,1-0.3
				C127.5,161,127.5,159.9,127.5,158.7z"/>
			<path fill="#0E171C" d="M157.4,110.4c0.8,0.4,1.6,0.6,2.3,1c0.6,0.3,1.1-0.6,0.5-0.9c-0.8-0.4-1.6-0.6-2.3-1
				C157.3,109.3,156.8,110.1,157.4,110.4z"/>
			<path fill="#0E171C" d="M142.3,96.2c-0.6,0-0.6,1,0,1S143,96.2,142.3,96.2z"/>
			<path fill="#0E171C" d="M157.4,231c-0.5-0.5-1.2,0.2-0.7,0.7c0.9,0.9,1.6,1.9,2.3,2.9c0.4,0.5,1.2,0,0.9-0.5
				C159,233,158.3,231.9,157.4,231z"/>
			<path fill="#0E171C" d="M184.1,272.9c-0.2-0.6-1.2-0.3-1,0.3c0.4,1.1,1,2.1,1.8,2.9c0.4,0.5,1.2-0.2,0.7-0.7
				C185,274.6,184.5,273.8,184.1,272.9z"/>
			<path fill="#0E171C" d="M203.7,267.2c-0.9,0-1.6-0.1-2.4-0.6c-0.5-0.3-1,0.5-0.5,0.9c0.9,0.6,1.8,0.7,2.9,0.7
				C204.3,268.2,204.3,267.2,203.7,267.2z"/>
			<path fill="#0E171C" d="M196.3,261.5c-0.6,0-0.6,1,0,1S197,261.5,196.3,261.5z"/>
			<path fill="#0E171C" d="M236.5,241.7c0,0.6,0,1.2-0.3,1.7c-0.3,0.6,0.6,1.1,0.9,0.5c0.3-0.7,0.4-1.5,0.4-2.3
				C237.5,241,236.5,241,236.5,241.7z"/>
			<path fill="#0E171C" d="M213,210c-0.5-0.5-1.2,0.3-0.7,0.7c0.3,0.3,0.7,0.7,1,1c0.5,0.5,1.2-0.3,0.7-0.7
				C213.7,210.6,213.4,210.3,213,210z"/>
			<path fill="#0E171C" d="M196.8,175.3c0,0.9,0,1.7-0.3,2.5c-0.2,0.6,0.8,0.9,1,0.3c0.3-0.9,0.4-1.8,0.4-2.8
				C197.8,174.7,196.8,174.7,196.8,175.3z"/>
			<path fill="#0E171C" d="M120.3,113.5c-0.5,0-0.9-0.3-1.3-0.3c-0.6-0.1-0.6,0.9,0,1c0.2,0,0.4,0.1,0.5,0.2
				c0.3,0.1,0.5,0.1,0.8,0.1C121,114.5,121,113.5,120.3,113.5z"/>
		</g>
	</g>
	<g id="SEA">
		<path opacity="0.4" fill="#EB7350" d="M0,296.2c0,0,63.8-16.2,96.8,19.8s19,74,101,76s126.7-6,168,25c40,30,40,83,40,83h-32
			c0,0,17.7-70-61-91.7c-58.9-16.2-148,10.7-189-31.3s-67-69.5-118-47.5C5.8,295,0,296.2,0,296.2z"/>
		<path fill="#BBC9EC" d="M0,315.7c0,0,50.4-20,78.3,14.7S121.7,384,159,393c37.3,9,135.3-1.3,183.3,18c16,10,48.7,39.3,42.7,88.7
			c-17.3,0-385,0-385,0V315.7z"/>
		<path fill="#FFFFFF" d="M0,295c0,0,58-15,91,21s19,74,101,76s126.7-6,168,25c40,30,40,83,40,83h-32c0,0,17.7-70-61-91.7
			C248.1,392.1,159,419,118,377S51,307.5,0,329.5C0,295,0,295,0,295z"/>
		<path fill="#8393B2" d="M0,383c0,0,34.7-22.1,72.7,13s37.3,56.4,87.3,50.4s154.7,3.3,171.3,53.3c-76.7,0-331.3,0-331.3,0V383z"/>
		<path fill="#4E557A" d="M0,429.7c0,0,16.7-4,32,16.7s48.2,44,93.1,33.3c44.9-10.7,143.6-13.3,161.6,20c-60.7,0-286.7,0-286.7,0
			V429.7z"/>
		<g>
			<path fill="#606A7C" d="M53.9,430.6c3.2,6.5,11.3,6.6,16.7,2.8c-0.3-0.1-0.5-0.3-0.8-0.4c-0.2,3.6-0.5,8.6,2.7,11.1
				c3,2.4,7.9,1.3,11.3,0.7c-0.2-0.2-0.4-0.3-0.6-0.5c-0.5,4.9,1.2,10.3,5.5,13.1c4.7,3,9.2-0.8,11.5-4.8c0.3-0.6-0.5-1.1-0.9-0.5
				c-2.3,3.9-6.1,7-10.5,4.2c-3.8-2.5-5-7.7-4.5-11.9c0-0.3-0.3-0.5-0.6-0.5c-3.2,0.6-7.8,1.6-10.6-0.6c-2.8-2.2-2.3-7.1-2.1-10.2
				c0-0.4-0.4-0.6-0.8-0.4c-4.9,3.5-12.4,3.5-15.3-2.5C54.5,429.5,53.6,430,53.9,430.6L53.9,430.6z"/>
		</g>
		<g>
			<path fill="#FFFFFF" d="M273.4,437.9c-5.4,3.4-15.6,1.4-15.2-6.2c0-0.4-0.4-0.6-0.8-0.4c-6.5,4.3-15.2,3.2-19.3-3.8
				c-0.2-0.3-0.6-0.4-0.8-0.1c-5.2,6.3-14.6,8.1-19.2,0.1c-0.2-0.3-0.7-0.3-0.9,0c-2.5,4.6-9,9.1-13.2,3.9c-0.4-0.5-1.1,0.2-0.7,0.7
				c4.4,5.4,11.3,1.5,14.4-3.4c4.9,7.5,14.4,6.1,19.9-0.1c4.3,6.7,12.9,8,19.6,4.1c0.4,7.7,10.9,9.9,16.7,6.2
				C274.5,438.4,274,437.6,273.4,437.9z"/>
			<path fill="#FFFFFF" d="M76.5,377.2c-4.9-1.4-6-5.7-3.7-9.9c0.2-0.4-0.2-1-0.7-0.7c-6.2,4.1-19.6,2.3-17.9-7.4
				c0.1-0.4-0.2-0.7-0.6-0.6c-3.3,0.6-6.8,1.2-10.1,0.7c-4.5-0.7-4.5-4.5-3.2-8.1c0.2-0.6-0.6-0.8-0.9-0.4
				c-3.5,4.6-9.6,5.5-14.6,3.2c-0.6-0.3-1.1,0.6-0.5,0.9c4.9,2.3,10.6,1.7,14.5-1.9c-0.6,2.8-0.3,5.7,2.9,6.9
				c3.6,1.3,7.8,0.6,11.6-0.1c-1,9.4,11,12.1,18.2,8.6c-1.6,4.4,0,8.5,4.9,10C76.8,378.3,77.1,377.4,76.5,377.2z"/>
		</g>
	</g>
	<g id="BEACH_ELEMENTS">
		<path fill="none" stroke="#EB7350" stroke-miterlimit="10" d="M223.4,83.8c-1.8,0-4.6,8.1-4.6,8.1s-9.5-1.4-10.2,0.4
			s7.4,3.4,7.4,3.4s-6.4,6.1-6.1,7.4s9.5-4,9.5-4s3,7,5,7.2s-0.5-9.6-0.5-9.6s9,1.3,9-1.2c0-1.3-9.1-2.9-9.1-2.9
			S225.2,83.7,223.4,83.8z"/>
		<path fill="#EB7350" d="M88.9,245.9c-1.9,0-4.9,8.6-4.9,8.6s-10-1.5-10.8,0.4c-0.8,1.8,7.8,3.6,7.8,3.6s-6.7,6.5-6.5,7.8
			c0.3,1.3,10-4.2,10-4.2s3.2,7.4,5.3,7.7c2.1,0.3-0.5-10.1-0.5-10.1s9.5,1.4,9.5-1.2c0-1.3-9.7-3.1-9.7-3.1S90.8,245.9,88.9,245.9z
			"/>
		<g>
			<path fill="#FFFFFF" d="M407.7,305.2l-2,3l5,1.8l1.2-2.4c0,0,7.5,2.4,8.5-4.1s-3.5-11.3-11-8.8
				C401.9,297.2,403.4,302.8,407.7,305.2z"/>
			<g>
				<g>
					<path fill="#BBC9EC" d="M415.2,293.9c-0.9,3.1-2.4,6-3.5,9c-0.2,0.6,0.8,0.9,1,0.3c1.1-3,2.6-5.9,3.5-9
						C416.3,293.6,415.4,293.3,415.2,293.9L415.2,293.9z"/>
				</g>
			</g>
			<g>
				<g>
					<path fill="#BBC9EC" d="M419.5,298.4c-0.4,2.2-1.6,4-3.4,5.2c-0.5,0.4,0,1.2,0.5,0.9c2-1.3,3.5-3.4,3.9-5.8
						C420.6,298.1,419.6,297.8,419.5,298.4L419.5,298.4z"/>
				</g>
			</g>
			<g>
				<g>
					<path fill="#BBC9EC" d="M408.1,295c-1.5,2.6-1.7,5.1-0.3,7.8c0.3,0.6,1.2,0.1,0.9-0.5c-1.2-2.4-0.9-4.5,0.3-6.8
						C409.2,294.9,408.4,294.4,408.1,295L408.1,295z"/>
				</g>
			</g>
		</g>
		<path fill="#627A40" d="M429.8,394.7c-2.6,0-6.7,11.8-6.7,11.8s-13.8-2-14.9,0.5c-1.1,2.5,10.7,4.9,10.7,4.9s-9.2,8.9-8.9,10.7
			c0.4,1.8,13.8-5.8,13.8-5.8s4.3,10.1,7.2,10.5c2.9,0.4-0.7-13.9-0.7-13.9s13.1,1.9,13-1.7c0-1.8-13.2-4.3-13.2-4.3
			S432.6,394.6,429.8,394.7z"/>
		<path fill="#4E557A" d="M225.4,332.4c-1.2,0-3,5.2-3,5.2s-6.1-0.9-6.5,0.2c-0.5,1.1,4.7,2.2,4.7,2.2s-4.1,3.9-3.9,4.7
			c0.2,0.8,6.1-2.6,6.1-2.6s1.9,4.5,3.2,4.6c1.3,0.2-0.3-6.1-0.3-6.1s5.8,0.9,5.8-0.8c0-0.8-5.8-1.9-5.8-1.9
			S226.6,332.4,225.4,332.4z"/>
		<path fill="#4E557A" d="M459.2,268.8c-1.7-1.3-10.2,4-10.2,4s-7.6-8.2-9.6-7.2c-2,1,4.2,8.5,4.2,8.5s-10.3,0.9-11,2.2
			c-0.7,1.3,11.6,3.3,11.6,3.3s-2.4,8.6-0.8,10.2c1.6,1.7,6.6-9.1,6.6-9.1s7.2,7.8,9,5.5c0.9-1.2-6.1-9.4-6.1-9.4
			S460.9,270.2,459.2,268.8z"/>
		<g>
			<path fill="#627A40" d="M120,223.6c-4.3,0.3-5.8,14.1-1.4,15.7C123,240.9,126.8,223.1,120,223.6z"/>
			<path fill="#627A40" d="M133.5,236.2c-3.5-3.2-12.3,10.4-8.2,12.9C128.8,251.3,138.7,241,133.5,236.2z"/>
			<g>
				<g>
					<path fill="#4A5E37" d="M120.3,226.6c-1.4,1.6-2.7,3.2-3.9,4.9c-0.4,0.5,0.5,1,0.9,0.5c1.2-1.6,2.4-3.2,3.8-4.7
						C121.4,226.8,120.7,226.1,120.3,226.6L120.3,226.6z"/>
				</g>
			</g>
			<g>
				<g>
					<path fill="#4A5E37" d="M120.3,226.9c0.6,2.3,1.5,4.4,2.7,6.5c0.3,0.6,1.2,0.1,0.9-0.5c-1.1-2-2.1-4-2.6-6.2
						C121.1,226,120.2,226.3,120.3,226.9L120.3,226.9z"/>
				</g>
			</g>
			<g>
				<g>
					<path fill="#4A5E37" d="M131.5,239c-1.7,0.7-3.4,1.4-4.9,2.6c-0.5,0.4,0.2,1.1,0.7,0.7c1.3-1.1,2.9-1.7,4.4-2.4
						C132.4,239.7,132.1,238.7,131.5,239L131.5,239z"/>
				</g>
			</g>
			<g>
				<g>
					<path fill="#4A5E37" d="M131.5,239.6c0,1.7,0.3,3.5,0,5.2c-0.1,0.6,0.9,0.9,1,0.3c0.3-1.8,0-3.6,0-5.5
						C132.5,239,131.5,239,131.5,239.6L131.5,239.6z"/>
				</g>
			</g>
		</g>
		<g>
			<path fill="#192730" d="M380.4,335.4c-3.5,2.5,2.3,15.1,6.9,14.1C391.9,348.6,385.9,331.4,380.4,335.4z"/>
			<path fill="#192730" d="M398.5,339.2c-4.7-1-5.1,15.3-0.4,15.3C402.2,354.5,405.4,340.6,398.5,339.2z"/>
			<g>
				<g>
					<path fill="#4A5E37" d="M382.1,337.8c-0.4,2.1-0.7,4.2-0.8,6.3c0,0.6,1,0.6,1,0c0.1-2,0.4-4,0.8-6
						C383.2,337.4,382.3,337.1,382.1,337.8L382.1,337.8z"/>
				</g>
			</g>
			<g>
				<g>
					<path fill="#4A5E37" d="M382.3,338c1.7,1.7,3.6,3,5.7,4.1c0.6,0.3,1.1-0.6,0.5-0.9c-2-1.1-3.9-2.4-5.5-4
						C382.6,336.9,381.9,337.6,382.3,338L382.3,338z"/>
				</g>
			</g>
			<g>
				<g>
					<path fill="#4A5E37" d="M398.1,342.7c-1.1,1.5-2.2,2.9-2.8,4.7c-0.2,0.6,0.8,0.9,1,0.3c0.6-1.7,1.6-3,2.7-4.4
						C399.3,342.7,398.5,342.2,398.1,342.7L398.1,342.7z"/>
				</g>
			</g>
			<g>
				<g>
					<path fill="#4A5E37" d="M398.4,343.2c0.9,1.5,2.1,2.8,2.7,4.4c0.2,0.6,1.2,0.3,1-0.3c-0.7-1.7-1.8-3.1-2.8-4.7
						C399,342.1,398.1,342.6,398.4,343.2L398.4,343.2z"/>
				</g>
			</g>
		</g>
		<path fill="#8393B2" d="M59,34c-2.3,1.3,0.1,13.6,0.1,13.6s-12.9,5.2-12.6,7.9c0.3,2.7,11.7-1.1,11.7-1.1S54.6,66.6,55.9,68
			c1.2,1.4,9-11.9,9-11.9s8.8,6.6,11.5,5.5c2.7-1.1-7.6-11.7-7.6-11.7s12.3-4.9,10.4-8c-0.9-1.6-13.6,2.9-13.6,2.9S61.3,32.6,59,34z
			"/>
		<g>
			<path fill="#FFBB71" d="M195,51.7l0,5.5l7.8-2.1l-0.5-4.1c0,0,11.5-3.4,7.2-12.5s-14.2-11.4-21.4-1.6
				C181,46.6,187.6,52.3,195,51.7z"/>
			<g opacity="0.5">
				<path fill="#EB7350" d="M195.2,30.9c1.5,4.7,2,9.6,3.3,14.4c0.2,0.6,1.1,0.4,1-0.3c-1.3-4.8-1.8-9.7-3.3-14.4
					C195.9,30.1,195,30.3,195.2,30.9L195.2,30.9z"/>
			</g>
			<g opacity="0.5">
				<path fill="#EB7350" d="M204.6,33c1.4,3.2,1.3,6.5,0,9.7c-0.2,0.6,0.7,0.9,1,0.3c1.4-3.4,1.4-7.1-0.1-10.5
					C205.2,31.9,204.3,32.5,204.6,33L204.6,33z"/>
			</g>
			<g opacity="0.5">
				<path fill="#EB7350" d="M187.1,38.4c0.3,4.4,2.1,7.8,6.1,10c0.6,0.3,1.1-0.6,0.5-0.9c-3.6-2-5.2-5.1-5.6-9.1
					C188,37.8,187,37.8,187.1,38.4L187.1,38.4z"/>
			</g>
		</g>
	</g>
	<g id="GIRL_UNDER_UMBRELLA">
		<path opacity="0.4" fill="#EB7350" d="M272.5,316.2c0.5-1.3,1.2-2.5,2-3.5c15.1-28.2,95.5-162,101.7-168.6c0,0,0.1,0,0.3,0.1
			c0.5-0.7,0.9-1.4,1.1-2.2c0.2-0.6,1.1-0.3,0.9,0.3c-0.3,0.8-0.7,1.6-1.2,2.3c0.4,0.2,1,0.4,1.7,0.7c0.5-0.9,1.3-1.7,2-2.5
			c0.4-0.4,1.1,0.2,0.7,0.7c-0.7,0.7-1.4,1.4-1.8,2.2c0.7,0.3,1.5,0.7,2.4,1c0.5-0.7,1-1.4,1.6-2c0.4-0.4,1.1,0.2,0.7,0.7
			c-0.5,0.5-1,1.1-1.4,1.7c0.7,0.3,1.4,0.6,2.2,1c0.6-0.6,1.3-1.1,2-1.5c0.5-0.3,1,0.5,0.5,0.8c-0.5,0.4-1,0.7-1.5,1.1
			c0.8,0.3,1.6,0.7,2.5,1.1c0.6-0.7,1.1-1.4,1.7-2c0.4-0.4,1.1,0.2,0.7,0.7c-0.5,0.6-1,1.2-1.5,1.8c0.6,0.3,1.2,0.5,1.8,0.8
			c0.5-0.5,0.9-1.1,1.3-1.7c0.3-0.5,1.1-0.1,0.8,0.5c-0.3,0.6-0.7,1.1-1.2,1.6c0.6,0.3,1.2,0.5,1.9,0.8c0.5-0.7,1-1.3,1.4-2
			c0.3-0.5,1.1-0.1,0.8,0.5c-0.4,0.7-0.8,1.3-1.3,1.9c0.7,0.3,1.5,0.7,2.3,1c0.4-0.5,0.7-1.1,1.1-1.6c0.4-0.4,1.1,0.2,0.7,0.7
			c-0.4,0.4-0.6,0.8-0.9,1.3c0.5,0.2,1,0.5,1.5,0.7c0.7-0.5,1.2-1.1,1.4-1.9c0.2-0.6,1.1-0.3,0.9,0.3c-0.3,0.9-0.8,1.6-1.4,2.1
			c0.6,0.3,1.2,0.5,1.9,0.8c0.4-0.9,0.9-1.7,1.6-2.5c0.4-0.4,1.1,0.2,0.7,0.7c-0.6,0.6-1.1,1.4-1.4,2.2c0.5,0.2,1.1,0.5,1.6,0.7
			c0.6-0.7,1.3-1.5,2-2.1c0.4-0.4,1.1,0.2,0.7,0.7c-0.6,0.6-1.2,1.2-1.7,1.9c0.7,0.3,1.5,0.7,2.2,1c0.8-0.8,1.4-1.8,2.1-2.6
			c0.4-0.4,1.1,0.2,0.7,0.7c-0.7,0.7-1.3,1.6-1.9,2.3c0.7,0.3,1.3,0.6,2,0.9c0.5-1,1-1.9,1.6-2.8c0.3-0.5,1.2,0,0.8,0.5
			c-0.6,0.9-1.1,1.8-1.5,2.7c0.9,0.4,1.9,0.9,2.8,1.3c0.5-0.5,0.9-1,1.2-1.7c0,0,0,0,0.1-0.1c0,0,0,0,0,0c0.1-0.1,0.2-0.1,0.3-0.1
			c0,0,0,0,0,0s0,0,0,0c0,0,0,0,0.1,0c0.2,0,0.3,0.2,0.4,0.3c0,0.1,0,0.2,0,0.3c0,0,0,0,0,0c0,0,0,0,0,0.1c-0.3,0.6-0.7,1.1-1.1,1.6
			c0.2,0.1,0.5,0.2,0.7,0.3c0.7-0.7,1.3-1.3,2-2c0.4-0.4,1.1,0.2,0.7,0.7c-0.6,0.6-1.2,1.2-1.8,1.8c1.1,0.5,2.3,1,3.4,1.5
			c0.8-1.1,1.6-2.1,2.5-3c0.4-0.4,1.1,0.2,0.7,0.7c-0.8,0.9-1.6,1.8-2.3,2.8c0.8,0.4,1.7,0.8,2.5,1.1c0.5-0.7,1-1.4,1.4-2.1
			c0.3-0.5,1.1-0.1,0.8,0.5c-0.4,0.7-0.9,1.4-1.4,2c0.7,0.3,1.4,0.7,2.1,1c0.8-1,1.4-2.1,1.7-3.4c0.2-0.6,1.1-0.3,0.9,0.3
			c-0.4,1.3-1,2.5-1.8,3.5c0.8,0.4,1.6,0.8,2.5,1.2c0.5-0.5,1-1.1,1.3-1.7c0,0,0,0,0.1-0.1c0,0,0,0,0,0c0.1-0.1,0.2-0.1,0.3-0.1
			c0,0,0,0,0,0c0,0,0,0,0,0c0,0,0,0,0,0c0.2,0,0.3,0.2,0.4,0.3c0,0.1,0,0.2,0,0.3c0,0,0,0,0,0c0,0,0,0,0,0.1
			c-0.3,0.6-0.8,1.2-1.2,1.7c0.8,0.4,1.6,0.8,2.4,1.1c0.5-0.7,1-1.4,1.3-2.3c0.2-0.6,1.1-0.3,0.9,0.3c-0.3,0.9-0.8,1.7-1.4,2.4
			c0.7,0.3,1.4,0.7,2,1c0.4-0.7,0.8-1.4,1.4-2c0.4-0.4,1.1,0.2,0.7,0.7c-0.5,0.5-0.8,1.1-1.2,1.7c0.7,0.3,1.3,0.7,1.9,1
			c0.5-0.7,1-1.5,1.4-2.3c0.3-0.5,1.1-0.1,0.8,0.5c-0.4,0.8-0.9,1.5-1.3,2.2c0.6,0.3,1.1,0.6,1.6,0.8c0.3-0.6,0.5-1.4,0.8-2
			c0.2-0.6,1.1-0.3,0.9,0.3c-0.2,0.7-0.5,1.5-0.8,2.2c0.6,0.3,1.2,0.6,1.8,0.9c0.4-0.9,0.7-1.9,1-2.9c0.2-0.6,1.1-0.3,0.9,0.3
			c-0.5,1.7-1,3.4-2,4.9c0,0,0,0.1-0.1,0.1c-6.8,20.3-42.8,81.6-59.8,111.5c-17.6,30.9-35.2,60.9-35.2,60.9s-0.5-0.2-1.5-0.7
			c-0.1,0.4-0.3,0.8-0.4,1.3c-0.2,0.6-1.1,0.3-0.9-0.3c0.2-0.5,0.3-0.9,0.5-1.4c-0.3-0.1-0.7-0.3-1.1-0.5c-0.3,0.9-0.6,1.7-0.9,2.6
			c-0.2,0.6-1.1,0.3-0.9-0.3c0.3-0.9,0.6-1.8,0.9-2.8c-0.4-0.2-0.9-0.4-1.4-0.6c-0.5,0.9-1,1.9-1.5,2.8c-0.3,0.5-1.2,0-0.8-0.5
			c0.6-0.9,1-1.8,1.5-2.7c-0.7-0.3-1.4-0.6-2.2-1c-0.4,0.8-0.9,1.5-1.3,2.3c-0.3,0.5-1.1,0.1-0.8-0.5c0.4-0.8,0.8-1.5,1.3-2.2
			c-0.7-0.3-1.3-0.6-2.1-0.9c-0.5,0.8-1.1,1.5-1.9,1.9c-0.5,0.3-1-0.5-0.5-0.8c0.6-0.3,1.1-0.9,1.5-1.5c-0.8-0.4-1.7-0.8-2.6-1.2
			c-0.4,1-0.9,2-1.5,2.9c-0.3,0.5-1.2,0-0.8-0.5c0.6-0.9,1.1-1.8,1.5-2.8c-0.5-0.2-0.9-0.4-1.4-0.6c-0.5,0.8-1.2,1.6-1.7,2.5
			c-0.3,0.5-1.1,0.1-0.8-0.5c0.5-0.9,1.1-1.6,1.6-2.4c-0.5-0.2-1-0.5-1.6-0.7c-0.8,1.1-1.6,2.2-2.6,3.2c-0.4,0.4-1.1-0.2-0.7-0.7
			c0.9-0.9,1.7-1.9,2.4-3c-0.6-0.3-1.2-0.6-1.9-0.9c-0.6,0.9-1.1,1.8-1.8,2.6c-0.4,0.4-1.1-0.2-0.7-0.7c0.7-0.7,1.1-1.5,1.6-2.3
			c-0.6-0.3-1.2-0.6-1.8-0.9c-0.7,0.7-1.3,1.3-2,2c-0.4,0.4-1.1-0.2-0.7-0.7c0.6-0.6,1.1-1.1,1.7-1.7c-0.8-0.4-1.7-0.8-2.5-1.2
			c-0.6,0.9-0.9,1.9-1.2,2.9c-0.2,0.6-1.1,0.3-0.9-0.3c0.3-1,0.7-2.1,1.3-3c-0.6-0.3-1.2-0.6-1.8-0.9c-0.5,0.9-1.2,1.7-2,2.5
			c-0.4,0.4-1.1-0.2-0.7-0.7c0.7-0.7,1.3-1.4,1.8-2.2c-0.8-0.4-1.6-0.7-2.3-1.1c-1,1.2-2,2.4-3.1,3.5c-0.4,0.4-1.1-0.2-0.7-0.7
			c1-1,1.9-2.2,2.9-3.3c-0.7-0.3-1.3-0.6-2-0.9c-0.5,1.3-1.2,2.5-2.1,3.5c-0.4,0.4-1.1-0.2-0.7-0.7c0.8-0.9,1.5-2,1.9-3.2
			c-0.5-0.2-1-0.5-1.5-0.7c-0.3,0.6-0.7,1.2-1.2,1.8c-0.4,0.4-1.1-0.2-0.7-0.7c0.4-0.4,0.7-1,1-1.5c-0.5-0.2-1-0.5-1.4-0.7
			c-0.3,0.7-0.7,1.3-1.2,1.9c-0.4,0.4-1.1-0.2-0.7-0.7c0.5-0.5,0.8-1.1,1.1-1.6c-0.6-0.3-1.2-0.6-1.7-0.9c-0.3,0.5-0.7,1.1-0.9,1.6
			c-0.3,0.5-1.1,0.1-0.8-0.5c0.3-0.5,0.6-1.1,0.9-1.6c-0.5-0.2-1-0.5-1.5-0.8c-0.5,0.6-1,1.2-1.4,1.9c-0.3,0.5-1.2,0-0.8-0.5
			c0.4-0.6,0.9-1.2,1.4-1.8c-0.6-0.3-1.2-0.6-1.9-0.9c-0.7,0.7-1.4,1.4-2,2.3c-0.3,0.5-1.2,0-0.8-0.5c0.6-0.8,1.3-1.5,2-2.2
			c-0.5-0.3-1-0.5-1.5-0.8c-0.6,1.2-1.6,2.1-2.5,3.1c-0.4,0.4-1.1-0.2-0.7-0.7c0.9-0.9,1.8-1.8,2.4-2.8c-0.6-0.3-1.2-0.6-1.9-0.9
			c-0.6,0.7-1.1,1.4-1.7,2.1c-0.4,0.4-1.1-0.2-0.7-0.7c0.6-0.6,1.1-1.2,1.6-1.8c-0.8-0.4-1.6-0.8-2.3-1.2c-0.7,0.9-1.4,1.9-1.8,3
			c-0.2,0.6-1.1,0.3-0.9-0.3c0.4-1.2,1.1-2.2,1.8-3.2c-0.9-0.4-1.7-0.9-2.5-1.3c-0.9,1.1-1.6,2.2-2.2,3.4c-0.3,0.5-1.1,0.1-0.8-0.5
			c0.6-1.2,1.4-2.3,2.2-3.4c-0.6-0.3-1.1-0.6-1.6-0.9c-0.5,0.8-0.8,1.8-1.1,2.7c-0.2,0.6-1.1,0.3-0.9-0.3c0.3-1,0.7-2,1.2-2.9
			c-0.4-0.2-0.9-0.5-1.3-0.7c-0.7,0.8-1.3,1.7-1.9,2.6c-0.3,0.5-1.2,0-0.8-0.5c0.6-0.9,1.3-1.7,1.9-2.5c-0.8-0.4-1.6-0.9-2.3-1.3
			c-0.6,0.8-1.1,1.6-1.7,2.4c-0.3,0.5-1.2,0-0.8-0.5c0.5-0.8,1.1-1.6,1.7-2.4c-0.5-0.3-1-0.6-1.4-0.8c-0.8,0.8-1.6,1.6-2.4,2.4
			c-0.4,0.4-1.1-0.2-0.7-0.7c0.7-0.7,1.5-1.5,2.2-2.2c-0.7-0.4-1.4-0.9-2.1-1.3c-0.7,0.9-1.3,1.9-1.7,3
			C273.3,317.1,272.3,316.8,272.5,316.2z"/>
		<ellipse opacity="0.4" fill="#EB7350" cx="333.6" cy="143.1" rx="77.7" ry="69.8"/>
		<g>
			<g>
				<path fill="#FFBB71" d="M271.4,314.6c0.5-1.3,1.2-2.5,2-3.5c15.1-28.2,95.5-162,101.7-168.6c0,0,0.1,0,0.3,0.1
					c0.5-0.7,0.9-1.4,1.1-2.2c0.2-0.6,1.1-0.3,0.9,0.3c-0.3,0.8-0.7,1.6-1.2,2.3c0.4,0.2,1,0.4,1.7,0.7c0.5-0.9,1.3-1.7,2-2.5
					c0.4-0.4,1.1,0.2,0.7,0.7c-0.7,0.7-1.4,1.4-1.8,2.2c0.7,0.3,1.5,0.7,2.4,1c0.5-0.7,1-1.4,1.6-2c0.4-0.4,1.1,0.2,0.7,0.7
					c-0.5,0.5-1,1.1-1.4,1.7c0.7,0.3,1.4,0.6,2.2,1c0.6-0.6,1.3-1.1,2-1.5c0.5-0.3,1,0.5,0.5,0.8c-0.5,0.4-1,0.7-1.5,1.1
					c0.8,0.3,1.6,0.7,2.5,1.1c0.6-0.7,1.1-1.4,1.7-2c0.4-0.4,1.1,0.2,0.7,0.7c-0.5,0.6-1,1.2-1.5,1.8c0.6,0.3,1.2,0.5,1.8,0.8
					c0.5-0.5,0.9-1.1,1.3-1.7c0.3-0.5,1.1-0.1,0.8,0.5c-0.3,0.6-0.7,1.1-1.2,1.6c0.6,0.3,1.2,0.5,1.9,0.8c0.5-0.7,1-1.3,1.4-2
					c0.3-0.5,1.1-0.1,0.8,0.5c-0.4,0.7-0.8,1.3-1.3,1.9c0.7,0.3,1.5,0.7,2.3,1c0.4-0.5,0.7-1.1,1.1-1.6c0.4-0.4,1.1,0.2,0.7,0.7
					c-0.4,0.4-0.6,0.8-0.9,1.3c0.5,0.2,1,0.5,1.5,0.7c0.7-0.5,1.2-1.1,1.4-1.9c0.2-0.6,1.1-0.3,0.9,0.3c-0.3,0.9-0.8,1.6-1.4,2.1
					c0.6,0.3,1.2,0.5,1.9,0.8c0.4-0.9,0.9-1.7,1.6-2.5c0.4-0.4,1.1,0.2,0.7,0.7c-0.6,0.6-1.1,1.4-1.4,2.2c0.5,0.2,1.1,0.5,1.6,0.7
					c0.6-0.7,1.3-1.5,2-2.1c0.4-0.4,1.1,0.2,0.7,0.7c-0.6,0.6-1.2,1.2-1.7,1.9c0.7,0.3,1.5,0.7,2.2,1c0.8-0.8,1.4-1.8,2.1-2.6
					c0.4-0.4,1.1,0.2,0.7,0.7c-0.7,0.7-1.3,1.6-1.9,2.3c0.7,0.3,1.3,0.6,2,0.9c0.5-1,1-1.9,1.6-2.8c0.3-0.5,1.2,0,0.8,0.5
					c-0.6,0.9-1.1,1.8-1.5,2.7c0.9,0.4,1.9,0.9,2.8,1.3c0.5-0.5,0.9-1,1.2-1.7c0,0,0,0,0.1-0.1c0,0,0,0,0,0c0.1-0.1,0.2-0.1,0.3-0.1
					c0,0,0,0,0,0c0,0,0,0,0,0c0,0,0,0,0.1,0c0.2,0,0.3,0.2,0.4,0.3c0,0.1,0,0.2,0,0.3c0,0,0,0,0,0c0,0,0,0,0,0.1
					c-0.3,0.6-0.7,1.1-1.1,1.6c0.2,0.1,0.5,0.2,0.7,0.3c0.7-0.7,1.3-1.3,2-2c0.4-0.4,1.1,0.2,0.7,0.7c-0.6,0.6-1.2,1.2-1.8,1.8
					c1.1,0.5,2.3,1,3.4,1.5c0.8-1.1,1.6-2.1,2.5-3c0.4-0.4,1.1,0.2,0.7,0.7c-0.8,0.9-1.6,1.8-2.3,2.8c0.8,0.4,1.7,0.8,2.5,1.1
					c0.5-0.7,1-1.4,1.4-2.1c0.3-0.5,1.1-0.1,0.8,0.5c-0.4,0.7-0.9,1.4-1.4,2c0.7,0.3,1.4,0.7,2.1,1c0.8-1,1.4-2.1,1.7-3.4
					c0.2-0.6,1.1-0.3,0.9,0.3c-0.4,1.3-1,2.5-1.8,3.5c0.8,0.4,1.6,0.8,2.5,1.2c0.5-0.5,1-1.1,1.3-1.7c0,0,0,0,0.1-0.1c0,0,0,0,0,0
					c0.1-0.1,0.2-0.1,0.3-0.1c0,0,0,0,0,0c0,0,0,0,0,0c0,0,0,0,0,0c0.2,0,0.3,0.2,0.4,0.3c0,0.1,0,0.2,0,0.3c0,0,0,0,0,0
					c0,0,0,0,0,0.1c-0.3,0.6-0.8,1.2-1.2,1.7c0.8,0.4,1.6,0.8,2.4,1.1c0.5-0.7,1-1.4,1.3-2.3c0.2-0.6,1.1-0.3,0.9,0.3
					c-0.3,0.9-0.8,1.7-1.4,2.4c0.7,0.3,1.4,0.7,2,1c0.4-0.7,0.8-1.4,1.4-2c0.4-0.4,1.1,0.2,0.7,0.7c-0.5,0.5-0.8,1.1-1.2,1.7
					c0.7,0.3,1.3,0.7,1.9,1c0.5-0.7,1-1.5,1.4-2.3c0.3-0.5,1.1-0.1,0.8,0.5c-0.4,0.8-0.9,1.5-1.3,2.2c0.6,0.3,1.1,0.6,1.6,0.8
					c0.3-0.6,0.5-1.4,0.8-2c0.2-0.6,1.1-0.3,0.9,0.3c-0.2,0.7-0.5,1.5-0.8,2.2c0.6,0.3,1.2,0.6,1.8,0.9c0.4-0.9,0.7-1.9,1-2.9
					c0.2-0.6,1.1-0.3,0.9,0.3c-0.5,1.7-1,3.4-2,4.9c0,0,0,0.1-0.1,0.1c-6.8,20.3-42.8,81.6-59.8,111.5
					c-17.6,30.9-35.2,60.9-35.2,60.9s-0.5-0.2-1.5-0.7c-0.1,0.4-0.3,0.8-0.4,1.3c-0.2,0.6-1.1,0.3-0.9-0.3c0.2-0.5,0.3-0.9,0.5-1.4
					c-0.3-0.1-0.7-0.3-1.1-0.5c-0.3,0.9-0.6,1.7-0.9,2.6c-0.2,0.6-1.1,0.3-0.9-0.3c0.3-0.9,0.6-1.8,0.9-2.8
					c-0.4-0.2-0.9-0.4-1.4-0.6c-0.5,0.9-1,1.9-1.5,2.8c-0.3,0.5-1.2,0-0.8-0.5c0.6-0.9,1-1.8,1.5-2.7c-0.7-0.3-1.4-0.6-2.2-1
					c-0.4,0.8-0.9,1.5-1.3,2.3c-0.3,0.5-1.1,0.1-0.8-0.5c0.4-0.8,0.8-1.5,1.3-2.2c-0.7-0.3-1.3-0.6-2.1-0.9
					c-0.5,0.8-1.1,1.5-1.9,1.9c-0.5,0.3-1-0.5-0.5-0.8c0.6-0.3,1.1-0.9,1.5-1.5c-0.8-0.4-1.7-0.8-2.6-1.2c-0.4,1-0.9,2-1.5,2.9
					c-0.3,0.5-1.2,0-0.8-0.5c0.6-0.9,1.1-1.8,1.5-2.8c-0.5-0.2-0.9-0.4-1.4-0.6c-0.5,0.8-1.2,1.6-1.7,2.5c-0.3,0.5-1.1,0.1-0.8-0.5
					c0.5-0.9,1.1-1.6,1.6-2.4c-0.5-0.2-1-0.5-1.6-0.7c-0.8,1.1-1.6,2.2-2.6,3.2c-0.4,0.4-1.1-0.2-0.7-0.7c0.9-0.9,1.7-1.9,2.4-3
					c-0.6-0.3-1.2-0.6-1.9-0.9c-0.6,0.9-1.1,1.8-1.8,2.6c-0.4,0.4-1.1-0.2-0.7-0.7c0.7-0.7,1.1-1.5,1.6-2.3
					c-0.6-0.3-1.2-0.6-1.8-0.9c-0.7,0.7-1.3,1.3-2,2c-0.4,0.4-1.1-0.2-0.7-0.7c0.6-0.6,1.1-1.1,1.7-1.7c-0.8-0.4-1.7-0.8-2.5-1.2
					c-0.6,0.9-0.9,1.9-1.2,2.9c-0.2,0.6-1.1,0.3-0.9-0.3c0.3-1,0.7-2.1,1.3-3c-0.6-0.3-1.2-0.6-1.8-0.9c-0.5,0.9-1.2,1.7-2,2.5
					c-0.4,0.4-1.1-0.2-0.7-0.7c0.7-0.7,1.3-1.4,1.8-2.2c-0.8-0.4-1.6-0.7-2.3-1.1c-1,1.2-2,2.4-3.1,3.5c-0.4,0.4-1.1-0.2-0.7-0.7
					c1-1,1.9-2.2,2.9-3.3c-0.7-0.3-1.3-0.6-2-1c-0.5,1.3-1.2,2.5-2.1,3.5c-0.4,0.4-1.1-0.2-0.7-0.7c0.8-0.9,1.5-2,1.9-3.2
					c-0.5-0.2-1-0.5-1.5-0.7c-0.3,0.6-0.7,1.2-1.2,1.7c-0.4,0.4-1.1-0.2-0.7-0.7c0.4-0.4,0.7-1,1-1.5c-0.5-0.2-1-0.5-1.4-0.7
					c-0.3,0.7-0.7,1.3-1.2,1.9c-0.4,0.4-1.1-0.2-0.7-0.7c0.5-0.5,0.8-1,1.1-1.6c-0.6-0.3-1.2-0.6-1.7-0.9c-0.3,0.5-0.7,1.1-0.9,1.6
					c-0.3,0.5-1.1,0.1-0.8-0.5c0.3-0.5,0.6-1.1,0.9-1.6c-0.5-0.3-1-0.5-1.5-0.8c-0.5,0.6-1,1.2-1.4,1.9c-0.3,0.5-1.2,0-0.8-0.5
					c0.4-0.6,0.9-1.2,1.4-1.8c-0.6-0.3-1.2-0.6-1.9-0.9c-0.7,0.7-1.4,1.4-2,2.3c-0.3,0.5-1.2,0-0.8-0.5c0.6-0.8,1.3-1.5,2-2.2
					c-0.5-0.3-1-0.5-1.5-0.8c-0.6,1.2-1.6,2.1-2.5,3.1c-0.4,0.4-1.1-0.2-0.7-0.7c0.9-0.9,1.8-1.8,2.4-2.8c-0.6-0.3-1.2-0.6-1.9-0.9
					c-0.6,0.7-1.1,1.4-1.7,2.1c-0.4,0.4-1.1-0.2-0.7-0.7c0.6-0.6,1.1-1.2,1.6-1.8c-0.8-0.4-1.6-0.8-2.3-1.2c-0.7,0.9-1.4,1.9-1.8,3
					c-0.2,0.6-1.1,0.3-0.9-0.3c0.4-1.2,1.1-2.2,1.8-3.2c-0.9-0.4-1.7-0.9-2.5-1.3c-0.9,1.1-1.6,2.2-2.2,3.4
					c-0.3,0.5-1.1,0.1-0.8-0.5c0.6-1.2,1.4-2.3,2.2-3.4c-0.6-0.3-1.1-0.6-1.6-0.9c-0.5,0.8-0.8,1.8-1.1,2.7
					c-0.2,0.6-1.1,0.3-0.9-0.3c0.3-1,0.7-2,1.2-2.9c-0.4-0.2-0.9-0.5-1.3-0.7c-0.7,0.8-1.3,1.7-1.9,2.6c-0.3,0.5-1.2,0-0.8-0.5
					c0.6-0.9,1.3-1.7,1.9-2.5c-0.8-0.4-1.6-0.9-2.3-1.3c-0.6,0.8-1.1,1.6-1.7,2.4c-0.3,0.5-1.2,0-0.8-0.5c0.5-0.8,1.1-1.6,1.7-2.4
					c-0.5-0.3-1-0.6-1.4-0.8c-0.8,0.8-1.6,1.6-2.4,2.4c-0.4,0.4-1.1-0.2-0.7-0.7c0.7-0.7,1.5-1.5,2.2-2.2c-0.7-0.4-1.4-0.9-2.1-1.3
					c-0.7,0.9-1.3,1.9-1.7,3C272.1,315.4,271.2,315.2,271.4,314.6z"/>
				<g>
					<path fill="#EB7350" d="M433.7,180.7c-0.6,1.3-1,2.7-1.7,4c-0.3,0.6,0.6,1.1,0.9,0.5c0.6-1.3,1-2.7,1.7-4
						C434.8,180.6,433.9,180.1,433.7,180.7z"/>
					<path fill="#EB7350" d="M427.7,193.3c-0.6,1-1,2-1.7,3c-0.4,0.5,0.5,1,0.9,0.5c0.6-1,1-2,1.7-3
						C428.9,193.3,428,192.8,427.7,193.3z"/>
					<path fill="#EB7350" d="M425.4,188.9c-0.7,0.7-1.1,1.6-1.5,2.6c-0.2,0.6,0.8,0.9,1,0.3c0.3-0.8,0.6-1.5,1.2-2.1
						C426.6,189.1,425.9,188.4,425.4,188.9z"/>
					<path fill="#EB7350" d="M316.3,248.7c-0.4,0.7-1,1.3-1.3,2c-0.3,0.6,0.6,1.1,0.9,0.5c0.4-0.7,1-1.3,1.3-2
						C317.5,248.6,316.6,248.1,316.3,248.7z"/>
					<path fill="#EB7350" d="M311.7,253.9c-0.7,0.7-1.2,1.6-1.7,2.4c-0.4,0.5,0.5,1,0.9,0.5c0.5-0.8,0.9-1.6,1.6-2.2
						C312.9,254.1,312.2,253.4,311.7,253.9z"/>
					<path fill="#EB7350" d="M315.4,255.2c-0.3,0.3-0.4,0.7-0.7,1c-0.4,0.5,0.3,1.2,0.7,0.7c0.3-0.3,0.4-0.7,0.7-1
						C316.5,255.5,315.8,254.7,315.4,255.2z"/>
					<path fill="#EB7350" d="M352.1,311.2c-1.2,1.2-2.4,2.4-3.4,3.8c-0.4,0.5,0.5,1,0.9,0.5c1-1.3,2.1-2.4,3.3-3.6
						C353.2,311.5,352.5,310.8,352.1,311.2z"/>
					<path fill="#EB7350" d="M360.3,284.6c0,0.5-0.4,1-0.6,1.4c-0.3,0.6,0.6,1.1,0.9,0.5c0.3-0.6,0.7-1.2,0.7-1.9
						C361.3,283.9,360.3,283.9,360.3,284.6z"/>
					<path fill="#EB7350" d="M316.3,290c-0.3,0.5-0.4,1.1-0.7,1.7c-0.3,0.6,0.6,1.1,0.9,0.5c0.3-0.5,0.4-1.1,0.7-1.7
						C317.5,289.9,316.6,289.4,316.3,290z"/>
					<path fill="#EB7350" d="M307.3,303.6c0,0.3-0.3,0.6-0.3,1c-0.1,0.6,0.9,0.6,1,0c0-0.3,0.3-0.6,0.3-1
						C308.3,302.9,307.3,302.9,307.3,303.6z"/>
					<path fill="#EB7350" d="M347.9,214.6c0-1.8,0.3-3.5,1.3-5.1c0.3-0.6-0.5-1.1-0.9-0.5c-1,1.7-1.4,3.6-1.4,5.6
						C346.9,215.2,347.9,215.2,347.9,214.6z"/>
					<path fill="#EB7350" d="M372.2,174.5c-1.2,0.6-2.5,1.2-3.7,2c-0.5,0.4,0,1.2,0.5,0.9c1.2-0.8,2.4-1.4,3.7-2
						C373.3,175.1,372.7,174.2,372.2,174.5z"/>
					<path fill="#EB7350" d="M376.6,256.1c-0.3,0.9-0.8,1.7-1.3,2.5c-0.4,0.5,0.5,1,0.9,0.5c0.6-0.9,1-1.8,1.4-2.8
						C377.8,255.8,376.8,255.5,376.6,256.1z"/>
					<path fill="#EB7350" d="M403.9,219.6c0,1.2,0,2.4-0.3,3.5c-0.1,0.6,0.8,0.9,1,0.3c0.3-1.3,0.4-2.5,0.4-3.8
						C404.9,218.9,403.9,218.9,403.9,219.6z"/>
					<path fill="#EB7350" d="M371.7,172.3c0.8-0.4,1.6-0.6,2.3-1c0.6-0.3,0.1-1.1-0.5-0.9c-0.8,0.4-1.6,0.6-2.3,1
						C370.6,171.8,371.1,172.6,371.7,172.3z"/>
					<path fill="#EB7350" d="M389.1,157.1c-0.6,0-0.6,1,0,1C389.7,158.1,389.7,157.1,389.1,157.1z"/>
					<path fill="#EB7350" d="M374.1,291.9c-0.9,0.9-1.7,2-2.4,3.1c-0.4,0.5,0.5,1,0.9,0.5c0.7-1,1.4-2,2.3-2.9
						C375.2,292.1,374.5,291.4,374.1,291.9z"/>
					<path fill="#EB7350" d="M347.3,333.8c-0.3,0.9-0.9,1.7-1.5,2.4c-0.4,0.5,0.3,1.2,0.7,0.7c0.8-0.8,1.4-1.8,1.8-2.9
						C348.5,333.4,347.5,333.2,347.3,333.8z"/>
					<path fill="#EB7350" d="M330.2,327.5c-0.8,0.5-1.5,0.6-2.4,0.6c-0.6,0-0.6,1,0,1c1.1,0,2-0.1,2.9-0.7
						C331.2,328,330.7,327.1,330.2,327.5z"/>
					<path fill="#EB7350" d="M335.1,322.4c-0.6,0-0.6,1,0,1C335.7,323.4,335.7,322.4,335.1,322.4z"/>
					<path fill="#EB7350" d="M294.9,302.6c0-0.6-1-0.6-1,0c0,0.8,0.1,1.5,0.4,2.3c0.3,0.6,1.1,0.1,0.9-0.5
						C294.9,303.8,294.9,303.2,294.9,302.6z"/>
					<path fill="#EB7350" d="M318.4,270.9c-0.3,0.3-0.7,0.7-1,1c-0.5,0.5,0.3,1.2,0.7,0.7c0.3-0.3,0.7-0.7,1-1
						C319.6,271.1,318.9,270.4,318.4,270.9z"/>
					<path fill="#EB7350" d="M334.9,238.8c-0.3-0.8-0.3-1.7-0.3-2.5c0-0.6-1-0.6-1,0c0,1,0.1,1.9,0.4,2.8
						C334.1,239.7,335.1,239.4,334.9,238.8z"/>
					<path fill="#EB7350" d="M412.4,174.1c-0.5,0-0.9,0.3-1.3,0.3c-0.6,0-0.6,1,0,1c0.3,0,0.5-0.1,0.8-0.1c0.2-0.1,0.3-0.2,0.5-0.2
						C413.1,175,413.1,174,412.4,174.1z"/>
				</g>
			</g>
			<path opacity="0.4" fill="#EB7350" d="M409,182.8c0.2-0.3,0.2-0.7-0.2-0.8c-0.1,0-0.2,0-0.3-0.1c2.7-5.1,3.7-9.7,3.7-9.7
				s-2.8-7.5-16.8-7.7c-2.3,2.3-3.7,4.6-4.2,5.6c-0.2-0.1-0.5,0.1-0.6,0.3c-2.1-1.9-14.1-12.3-16.6-4.5c0,0-1.8,2.6,3,7.3
				c-4,0.8-9.2,2-11,2.7c-3,1.3-0.6,9.1,3.5,18l3.9,8.3c-3,2.3-7.7,6.8-3.6,10.9l-3.2,2.4c0,0,0.7,0.4,1.7,0.8l-2,4.3
				c0,0-1.2,1-2.8,2.6l0,0c-0.2,0.1-0.4,0.3-0.6,0.4c-0.3-1.6-1.3-3.7-2.9-3.3c-0.8,0.2-1.3,1.3-0.9,2.1c0.5,0.7,1.1,1.2,1.8,1.6
				c-2.3,0.8-4.8,2.9-6.9,1.7c-0.5-0.3-1.1,0.5-0.5,0.9c2.8,1.7,5.4-1.3,8.2-1.7c-0.2,0.3-0.1,0.4-0.1,0.4c-5,3.2-10.5,10.2-13,15.2
				c-2,4.1-6.4,19.6-7.9,25.2c-0.3,0.4-0.6,0.7-0.9,1.1c-0.3,0.4,0,0.9,0.4,0.9c0,0.1,0,0.1,0,0.1l-9,11.9c0,0-6,3.6-9.2,4.4
				c-1.4,0.3-2.5,0.5-3.5,0.6c-0.1-0.2-0.3-0.3-0.5-0.2c-1.3,0.2-2.4,1.2-2.1,2.6c0.1,0.3,0.3,0.4,0.5,0.3c1.2,1.9,4.7,4.5,6.6,4.1
				c2.5-0.5,2.5-1,4.5-1.5c1.7-0.4,2.7-0.1,3.6-0.9c0,0.1,0.1,0.3,0.2,0.4c-0.7,2.8-1.1,5.3-2.9,7.2c-2,2.2-2.8,2.7-3.5,6.5
				s-3.8,8-3,9.5c0.8,1.4,5.6,3.3,7.7,2.1c0.1,0,0.1,0,0.2-0.1c0.9-0.5,1.4-1.3,1.2-2.3c0-0.1-0.1-0.2-0.1-0.3
				c0.5-2.7,0.4-6.9,1.8-10.8c2-5.5,12.7-21.3,17.8-30c0.1-0.1,0.1-0.1,0.2-0.2c2.7-2.6,4.9-5.5,6.2-9.2c0.1-0.2,0-0.4-0.2-0.5
				c4.5-2.6,18.3-7.6,20.9-13.2c1.8-3.8,2.7-9.1,3.2-12.3l0,0l0-0.2c0.5,1.9,1.4,3.8,2.8,5.1c0.5,0.4,1.2-0.3,0.7-0.7
				c-1.8-1.7-2.8-4.6-2.8-7.1c0,0,0,0,0.1,0c1,0.6,1.9,1.1,2.7,1c0.2,0,0.4-0.1,0.5-0.4c0.3-2-1.7-2.3-3.2-1.8
				c0.5-1.7,1.2-4.3,1.3-5.2c0.5-1.5,0.9-2.7,1.3-3.6c0.5,0.5,0.9,1.1,0.9,1.1l-0.2-2.8c0,0,5.5-3.2,8.3-5.7l1.7-1.2
				c0.3,0.4,0.6,0.8,0.9,1.2c0.2,0.3,0.7,0.2,0.9,0c2.5,3,8.3,9.5,11.2,10.5c3.8,1.3,6.5-2.5,6.8-5.5c0.3-2.4,1-15.3,1.2-20.2
				c0.4,0.1,0.8,0.1,1.1,0.2c4.5,2.4,9,3.6,11.7,0.7C429.5,201,426.8,189.6,409,182.8z M379.3,175.1c-0.1,0-0.1-0.1-0.1-0.1
				C379.2,175,379.3,175.1,379.3,175.1z M377.8,173.9C377.8,173.9,377.8,173.8,377.8,173.9C377.8,173.8,377.8,173.9,377.8,173.9z
				 M378.6,174.5C378.5,174.5,378.5,174.4,378.6,174.5C378.5,174.4,378.5,174.5,378.6,174.5z M381.5,178.8c-0.5,2.1-1.6,5.6-4.1,9.4
				l-3.3-7.5L381.5,178.8z M361,221.5c0.4,0.4,0.8,1.1,1,1.9c-0.1,0-0.2-0.1-0.2-0.1c-0.2-0.1-0.4-0.3-0.6-0.4
				c-0.2-0.1-0.3-0.2-0.5-0.4C360.2,222.2,360.3,221.9,361,221.5z M383.7,233c-0.3-0.1-0.7-0.2-1.1-0.4
				C383.2,232.5,383.6,232.6,383.7,233z M405.8,213.7c-0.1-0.1-0.3-0.2-0.4-0.2c-0.8-1.2-2.8-4.3-3.8-6.2c-1-1.8-2.4-3.6-5.2-4.7
				c0.1,0,0.1,0,0.2,0c-0.1-0.8-1.7-1.4-2.8-0.8c-0.3-0.2-0.6-0.5-0.8-0.7c0-0.1-0.1-0.2-0.2-0.3c-0.1-0.2-0.2-0.3-0.3-0.5
				c3.4-0.3,4.3-1.8,5.6,0.1c1.5,2.1,5.2,5.4,3.5,0.9c-0.6-1.6-0.4-3.4,0.1-5.1c0.8,0.5,1.6,0.9,2.4,1.2c2.2,0.9,4.5,1.6,6.8,2.1
				L405.8,213.7z"/>
			<g>
				<path fill="#192730" d="M403.6,189c0,0-4.9,6.8-3.1,11.2s-2,1.2-3.5-0.9s-2.4,0.1-7.3,0c-4.9-0.1-22-1.9-15.8-8.8
					c6.2-6.9,7-14.6,7-14.6l5.9-3.5L403.6,189z"/>
				<path fill="#EB7350" d="M373.2,165c0,0-2.5,3.5,6,9.8c8.5,6.3,23.7,15,23.7,15s18.1,17.8,24.9,10.6c-7.8-4.1-15.5-7.4-15.5-7.4
					S377.9,155.9,373.2,165z"/>
				<path fill="#D58165" d="M369,212.2l-3.5,7.4c0,0-2.2,1.8-4.8,4.6c-5,3.2-10.5,10.2-13,15.2s-8.5,27.2-8.5,27.2l-9,11.9
					c0,0-6,3.6-9.2,4.4s-5.5,0.5-6,2s4.5,6,7,5.5s2.5-1,4.5-1.5c2-0.5,3.1,0,4.1-1.5c-0.9,3.1-1.1,6-3.1,8.2c-2,2.2-2.8,2.7-3.5,6.5
					s-3.8,8-3,9.5s6.2,3.5,8,1.8s0.8-7.7,2.8-13.2s12.7-21.3,17.8-30c3.7-3.7,4.8-5.8,5.8-9.7c4.2-2.5,18.5-7.7,21.2-13.3
					c2.7-5.7,3.5-15,3.5-15s1.5-5.3,1.7-6.7c1-3.2,2-5.3,2-5.3l10.5-7.2c0,0,8.7,10.7,12.5,12c3.8,1.3,6.5-2.5,6.8-5.5
					c0.3-3,1.3-22,1.3-22s2.3-5.5,1.3-7.5s-4.3-5-5.5-4.3c-0.8,0.7,0.5,1.3,0.5,1.3s-3.2-1.5-4.2-0.7s2.8,3.3,2.8,3.3
					s-3.5-1.7-4.3-1.2c-0.8,0.5,2.2,4.2,3.2,4.7c0.7,1.7,1.2,4.5,1.2,4.5l-5.3,15.2c0,0-2.8-4.3-4.2-6.7c-1.3-2.3-3.2-4.5-7.8-5.5
					c-1.7-1-2-3-0.5-5.2c1.5-2.2,3.2-4.3,3.2-4.3s-8-0.3-10-1.7c-1.3,3.5-2.7,6.3-4.3,6.8c-0.9-2.3-3.5-6.8-3.5-6.8l-8.8,3.2
					l4.2,8.9C372.9,201.9,365.3,207.2,369,212.2z"/>
				<path fill="#FFFFFF" d="M369,212.2c0,0,8.2,2.3,12.7,5.4c1.1,0.9,2.1,2.6,2.1,2.6s5.5-3.2,8.3-5.7c-1-0.9-3.2-4.8-1.4-7.7
					c1.9-2.9,4.1-5.8,4.8-5.4c-0.1-0.8-1.7-1.4-2.8-0.8c-1,0.9-3.7,5-3.7,5s-5.2-0.6-11.4,2.2c0.6-3.2,0.2-7.3,0.2-7.3s2.4-4.1,3-5
					c0.1-1.3-0.4-2-1-2c-1.2,1.5-4.8,6.1-4.8,6.1S363.3,206.4,369,212.2z"/>
				<path fill="#D5E1DF" d="M369,212.2l-3.2,2.4c0,0,2.3,1.4,4.8,1.4c2.5,0,4.9,1.5,6.9,2.9s3.7,2.4,4.4,2.4c0.7,0,2.1,1.9,2.1,1.9
					l-0.2-2.8c0,0,0.5-1.5-4.7-4.2C373.4,213.1,369,212.2,369,212.2z"/>
				<g>
					<g>
						<path fill="#0E171C" d="M362.2,223.5c-0.1-1.5-1.1-4.6-3.1-4.2c-0.8,0.2-1.3,1.3-0.9,2.1c0.7,1.1,1.9,1.6,2.9,2.3
							c0.1-0.3,0.2-0.6,0.3-0.9c-2.6,0-5.8,3.5-8.2,1.9c-0.5-0.3-1.1,0.5-0.5,0.9c3,1.8,5.8-1.8,8.8-1.8c0.5,0,0.7-0.7,0.3-0.9
							c-0.3-0.2-0.6-0.4-1-0.6c-0.2-0.1-0.4-0.3-0.6-0.4c-0.2-0.1-0.3-0.2-0.5-0.4c-0.5-0.3-0.4-0.6,0.3-1c0.7,0.6,1.2,2,1.3,3
							C361.3,224.1,362.3,224.1,362.2,223.5L362.2,223.5z"/>
					</g>
				</g>
				<path fill="#192730" d="M362.7,222.2c0,0,7.1,2.4,14.5,6.5c3.3,1.6,3.3,3.4,3.3,3.4l-0.6,2.9c0,0-1.4-2.9-6.7-1.5
					c-5.3,1.4-10.4,6.1-10.4,6.1s-1.2-1.8-1.4-5.6s-0.6-9.8-0.6-9.8S360.5,223.7,362.7,222.2z"/>
				<g>
					<g>
						<path fill="#0E171C" d="M380.4,232.1c0.5-0.4,2.6-1.1,2.4,0.3c0.2-0.1,0.3-0.2,0.5-0.4c-2.7,0.1-6.4-5.1-8.7-1.5
							c-0.2,0.2,0,0.5,0.2,0.7c1.6,1,3.5,0.7,5.3,0.7c-0.2-0.2-0.3-0.3-0.5-0.5c-0.1,2.9,1,6.4,3.1,8.5c0.5,0.4,1.2-0.3,0.7-0.7
							c-2-1.9-2.9-5.1-2.9-7.8c0-0.3-0.2-0.5-0.5-0.5c-1.6,0-3.4,0.4-4.7-0.6c0.1,0.2,0.1,0.5,0.2,0.7c1.6-2.4,5.7,2.1,7.8,2
							c0.2,0,0.4-0.1,0.5-0.4c0.4-2.5-2.7-2.4-4.1-1.2C379.1,231.8,379.9,232.5,380.4,232.1L380.4,232.1z"/>
					</g>
				</g>
				<g>
					<g>
						<path fill="#0E171C" d="M379.5,231.7c-0.6,2.1-0.9,5.5-3.4,6.2c-0.6,0.2-0.4,1.1,0.3,1c3-0.7,3.4-4.4,4.1-6.8
							C380.7,231.4,379.7,231.1,379.5,231.7L379.5,231.7z"/>
					</g>
				</g>
				<path fill="#FFFFFF" d="M376.1,214c-0.2-0.3-0.6-0.1-0.8,0.1c0,0,0,0.1,0,0.1c-1.6-0.2-3.1,0.7-4,2.1c-0.2,0.3,0,0.7,0.3,0.7
					c1,0.2,1.7-0.2,2.4-0.6c-1,1.7-2.1,3.4-4.1,3.8c-0.6,0.1-0.4,1.1,0.3,1c1.5-0.3,2.5-1.2,3.4-2.3c-0.2,1.2-0.1,2.5,0.3,3.8
					c0.2,0.6,1.2,0.3,1-0.3c-0.5-1.5-0.5-2.9-0.1-4.3c0.1,0.4,0.4,0.7,0.6,1.1c0.2,0.3,0.6,0.1,0.8-0.1
					C377.2,217.6,377.1,215.2,376.1,214z M375.8,215.5c0.2,0.7,0.1,1.5-0.1,2.2C375.4,216.9,375.5,216.1,375.8,215.5z M373.9,215.3
					c-0.3,0.2-0.6,0.4-0.9,0.5C373.3,215.6,373.6,215.4,373.9,215.3z"/>
				<g>
					<g>
						<path fill="#AF5A4F" d="M364,237.6c-4,4.6-8.9,8-13.1,12.3c-2,2-3.5,4.4-5,6.8c-2,3.2-4.6,6.1-7.1,9c-0.4,0.5,0.3,1.2,0.7,0.7
							c2.1-2.5,4.3-5.1,6.2-7.8c2-2.7,3.5-5.6,5.8-8c4.1-4.4,9.1-7.8,13.1-12.3C365.1,237.9,364.4,237.2,364,237.6L364,237.6z"/>
					</g>
				</g>
				<g>
					<g>
						<path fill="#AF5A4F" d="M355,260.7c-2.3,6.5-7.8,10.8-13.3,14.7c-2.5,1.8-5.2,3.4-7.4,5.6c-1.8,1.8-1.7,5.2-4,6.5
							c-0.6,0.3-0.1,1.2,0.5,0.9c2.1-1.2,2.6-4,3.7-6c1-1.8,3.3-3.1,4.9-4.3c1.6-1.1,3.2-2.2,4.8-3.3c5-3.8,9.6-7.7,11.8-13.8
							C356.2,260.4,355.2,260.1,355,260.7L355,260.7z"/>
					</g>
				</g>
				<g>
					<g>
						<path fill="#AF5A4F" d="M347.5,257.4c-0.2,0.8-0.6,1.6-1.1,2.4c-0.4,0.5,0.5,1,0.9,0.5c0.5-0.8,0.9-1.7,1.2-2.6
							C348.7,257,347.7,256.8,347.5,257.4L347.5,257.4z"/>
					</g>
				</g>
				<g>
					<g>
						<path fill="#AF5A4F" d="M348.9,259c-0.4,0.5-0.9,1-1.2,1.5c-0.4,0.5,0.5,1,0.9,0.5c0.4-0.5,0.9-1,1.2-1.5
							C350.2,259,349.3,258.5,348.9,259L348.9,259z"/>
					</g>
				</g>
				<g>
					<g>
						<path fill="#AF5A4F" d="M370.9,222.7c-0.1,0.2-0.2,0.5-0.4,0.6c-0.4,0.5,0.3,1.2,0.7,0.7c0.2-0.3,0.4-0.5,0.6-0.9
							C372.1,222.7,371.2,222.2,370.9,222.7L370.9,222.7z"/>
					</g>
				</g>
				<g>
					<g>
						<path fill="#AF5A4F" d="M403.9,212.7c-0.9,1.7-2.1,4-1.2,5.9c0.3,0.6,1.1,0.1,0.9-0.5c-0.7-1.5,0.6-3.6,1.2-4.9
							C405.1,212.7,404.2,212.2,403.9,212.7L403.9,212.7z"/>
					</g>
				</g>
				<g>
					<g>
						<path fill="#AF5A4F" d="M379.8,204.3c-1.1,1-2.2,2-2.8,3.5c-0.2,0.6,0.7,0.9,1,0.3c0.5-1.3,1.5-2.2,2.5-3
							C381,204.6,380.3,203.8,379.8,204.3L379.8,204.3z"/>
					</g>
				</g>
				<g>
					<g>
						<path fill="#AF5A4F" d="M379.8,197.1c1,1,2.1,2,3.4,2.7c0.6,0.3,1.1-0.6,0.5-0.9c-1.2-0.6-2.2-1.6-3.1-2.5
							C380,195.9,379.3,196.6,379.8,197.1L379.8,197.1z"/>
					</g>
				</g>
				<g>
					<g>
						<path fill="#AF5A4F" d="M391.4,199.8c-1.5,0-3.1,0.1-4.6,0.1c-0.6,0-0.6,1,0,1c1.5,0,3.1-0.1,4.6-0.1
							C392,200.7,392,199.7,391.4,199.8L391.4,199.8z"/>
					</g>
				</g>
				<g>
					<g>
						<path fill="#AF5A4F" d="M332.9,280.1c-0.2,0.5-0.6,1-1.1,1.3c-0.5,0.4,0,1.3,0.5,0.9c0.6-0.5,1.1-1,1.4-1.7
							C334.1,280,333.2,279.5,332.9,280.1L332.9,280.1z"/>
					</g>
				</g>
				<g>
					<g>
						<path fill="#AF5A4F" d="M329.3,295c-0.6,0.6-1,1.3-1.1,2.1c-0.1,0.6,0.8,0.9,1,0.3c0.1-0.6,0.4-1.2,0.9-1.7
							C330.4,295.3,329.7,294.6,329.3,295L329.3,295z"/>
					</g>
				</g>
				<g>
					<g>
						<path fill="#AF5A4F" d="M329.1,311.4c0.1,0.7-0.1,1.1-0.8,1.4c-0.6,0.3-0.1,1.2,0.5,0.9c0.9-0.5,1.4-1.3,1.2-2.3
							C330.1,310.7,329.1,310.7,329.1,311.4L329.1,311.4z"/>
					</g>
				</g>
				<g>
					<g>
						<path fill="#AF5A4F" d="M317,283.4c-1.3,0.2-2.4,1.2-2.1,2.6c0.1,0.6,1.1,0.4,1-0.3c-0.2-0.8,0.7-1.3,1.4-1.4
							C317.9,284.3,317.6,283.3,317,283.4L317,283.4z"/>
					</g>
				</g>
				<path fill="#D58165" d="M397.6,190.6c0,0-10.3,3.6-14.3-1.9c-4.1-5.5,1.7-14.1,3.4-16.2s9.6-1.5,13.9,1.2
					S403.5,184.9,397.6,190.6z"/>
				<path fill="#FFFFFF" d="M383,179c0,0,5,1.2,8.5,3.1c3.5,1.9,6.5,5.9,6.5,5.9s-5.2,6.8-14.3,1.9C381.5,187.7,380,183.3,383,179z"
					/>
				<g>
					<g>
						<path fill="#AF5A4F" d="M384.8,191c2.4,2.2,7.5,1.3,10.4,0.8c0.6-0.1,0.4-1.1-0.3-1c-1.4,0.2-2.8,0.4-4.3,0.4
							c-1.5,0.1-3.9,0.2-5.1-0.9C385,189.8,384.3,190.5,384.8,191L384.8,191z"/>
					</g>
				</g>
				<g>
					<g>
						<path fill="#AF5A4F" d="M391.1,210c1.2,1.6,2.5,3.1,3.7,4.7c0.4,0.5,1.2,0,0.9-0.5c-1.2-1.6-2.5-3.1-3.7-4.7
							C391.6,209,390.7,209.5,391.1,210L391.1,210z"/>
					</g>
				</g>
				<g>
					<g>
						<path fill="#AF5A4F" d="M373.6,200.5c0.3-1.5,0.5-3,0.7-4.5c0.1-0.6-0.9-0.6-1,0c-0.2,1.4-0.3,2.8-0.6,4.2
							C372.5,200.8,373.5,201.1,373.6,200.5L373.6,200.5z"/>
					</g>
				</g>
				<path fill="#D58165" d="M382.7,177.3c-1.3-0.9-2.5-1.7-3.6-2.5c-1.2-0.9-2.2-1.7-3-2.5c-4,0.8-9.2,2-11,2.7
					c-3,1.3-0.6,9.1,3.5,18c2.2,0.2,9-2.9,9-2.9l-4.5-10.5L382.7,177.3z"/>
				<path fill="#F8C586" d="M373.2,165c0,0,2.6-3.9,7.4,4.1c3.6,6.1,12.2,23.1,22.4,27.3c10.3,4.2,24,4.4,24.8,4s-2-12.1-20.5-18.9
					c2.9-5.3,4-10.3,4-10.3s-2.8-7.5-16.8-7.7c-3.2,3-4.4,6.2-4.4,6.2S375.8,156.4,373.2,165z"/>
				<g>
					<g>
						<path fill="#EB7350" d="M389.7,169.9c1.4,3,4.1,5.1,6.8,6.9c3.4,2.3,7,4.2,11,5.2c0.6,0.1,0.9-0.8,0.3-1
							c-3.8-0.9-6.9-2.7-10.2-4.7c-2.8-1.7-5.7-3.8-7-6.9C390.3,168.8,389.5,169.3,389.7,169.9L389.7,169.9z"/>
					</g>
				</g>
				<g>
					<g>
						<path fill="#EB7350" d="M408.2,183.2c-1.1,0.1-2.1,0-3.2-0.3c-0.6-0.2-0.9,0.8-0.3,1c1.1,0.3,2.3,0.5,3.5,0.4
							C408.8,184.1,408.8,183.1,408.2,183.2L408.2,183.2z"/>
					</g>
				</g>
				<g>
					<g>
						<path fill="#EB7350" d="M412.7,186.8c-1.2,0.2-2.4,0.2-3.7,0.2c-0.6,0-0.6,1,0,1c1.2,0,2.4,0,3.7-0.2
							C413.3,187.8,413.3,186.7,412.7,186.8L412.7,186.8z"/>
					</g>
				</g>
				<g>
					<g>
						<path fill="#EB7350" d="M415.4,188.5c-1.5,0.5-3.1,0.5-4.7,0.5c-0.6,0-0.6,1,0,1c1.7,0,3.4,0,5-0.5
							C416.2,189.3,416,188.3,415.4,188.5L415.4,188.5z"/>
					</g>
				</g>
				<g>
					<g>
						<path fill="#EB7350" d="M425,196.9c-1.2,0.4-2.4,0.8-3.7,1c-0.6,0.1-0.4,1.1,0.3,1c1.3-0.2,2.4-0.6,3.7-1
							C425.9,197.6,425.7,196.7,425,196.9L425,196.9z"/>
					</g>
				</g>
				<g>
					<g>
						<path fill="#EB7350" d="M422,195.7c-1.2,0.4-2.3,1-3.5,1.2c-0.6,0.1-0.4,1.1,0.3,1c1.2-0.2,2.3-0.8,3.5-1.2
							C422.9,196.5,422.7,195.5,422,195.7L422,195.7z"/>
					</g>
				</g>
			</g>
			<path opacity="0.4" fill="#EB7350" d="M410.4,157.4c-0.1,0.2-0.2,0.3-0.2,0.5c-0.7-0.3-1.3-0.6-2-0.9c0.6-0.8,1.2-1.6,1.9-2.3
				c0.4-0.4-0.2-1.1-0.7-0.7c-0.8,0.8-1.4,1.8-2.1,2.6c-0.8-0.3-1.5-0.7-2.2-1c0.5-0.6,1.1-1.3,1.7-1.9c0.4-0.4-0.2-1.1-0.7-0.7
				c-0.7,0.7-1.3,1.4-2,2.1c-0.5-0.2-1.1-0.5-1.6-0.7c0.3-0.8,0.8-1.5,1.4-2.2c0.4-0.4-0.2-1.1-0.7-0.7c-0.7,0.7-1.2,1.6-1.6,2.5
				c-0.6-0.3-1.2-0.6-1.9-0.8c0.6-0.6,1.1-1.3,1.4-2.1c0.2-0.6-0.7-0.8-0.9-0.3c-0.3,0.8-0.8,1.5-1.4,1.9c-0.5-0.2-1-0.5-1.5-0.7
				c0.3-0.4,0.6-0.9,0.9-1.3c0.4-0.4-0.2-1.1-0.7-0.7c-0.4,0.5-0.8,1-1.1,1.6c-0.8-0.3-1.5-0.7-2.3-1c0.4-0.6,0.9-1.2,1.3-1.9
				c0.3-0.5-0.5-1-0.8-0.5c-0.4,0.7-0.9,1.3-1.4,2c-0.6-0.3-1.2-0.5-1.9-0.8c0.5-0.5,0.9-1,1.2-1.6c0.3-0.5-0.5-1-0.8-0.5
				c-0.3,0.6-0.8,1.2-1.3,1.7c-0.6-0.3-1.2-0.5-1.8-0.8c0.5-0.6,1-1.2,1.5-1.8c0.4-0.4-0.2-1.1-0.7-0.7c-0.6,0.6-1.2,1.3-1.7,2
				c-0.9-0.4-1.7-0.7-2.5-1.1c0.5-0.4,1-0.8,1.5-1.1c0.5-0.3,0-1.2-0.5-0.8c-0.7,0.5-1.3,1-2,1.5c-0.8-0.3-1.5-0.7-2.2-1
				c0.4-0.6,0.9-1.2,1.4-1.7c0.4-0.4-0.2-1.1-0.7-0.7c-0.6,0.6-1.1,1.3-1.6,2c-0.9-0.4-1.7-0.7-2.4-1c0.5-0.8,1.1-1.5,1.8-2.2
				c0.4-0.4-0.2-1.1-0.7-0.7c-0.8,0.8-1.5,1.6-2,2.5c-0.7-0.3-1.2-0.5-1.7-0.7c0.5-0.7,0.9-1.5,1.2-2.3c0.2-0.6-0.7-0.8-0.9-0.3
				c-0.3,0.8-0.7,1.5-1.1,2.2c-0.2-0.1-0.3-0.1-0.3-0.1c-2.9,3.1-22.5,34.8-43.9,70.3c1.6,0.1,3.2,0.2,4.8,0.2
				C371.2,212.9,400.9,189.5,410.4,157.4z"/>
		</g>
		<g>
			<ellipse fill="#FFFFFF" cx="334.9" cy="132.7" rx="77.7" ry="69.8"/>
			<path fill="#EB7350" d="M334.9,132.7v69.8c21.4,1.4,42.8-8.1,54.9-20.4L334.9,132.7z"/>
			<path fill="#EB7350" d="M334.9,132.7V62.9c-21.4,0-40.9,7.8-54.9,20.4L334.9,132.7z"/>
			<path fill="#EB7350" d="M334.9,132.7h-77.7c0,19.3,8.7,36.7,22.7,49.4L334.9,132.7z"/>
			<path fill="#EB7350" d="M334.9,132.7h77.7c0-19.3-8.7-36.7-22.7-49.4L334.9,132.7z"/>
			<path opacity="0.5" fill="#EB7350" d="M353.3,132.7c0,9.1-8.2,16.5-18.3,16.5c-10.1,0-18.3-7.4-18.3-16.5
				c0-9.1,8.2-16.5,18.3-16.5C345.1,116.2,353.3,123.6,353.3,132.7z"/>
			<path fill="#FFFFFF" d="M346.6,132.7c0,5.8-5.2,10.5-11.7,10.5c-6.4,0-11.7-4.7-11.7-10.5c0-5.8,5.2-10.5,11.7-10.5
				C341.4,122.2,346.6,126.9,346.6,132.7z"/>
			<path fill="#192730" d="M341.1,133.1c0,3.1-2.8,5.5-6.2,5.5c-3.4,0-6.2-2.5-6.2-5.5c0-3.1,2.8-5.5,6.2-5.5
				C338.3,127.6,341.1,130.1,341.1,133.1z"/>
		</g>
	</g>
</g>
</svg>
